<?xml version="1.0" encoding="UTF-8" standalone="no"?>
<!-- Created with Inkscape (http://www.inkscape.org/) -->

<svg
   width="40px"
   height="40px"
   viewBox="0 0 21.045921 20.751762"
   version="1.1"
   id="svg5"
   xml:space="preserve"
   inkscape:export-filename="bitmap.svg"
   inkscape:export-xdpi="96"
   inkscape:export-ydpi="96"
   xmlns:inkscape="http://www.inkscape.org/namespaces/inkscape"
   xmlns:sodipodi="http://sodipodi.sourceforge.net/DTD/sodipodi-0.dtd"
   xmlns="http://www.w3.org/2000/svg"
   xmlns:svg="http://www.w3.org/2000/svg"><sodipodi:namedview
     id="namedview7"
     pagecolor="#505050"
     bordercolor="#ffffff"
     borderopacity="1"
     inkscape:showpageshadow="0"
     inkscape:pageopacity="0"
     inkscape:pagecheckerboard="1"
     inkscape:deskcolor="#d1d1d1"
     inkscape:document-units="mm"
     showgrid="false" /><defs
     id="defs2" /><g
     inkscape:label="Layer 1"
     inkscape:groupmode="layer"
     id="layer1"
     transform="translate(-91.994806,-125.52265)"><g
       id="g468"
       transform="translate(131.53934,-30.906091)"
       inkscape:export-filename="g468.svg"
       inkscape:export-xdpi="96"
       inkscape:export-ydpi="96"><path
         style="fill:#c1eebd;stroke-width:0.352778"
         d="m -29.369313,176.69989 c 0.228466,-0.22847 0.46701,-0.22847 0.695476,0 0.228466,0.22847 0.109193,0.34774 -0.347738,0.34774 -0.456931,0 -0.576204,-0.11927 -0.347738,-0.34774 z"
         id="path476" /><path
         style="fill:#5cd452;stroke-width:0.352778"
         d="m -34.80607,168.79095 c -0.09993,-0.16169 0.04945,-0.29398 0.331958,-0.29398 0.282507,0 0.513648,0.13229 0.513648,0.29398 0,0.16169 -0.149381,0.29398 -0.331958,0.29398 -0.182577,0 -0.413718,-0.13229 -0.513648,-0.29398 z m 10.723384,0 c 0,-0.16169 0.231141,-0.29398 0.513648,-0.29398 0.282507,0 0.431888,0.13229 0.331958,0.29398 -0.09993,0.16169 -0.331071,0.29398 -0.513648,0.29398 -0.182577,0 -0.331958,-0.13229 -0.331958,-0.29398 z"
         id="path474" /><path
         style="fill:#34c929;stroke-width:0.352778"
         d="m -33.932613,164.99859 c 0.01693,-0.41097 0.100521,-0.49456 0.213137,-0.21314 0.101907,0.25466 0.08937,0.55893 -0.02785,0.67616 -0.117225,0.11722 -0.200604,-0.0911 -0.185286,-0.46302 z m 9.525,0 c 0.01693,-0.41097 0.100521,-0.49456 0.213136,-0.21314 0.101908,0.25466 0.08938,0.55893 -0.02785,0.67616 -0.117226,0.11722 -0.200604,-0.0911 -0.185286,-0.46302 z m -8.14174,-1.6913 c 0,-0.0733 0.277813,-0.35107 0.617361,-0.61736 0.559526,-0.43881 0.572003,-0.42633 0.133193,0.13319 -0.460858,0.58764 -0.750554,0.77452 -0.750554,0.48417 z m 6.305002,-0.48417 c -0.43881,-0.55952 -0.426333,-0.572 0.133193,-0.13319 0.339548,0.26629 0.617361,0.54411 0.617361,0.61736 0,0.29035 -0.289696,0.10347 -0.750554,-0.48417 z"
         id="path472" /><path
         style="fill:#2bc81f;stroke-width:0.352778"
         d="m -32.623638,176.67028 c -2.204109,-2.561 -2.342817,-2.64646 -4.295309,-2.64646 -1.178243,0 -2.046412,-0.18363 -2.297276,-0.4859 -0.281047,-0.33864 -0.374325,-2.70595 -0.30778,-7.81117 0.08977,-6.88703 0.137373,-7.34866 0.795671,-7.71618 0.385103,-0.21501 0.919787,-0.68264 1.188185,-1.03919 0.437571,-0.58129 0.875572,-0.62809 4.238701,-0.45288 4.560406,0.23758 3.999336,0.23758 8.559742,0 3.363128,-0.17521 3.801131,-0.12841 4.238701,0.45288 0.268398,0.35655 0.803082,0.82418 1.188185,1.03919 0.658298,0.36752 0.7059,0.82915 0.795671,7.71618 0.06655,5.10522 -0.02673,7.47253 -0.30778,7.81117 -0.250864,0.30227 -1.119032,0.4859 -2.297276,0.4859 -1.952492,0 -2.0912,0.0855 -4.295309,2.64646 -0.595407,0.69182 -2.344879,0.67699 -3.047698,-0.0258 -0.503968,-0.50397 -0.604762,-0.50397 -1.10873,0 -0.702819,0.70282 -2.452291,0.71765 -3.047698,0.0258 z m 2.825952,-0.24757 c 0.232833,-0.23284 0.423333,-1.34409 0.423333,-2.46945 0,-1.12889 0.158142,-2.04611 0.352778,-2.04611 0.194636,0 0.352778,0.91722 0.352778,2.04611 0,2.25689 0.38774,2.89278 1.763889,2.89278 1.158918,0 1.762381,-0.5956 1.769291,-1.74625 0.0039,-0.6496 0.09097,-0.76448 0.313335,-0.41341 0.466193,0.73602 1.092374,0.13495 1.092374,-1.04857 0,-0.92871 0.07878,-1.00777 0.682363,-0.68474 0.3753,0.20086 1.407175,0.36519 2.293056,0.36519 h 1.610691 v -7.40833 c 0,-6.35 -0.07559,-7.40833 -0.529166,-7.40833 -0.451683,0 -0.529167,0.97514 -0.529167,6.65958 0,7.01366 -0.0282,7.14062 -1.675694,7.54394 -0.68565,0.16785 -0.79375,0.0547 -0.79375,-0.831 0,-0.73721 -0.173469,-1.02832 -0.617361,-1.03603 -0.587963,-0.0102 -0.587963,-0.0279 0,-0.37031 0.376005,-0.219 0.617361,-0.78336 0.617361,-1.44358 0,-0.82747 -0.104356,-0.99727 -0.440972,-0.71752 -0.339233,0.28193 -0.440973,0.0681 -0.440973,-0.92694 0,-1.08744 -0.118419,-1.28982 -0.743575,-1.2708 -0.547072,0.0166 -0.699711,-0.14511 -0.577594,-0.61209 0.09129,-0.34909 0.06683,-0.89309 -0.05435,-1.20888 -0.172875,-0.4505 -0.327537,-0.4852 -0.718087,-0.16107 -0.401543,0.33325 -0.520069,0.2557 -0.613187,-0.40124 -0.09128,-0.64399 -0.336823,-0.81434 -1.173762,-0.81434 -1.051834,0 -1.058978,0.0135 -1.163361,2.20486 -0.135894,2.85283 -0.712384,2.85283 -0.848278,0 -0.104383,-2.19132 -0.111527,-2.20486 -1.163361,-2.20486 -0.836939,0 -1.08248,0.17035 -1.173762,0.81434 -0.09312,0.65694 -0.211644,0.73449 -0.613187,0.40124 -0.39055,-0.32413 -0.545212,-0.28943 -0.718087,0.16107 -0.121181,0.31579 -0.145639,0.85979 -0.05435,1.20888 0.122117,0.46698 -0.03052,0.62873 -0.577594,0.61209 -0.625156,-0.019 -0.743575,0.18336 -0.743575,1.2708 0,0.99501 -0.10174,1.20887 -0.440973,0.92694 -0.336616,-0.27975 -0.440972,-0.10995 -0.440972,0.71752 0,0.66022 0.241356,1.22458 0.617361,1.44358 0.587963,0.34246 0.587963,0.36009 0,0.37031 -0.443892,0.008 -0.617361,0.29882 -0.617361,1.03603 0,0.88568 -0.1081,0.99885 -0.79375,0.831 -1.647493,-0.40332 -1.675694,-0.53028 -1.675694,-7.54394 0,-5.68444 -0.07748,-6.65958 -0.529167,-6.65958 -0.453571,0 -0.529166,1.05833 -0.529166,7.40833 v 7.40833 h 1.610692 c 0.88588,0 1.917755,-0.16433 2.293055,-0.36519 0.603585,-0.32303 0.682363,-0.24397 0.682363,0.68474 0,1.18352 0.626181,1.78459 1.092374,1.04857 0.222363,-0.35107 0.309435,-0.23619 0.313335,0.41341 0.0069,1.15065 0.610373,1.74625 1.769291,1.74625 0.504473,0 1.107723,-0.1905 1.340556,-0.42333 z m -5.875384,-5.13292 c 0.0282,-0.33955 0.02019,-1.09473 -0.01781,-1.67818 -0.08437,-1.29544 0.856801,-3.65933 1.565174,-3.93116 0.284911,-0.10933 0.518019,-0.58366 0.518019,-1.05406 0,-0.49595 0.259366,-0.94725 0.617361,-1.07421 0.339549,-0.12042 0.889611,-0.4525 1.222361,-0.73797 0.343564,-0.29475 0.99145,-0.44516 1.499305,-0.34808 l 0.894306,0.17096 v -2.7733 -2.7733 h -3.880555 -3.880556 v 7.40833 c 0,7.17315 0.0224,7.40833 0.705556,7.40833 0.417236,0 0.726511,-0.25228 0.756839,-0.61736 z m -0.05128,-7.49653 c 0,-0.19402 0.238125,-0.35277 0.529167,-0.35277 0.291042,0 0.529167,0.15875 0.529167,0.35277 0,0.19403 -0.238125,0.35278 -0.529167,0.35278 -0.291042,0 -0.529167,-0.15875 -0.529167,-0.35278 z m 0,-1.76389 c 0,-0.19402 0.635,-0.35277 1.411111,-0.35277 0.776112,0 1.411112,0.15875 1.411112,0.35277 0,0.19403 -0.635,0.35278 -1.411112,0.35278 -0.776111,0 -1.411111,-0.15875 -1.411111,-0.35278 z m 0,-1.76388 c 0,-0.20159 1.058334,-0.35278 2.469445,-0.35278 1.411111,0 2.469444,0.15119 2.469444,0.35278 0,0.20158 -1.058333,0.35277 -2.469444,0.35277 -1.411111,0 -2.469445,-0.15119 -2.469445,-0.35277 z m 0,-1.76389 c 0,-0.20159 1.058334,-0.35278 2.469445,-0.35278 1.411111,0 2.469444,0.15119 2.469444,0.35278 0,0.20158 -1.058333,0.35277 -2.469444,0.35277 -1.411111,0 -2.469445,-0.15119 -2.469445,-0.35277 z m 14.816667,5.99722 v -7.40833 h -3.880556 -3.880555 v 2.7733 2.7733 l 0.894306,-0.17096 c 0.507855,-0.0971 1.155741,0.0533 1.499305,0.34808 0.33275,0.28547 0.882812,0.61755 1.222361,0.73797 0.357995,0.12696 0.617361,0.57826 0.617361,1.07421 0,0.4704 0.233108,0.94473 0.518019,1.05406 0.708373,0.27183 1.649547,2.63572 1.565175,3.93116 -0.12303,1.88897 0.0079,2.29554 0.739028,2.29554 0.683157,0 0.705556,-0.23518 0.705556,-7.40833 z m -2.469445,-0.70556 c 0,-0.19402 0.238125,-0.35277 0.529167,-0.35277 0.291042,0 0.529167,0.15875 0.529167,0.35277 0,0.19403 -0.238125,0.35278 -0.529167,0.35278 -0.291042,0 -0.529167,-0.15875 -0.529167,-0.35278 z m -1.763889,-1.76389 c 0,-0.19402 0.635,-0.35277 1.411112,-0.35277 0.776111,0 1.411111,0.15875 1.411111,0.35277 0,0.19403 -0.635,0.35278 -1.411111,0.35278 -0.776112,0 -1.411112,-0.15875 -1.411112,-0.35278 z m -2.116666,-1.76388 c 0,-0.20159 1.058333,-0.35278 2.469444,-0.35278 1.411111,0 2.469445,0.15119 2.469445,0.35278 0,0.20158 -1.058334,0.35277 -2.469445,0.35277 -1.411111,0 -2.469444,-0.15119 -2.469444,-0.35277 z m 0,-1.76389 c 0,-0.20159 1.058333,-0.35278 2.469444,-0.35278 1.411111,0 2.469445,0.15119 2.469445,0.35278 0,0.20158 -1.058334,0.35277 -2.469445,0.35277 -1.411111,0 -2.469444,-0.15119 -2.469444,-0.35277 z"
         id="path470" /></g></g></svg>
