<?xml version="1.0" encoding="UTF-8" standalone="no"?>
<!-- Uploaded to: SVG Repo, www.svgrepo.com, Transformed by: SVG Repo Mixer Tools -->

<svg
   height="64"
   width="63.9995"
   version="1.1"
   id="_x32_"
   viewBox="0 0 511.996 512"
   xml:space="preserve"
   fill="#000000"
   sodipodi:docname="up-arrow-svgrepo-com (1).svg"
   xmlns:inkscape="http://www.inkscape.org/namespaces/inkscape"
   xmlns:sodipodi="http://sodipodi.sourceforge.net/DTD/sodipodi-0.dtd"
   xmlns="http://www.w3.org/2000/svg"
   xmlns:svg="http://www.w3.org/2000/svg"><defs
   id="defs16" /><sodipodi:namedview
   id="namedview14"
   pagecolor="#505050"
   bordercolor="#ffffff"
   borderopacity="1"
   inkscape:showpageshadow="0"
   inkscape:pageopacity="0"
   inkscape:pagecheckerboard="1"
   inkscape:deskcolor="#d1d1d1"
   showgrid="false" />





<g
   id="SVGRepo_iconCarrier"
   transform="matrix(1,0,0,-1,-0.002,512)"
   inkscape:export-filename="down-arrow.svg"
   inkscape:export-xdpi="96"
   inkscape:export-ydpi="96"> <style
   type="text/css"
   id="style4"> .st0{fill: #dc3545;} </style> <g
   id="g10"> <path
   class="st0"
   d="m 184.025,259.35 h 26.422 c 6.953,0 12.609,5.652 12.609,12.605 v 75.034 c 0,8.708 7.082,15.792 15.788,15.792 h 34.314 c 8.706,0 15.786,-7.084 15.786,-15.792 v -75.034 c 0,-6.952 5.658,-12.605 12.611,-12.605 h 26.422 c 4.412,0 7.584,-1.494 8.93,-4.208 1.347,-2.71 0.619,-6.141 -2.046,-9.658 l -69.012,-90.966 c -2.591,-3.412 -6.089,-5.295 -9.85,-5.295 -3.76,0 -7.258,1.883 -9.849,5.295 l -69.012,90.966 c -2.667,3.517 -3.393,6.949 -2.046,9.658 1.347,2.714 4.521,4.208 8.933,4.208 z"
   id="path6" /> <path
   class="st0"
   d="M 256,0 C 114.842,0 0.002,114.84 0.002,256 0.002,397.16 114.842,512 256,512 397.158,512 511.998,397.16 511.998,256 511.998,114.84 397.158,0 256,0 Z m 0,66.785 c 104.334,0 189.216,84.879 189.216,189.215 0,104.336 -84.882,189.215 -189.216,189.215 C 151.666,445.215 66.783,360.336 66.783,256 66.783,151.664 151.667,66.785 256,66.785 Z"
   id="path8" /> </g> </g>

</svg>
