<?xml version="1.0" encoding="UTF-8" standalone="no"?>
<!-- Created with Inkscape (http://www.inkscape.org/) -->

<svg
   width="105.85453mm"
   height="122.75969mm"
   viewBox="0 0 105.85453 122.75969"
   version="1.1"
   id="svg5"
   xml:space="preserve"
   xmlns="http://www.w3.org/2000/svg"
   xmlns:svg="http://www.w3.org/2000/svg"><defs
     id="defs2" /><g
     id="layer1"
     transform="translate(-69.993601,-38.064158)"><g
       id="g210"
       transform="translate(182.04442,-0.37690355)"><path
         style="fill:#f8d973;stroke-width:0.264583"
         d="m -69.765608,124.68413 c -0.0055,-1.76571 -0.12514,-2.86545 -0.342939,-3.15181 -0.183989,-0.24191 -1.373252,-0.93333 -2.642804,-1.53649 -9.048486,-4.29893 -15.655411,-12.79846 -17.497659,-22.510004 -0.225648,-1.189516 -0.410269,-2.566326 -0.410269,-3.059573 V 93.52944 h 4.064188 4.064189 l 0.157805,1.33242 c 0.609912,5.14976 6.400025,8.46255 11.4733,6.56439 2.804761,-1.0494 5.375937,-4.451358 5.375937,-7.112985 V 93.52944 h 2.116666 2.116667 v 3.682526 c 0,2.025391 0.07396,3.875264 0.164354,4.110834 0.0904,0.23556 0.518763,0.61157 0.951926,0.83557 0.660855,0.34174 0.998733,0.35661 2.099974,0.0924 1.713339,-0.41102 3.346048,0.15894 4.395068,1.53428 1.033545,1.35505 1.033545,3.53369 0,4.88874 -1.04902,1.37534 -2.681729,1.9453 -4.395068,1.53428 -1.101241,-0.26419 -1.439119,-0.24932 -2.099974,0.0924 -0.433163,0.22399 -0.861531,0.6 -0.951926,0.83557 -0.0904,0.23556 -0.164354,3.99043 -0.164354,8.34416 v 7.91586 h -4.233333 -4.233334 z"
         id="path224" /><path
         style="fill:#81baf1;stroke-width:0.264583"
         d="m -40.123859,68.555625 c 0,-5.186568 0.07931,-5.092614 -4.152707,-4.919329 -1.778312,0.07281 -3.121999,-0.713062 -3.810225,-2.228474 -0.619739,-1.364614 -0.619739,-2.125486 0,-3.490099 0.688226,-1.515412 2.031913,-2.30129 3.810225,-2.228475 3.059528,0.125276 3.162229,0.111008 3.664368,-0.509111 0.441489,-0.545214 0.488339,-1.158697 0.488339,-6.394593 v -5.791522 h 0.764522 c 1.27119,0 4.930905,0.772064 7.10741,1.499399 9.226648,3.083325 16.815206,10.645955 19.930595,19.862502 0.797499,2.359316 1.566225,5.913953 1.566225,7.242328 v 0.764522 h -4.101042 -4.101042 l -2.09e-4,-0.992188 c -1.16e-4,-0.549111 -0.340558,-1.701107 -0.762362,-2.579688 -1.483265,-3.089505 -4.263877,-4.886561 -7.571804,-4.893515 -2.706953,-0.0057 -4.179568,0.601398 -6.087926,2.509757 -1.664372,1.66437 -2.514938,3.389561 -2.512343,5.095738 l 0.0013,0.859896 h -2.116667 -2.116667 z"
         id="path222" /><path
         style="fill:#b1dc88;stroke-width:0.264583"
         d="m -57.057193,121.04611 v -6.35 h 0.783825 c 1.529678,0 3.767175,-1.07691 5.186556,-2.49629 3.352094,-3.35209 3.352094,-8.58867 0,-11.94076 -1.419381,-1.419382 -3.656878,-2.496287 -5.186556,-2.496287 h -0.783825 V 95.646107 93.52944 h 3.790339 c 3.710805,0 3.803505,-0.01402 4.417875,-0.667986 0.478872,-0.509735 0.60643,-0.901493 0.538435,-1.653646 -0.233894,-2.587265 -0.107916,-3.46025 0.641049,-4.44219 0.934775,-1.225558 2.273501,-1.799286 3.797567,-1.6275 1.479055,0.166709 2.397522,0.839351 3.169777,2.321394 0.497219,0.954225 0.577729,1.39896 0.428266,2.365761 -0.286909,1.855878 -0.21348,2.374138 0.434027,3.063378 0.601282,0.640035 0.60878,0.640789 6.376702,0.640789 h 5.774715 l -0.0057,1.124479 c -0.008,1.562497 -0.85035,5.190212 -1.8331,7.894131 -2.705605,7.44417 -8.897525,14.19043 -16.033531,17.46897 -2.982225,1.37013 -3.029739,1.44301 -3.029739,4.64708 v 2.73201 h -4.233334 -4.233333 z M -6.5008845,70.885516 c 0.0127,-0.308226 0.07539,-0.370919 0.1598507,-0.159853 0.07643,0.190995 0.067032,0.419198 -0.020876,0.507119 -0.087918,0.08792 -0.1504527,-0.06835 -0.1389645,-0.347266 z M -80.671257,56.84171 c 0.181901,-0.0734 0.479557,-0.0734 0.661458,0 0.181901,0.0734 0.03307,0.133452 -0.330729,0.133452 -0.363802,0 -0.51263,-0.06005 -0.330729,-0.133452 z"
         id="path220" /><path
         style="fill:#6fa2d2;stroke-width:0.264583"
         d="m -40.951359,63.962252 c -0.329107,-0.419644 -0.319749,-0.429003 0.0999,-0.09989 0.254661,0.199719 0.463021,0.408078 0.463021,0.463021 0,0.217761 -0.217273,0.0776 -0.562917,-0.363126 z m -0.230833,-8.368125 c 0,-0.05494 0.208359,-0.263301 0.463021,-0.46302 0.419645,-0.329108 0.429003,-0.31975 0.0999,0.09989 -0.345644,0.440729 -0.562917,0.580887 -0.562917,0.363126 z m 21.15763,-3.538126 -1.446171,-1.521354 1.521355,1.44617 c 0.836744,0.795394 1.521354,1.480003 1.521354,1.521354 0,0.196388 -0.253,-0.03278 -1.596538,-1.44617 z"
         id="path218" /><path
         style="fill:#ef6472;stroke-width:0.264583"
         d="m -75.723437,97.40526 c -1.855338,-0.841819 -2.808452,-2.915872 -2.285942,-4.974399 0.322148,-1.269167 0.07995,-2.104769 -0.785821,-2.711181 -0.509167,-0.356634 -1.507776,-0.423574 -6.318875,-0.423574 h -5.714137 l 0.224128,-1.918229 c 0.636165,-5.444696 3.144164,-11.316669 6.79096,-15.899659 4.917163,-6.179485 12.773973,-10.561542 20.604368,-11.491887 l 1.918229,-0.227908 v 4.149545 4.149544 l -1.214601,0.166481 c -2.70917,0.371332 -5.387965,2.369498 -6.543033,4.880576 -0.808207,1.757016 -0.808207,5.226058 0,6.983074 1.155068,2.511079 3.833863,4.509244 6.543033,4.880576 l 1.214601,0.166481 v 2.080702 2.080704 h -3.689414 c -3.500816,0 -3.726709,0.03208 -4.41902,0.627584 -0.606354,0.521563 -0.714365,0.800923 -0.639361,1.653646 0.290119,3.298325 0.0048,4.255082 -1.633741,5.478431 -0.875678,0.653788 -2.980529,0.835364 -4.051374,0.349493 z"
         id="path216" /><path
         style="fill:#445a6f;stroke-width:0.264583"
         d="m -64.77972,161.08204 c 0.190995,-0.0764 0.419198,-0.067 0.507119,0.0209 0.08792,0.0879 -0.06835,0.15045 -0.347265,0.13897 -0.308227,-0.0127 -0.37092,-0.0754 -0.159854,-0.15986 z m 10.847918,0 c 0.190994,-0.0764 0.419198,-0.067 0.507119,0.0209 0.08792,0.0879 -0.06835,0.15045 -0.347266,0.13897 -0.308226,-0.0127 -0.370919,-0.0754 -0.159853,-0.15986 z m -16.388309,-2.39895 c -0.329107,-0.41965 -0.319749,-0.42901 0.0999,-0.0999 0.44073,0.34565 0.580888,0.56292 0.363125,0.56292 -0.05494,0 -0.2633,-0.20836 -0.463021,-0.46302 z m -1.322917,-1.32292 c -0.329107,-0.41964 -0.319749,-0.429 0.0999,-0.0999 0.44073,0.34565 0.580888,0.56292 0.363125,0.56292 -0.05494,0 -0.2633,-0.20836 -0.463021,-0.46302 z m 3.580488,-2.24896 -0.504029,-0.59531 0.595313,0.50403 c 0.559445,0.47366 0.715761,0.68659 0.504028,0.68659 -0.05021,0 -0.318098,-0.26789 -0.595312,-0.59531 z m 17.487639,0.0661 c 0.26339,-0.29104 0.538422,-0.52917 0.611182,-0.52917 0.07276,0 -0.08321,0.23813 -0.346599,0.52917 -0.26339,0.29104 -0.538422,0.52916 -0.611182,0.52916 -0.07276,0 0.08321,-0.23812 0.346599,-0.52916 z m -14.453543,-3.10886 c -0.329107,-0.41964 -0.319749,-0.429 0.0999,-0.0999 0.254662,0.19972 0.463021,0.40808 0.463021,0.46302 0,0.21776 -0.217273,0.0776 -0.562917,-0.36313 z m 2.679584,0.36313 c 0,-0.0549 0.208359,-0.2633 0.463021,-0.46302 0.419645,-0.32911 0.429003,-0.31975 0.0999,0.0999 -0.345644,0.44073 -0.562917,0.58089 -0.562917,0.36313 z m 5.787083,-0.36313 c -0.329107,-0.41964 -0.319749,-0.429 0.0999,-0.0999 0.254662,0.19972 0.463021,0.40808 0.463021,0.46302 0,0.21776 -0.217273,0.0776 -0.562917,-0.36313 z m 2.679584,0.36313 c 0,-0.0549 0.208359,-0.2633 0.463021,-0.46302 0.419645,-0.32911 0.429003,-0.31975 0.0999,0.0999 -0.345644,0.44073 -0.562917,0.58089 -0.562917,0.36313 z m 9.281306,-0.58361 c 0.0127,-0.30823 0.07539,-0.37092 0.159851,-0.15985 0.07643,0.19099 0.06703,0.4192 -0.02088,0.50711 -0.08792,0.0879 -0.150453,-0.0684 -0.138964,-0.34726 z m -32.973541,-12.40135 c -0.611447,-0.61144 -0.649433,-0.82106 -0.649433,-3.5839 0,-2.76283 0.03799,-2.97245 0.649433,-3.5839 l 0.64943,-0.64943 h 17.751138 17.751138 l 0.64943,0.64943 c 0.611447,0.61145 0.649433,0.82107 0.649433,3.5839 0,2.76284 -0.03799,2.97246 -0.649433,3.5839 l -0.64943,0.64944 H -59.17386 -76.924998 Z m 42.213069,-21.12919 c 0,-0.0455 0.386954,-0.43248 0.859896,-0.85989 l 0.859896,-0.77711 -0.777105,0.8599 c -0.724371,0.80154 -0.942687,0.98151 -0.942687,0.7771 z m -49.357243,-1.57085 -1.045885,-1.12448 1.12448,1.04588 c 1.045755,0.97266 1.246063,1.20308 1.045884,1.20308 -0.04323,0 -0.549243,-0.50602 -1.124479,-1.12448 z m 51.738494,-0.8599 c 0.341775,-0.3638 0.680939,-0.66146 0.7537,-0.66146 0.07276,0 -0.147341,0.29766 -0.489117,0.66146 -0.341776,0.3638 -0.68094,0.66146 -0.7537,0.66146 -0.07276,0 0.147341,-0.29766 0.489117,-0.66146 z m -46.60042,-0.0661 c -0.329107,-0.41965 -0.319749,-0.42901 0.0999,-0.0999 0.254661,0.19972 0.463021,0.40808 0.463021,0.46302 0,0.21776 -0.217273,0.0776 -0.562917,-0.36312 z m 40.250419,0.36312 c 0,-0.0549 0.20836,-0.2633 0.463021,-0.46302 0.419645,-0.32911 0.429003,-0.31975 0.0999,0.0999 -0.345644,0.44073 -0.562917,0.58088 -0.562917,0.36312 z m -16.453777,-1.66834 c 0.190995,-0.0764 0.419198,-0.067 0.507119,0.0209 0.08792,0.0879 -0.06835,0.15046 -0.347266,0.13897 -0.308226,-0.0127 -0.370919,-0.0754 -0.159853,-0.15985 z m 4.547527,-2.3328 c 0.493654,-0.50933 0.957085,-0.92605 1.029845,-0.92605 0.07276,0 -0.271608,0.41672 -0.765262,0.92605 -0.493654,0.50932 -0.957085,0.92604 -1.029846,0.92604 -0.07276,0 0.271608,-0.41672 0.765263,-0.92604 z m 16.139584,-0.23219 c 0,-0.0549 0.208359,-0.2633 0.463021,-0.46302 0.419645,-0.32911 0.429003,-0.31975 0.0999,0.0999 -0.345644,0.44073 -0.562917,0.58089 -0.562917,0.36313 z m -19.314585,-2.38125 c 0,-0.0549 0.20836,-0.2633 0.463021,-0.46302 0.419645,-0.32911 0.429004,-0.31975 0.0999,0.0999 -0.345643,0.44073 -0.562917,0.58089 -0.562917,0.36313 z m 5.57714,-1.90653 c 0.0127,-0.30823 0.07539,-0.37092 0.15985,-0.15985 0.07643,0.19099 0.06703,0.4192 -0.02087,0.50712 -0.08792,0.0879 -0.150453,-0.0684 -0.138965,-0.34727 z m 0,-2.91042 c 0.0127,-0.30822 0.07539,-0.37092 0.15985,-0.15985 0.07643,0.191 0.06703,0.4192 -0.02087,0.50712 -0.08792,0.0879 -0.150453,-0.0684 -0.138965,-0.34727 z m -5.346307,-1.63159 c -0.329107,-0.41965 -0.319749,-0.42901 0.0999,-0.0999 0.254662,0.19972 0.463021,0.40808 0.463021,0.46302 0,0.21776 -0.217273,0.0776 -0.562917,-0.36312 z m 2.929925,-2.91042 -0.911799,-0.992188 0.992187,0.911798 c 0.923507,0.84868 1.113841,1.07258 0.9118,1.07258 -0.04422,0 -0.490699,-0.44649 -0.992188,-0.99219 z m -28.845369,-0.793751 -0.641432,-0.727604 0.727604,0.641432 c 0.680056,0.599517 0.84894,0.813773 0.641432,0.813773 -0.04739,0 -0.374814,-0.327419 -0.727604,-0.727601 z m 11.926277,0.06615 c 0.341776,-0.363802 0.68094,-0.661458 0.7537,-0.661458 0.07276,0 -0.147341,0.297656 -0.489117,0.661458 -0.341775,0.363802 -0.680939,0.661451 -0.7537,0.661451 -0.07276,0 0.147342,-0.297649 0.489117,-0.661451 z m 12.385808,-1.635948 c 0.190995,-0.07643 0.419198,-0.06703 0.507119,0.02088 0.08792,0.08792 -0.06835,0.150452 -0.347266,0.138964 -0.308226,-0.0127 -0.370919,-0.07539 -0.159853,-0.15985 z m 32.085084,-1.296516 c 0.0127,-0.308227 0.07539,-0.37092 0.15985,-0.159854 0.07643,0.190995 0.06703,0.419198 -0.02088,0.507119 -0.08792,0.08792 -0.150453,-0.06835 -0.138965,-0.347265 z M -90.882086,94.32319 c 0,-0.363802 0.06005,-0.51263 0.133453,-0.330729 0.0734,0.181901 0.0734,0.479557 0,0.661458 -0.0734,0.181901 -0.133453,0.03307 -0.133453,-0.330729 z m 63.245225,-0.132292 c 0.0054,-0.436562 0.06469,-0.583126 0.131773,-0.325694 0.06708,0.257432 0.06267,0.614619 -0.0098,0.79375 -0.07248,0.179131 -0.127362,-0.03149 -0.12197,-0.468056 z m 4.233334,-0.264583 c 0.0054,-0.436563 0.06469,-0.583126 0.131773,-0.325694 0.06708,0.257431 0.06267,0.614619 -0.0098,0.79375 -0.07248,0.179131 -0.127363,-0.03149 -0.12197,-0.468056 z m -71.692284,-0.661459 c 0,-0.509322 0.05445,-0.717682 0.121,-0.46302 0.06655,0.254661 0.06655,0.67138 0,0.926041 -0.06655,0.254662 -0.121,0.0463 -0.121,-0.463021 z m -16.499299,-0.46302 c -0.32911,-0.419645 -0.31975,-0.429004 0.0999,-0.0999 0.25466,0.19972 0.46302,0.40808 0.46302,0.46302 0,0.217763 -0.21727,0.07761 -0.56291,-0.363124 z m 11.14625,0.363124 c 0,-0.05494 0.20836,-0.2633 0.463018,-0.46302 0.419644,-0.329108 0.429003,-0.319749 0.0999,0.0999 -0.345638,0.440729 -0.562908,0.580887 -0.562908,0.363124 z m 81.987086,-0.363124 c -0.329108,-0.419645 -0.319749,-0.429004 0.0999,-0.0999 0.254661,0.19972 0.463021,0.40808 0.463021,0.46302 0,0.217763 -0.217274,0.07761 -0.562917,-0.363124 z m 11.1462506,0.363124 c 0,-0.05494 0.2083594,-0.2633 0.4630209,-0.46302 0.419645,-0.329108 0.4290033,-0.319749 0.099896,0.0999 -0.3456438,0.440729 -0.562917,0.580887 -0.562917,0.363124 z M -111.82595,90.254544 c 0,-0.05494 0.20836,-0.2633 0.46302,-0.463021 0.41965,-0.329107 0.42901,-0.319749 0.0999,0.0999 -0.34564,0.44073 -0.56292,0.580887 -0.56292,0.363125 z m 11.60792,-0.363125 c -0.32911,-0.419645 -0.31975,-0.429003 0.0999,-0.0999 0.254658,0.199721 0.463017,0.40808 0.463017,0.463021 0,0.217762 -0.217272,0.07761 -0.562917,-0.363125 z m 5.127558,-0.463021 c 0.0029,-0.582083 0.05712,-0.789054 0.120406,-0.459936 0.06329,0.329118 0.06088,0.805368 -0.0053,1.058334 -0.06622,0.252965 -0.118004,-0.01632 -0.115067,-0.598398 z m 71.072447,0.463021 c -0.329107,-0.419645 -0.319749,-0.429003 0.0999,-0.0999 0.44073,0.345644 0.580888,0.562917 0.363125,0.562917 -0.05494,0 -0.2633,-0.20836 -0.463021,-0.463021 z m 5.325418,0.363125 c 0,-0.05494 0.208359,-0.2633 0.46302,-0.463021 0.419645,-0.329107 0.429004,-0.319749 0.0999,0.0999 -0.345644,0.44073 -0.562917,0.580887 -0.562917,0.363125 z m 11.6079167,-0.363125 c -0.3291073,-0.419645 -0.319749,-0.429003 0.099896,-0.0999 0.4407297,0.345644 0.5808874,0.562917 0.3631248,0.562917 -0.054941,0 -0.2633002,-0.20836 -0.4630209,-0.463021 z M -90.902974,88.6126 c 0.01269,-0.308226 0.07539,-0.370919 0.159853,-0.159853 0.07643,0.190995 0.06703,0.419198 -0.02089,0.507119 -0.08792,0.08792 -0.150453,-0.06835 -0.138965,-0.347266 z m 38.100003,-0.529166 c 0.0127,-0.308227 0.07539,-0.37092 0.159851,-0.159854 0.07643,0.190995 0.06703,0.419198 -0.02088,0.507119 -0.08792,0.08792 -0.150452,-0.06835 -0.138964,-0.347265 z m 16.668751,0 c 0.0127,-0.308227 0.07539,-0.37092 0.159851,-0.159854 0.07643,0.190995 0.06703,0.419198 -0.02088,0.507119 -0.08792,0.08792 -0.150452,-0.06835 -0.138964,-0.347265 z m -11.662556,-1.533057 c 0,-0.05494 0.208359,-0.2633 0.463021,-0.463021 0.419645,-0.329107 0.429003,-0.319749 0.0999,0.0999 -0.345644,0.44073 -0.562917,0.580888 -0.562917,0.363125 z m -2.645833,-3.207396 c 0.341775,-0.363802 0.680939,-0.661458 0.7537,-0.661458 0.07276,0 -0.147342,0.297656 -0.489117,0.661458 -0.341776,0.363802 -0.68094,0.661459 -0.7537,0.661459 -0.07276,0 0.147341,-0.297657 0.489117,-0.661459 z m 11.886224,-0.06615 -0.641432,-0.727604 0.727604,0.641432 c 0.400182,0.35279 0.727604,0.680212 0.727604,0.727604 0,0.207508 -0.214259,0.03862 -0.813776,-0.641432 z m -7.173334,-2.363552 c 0.190995,-0.07643 0.419198,-0.06703 0.507119,0.02088 0.08792,0.08792 -0.06835,0.150453 -0.347265,0.138964 -0.308227,-0.0127 -0.37092,-0.07539 -0.159854,-0.15985 z m 2.381251,0 c 0.190994,-0.07643 0.4192,-0.06703 0.507119,0.02088 0.08792,0.08792 -0.06835,0.150453 -0.347266,0.138964 -0.308226,-0.0127 -0.370919,-0.07539 -0.159853,-0.15985 z m -21.150809,-1.340614 c -0.329108,-0.419645 -0.319749,-0.429004 0.0999,-0.0999 0.254661,0.19972 0.463021,0.40808 0.463021,0.46302 0,0.217763 -0.217274,0.0776 -0.562917,-0.363124 z m 20.637501,-3.704167 c -0.329107,-0.419645 -0.319749,-0.429004 0.0999,-0.0999 0.44073,0.345644 0.580888,0.562917 0.363125,0.562917 -0.05494,0 -0.2633,-0.20836 -0.463021,-0.463021 z m 36.5462526,0.363125 c 0,-0.05494 0.2083594,-0.263301 0.4630209,-0.463021 0.419645,-0.329108 0.4290033,-0.319749 0.099896,0.0999 -0.3456438,0.44073 -0.562917,0.580887 -0.562917,0.363125 z M -64.73011,73.850377 c 0,-0.05494 0.208359,-0.263301 0.463021,-0.463021 0.419645,-0.329108 0.429003,-0.319749 0.0999,0.0999 -0.345644,0.440729 -0.562917,0.580887 -0.562917,0.363125 z m 58.2501117,-1.752188 c 0,-0.363802 0.060055,-0.51263 0.1334532,-0.330729 0.073398,0.181901 0.073398,0.479557 0,0.661458 -0.073398,0.181901 -0.1334532,0.03307 -0.1334532,-0.330729 z m -4.2333337,-0.529166 c 0,-0.363803 0.06006,-0.512631 0.133453,-0.33073 0.0734,0.181901 0.0734,0.479558 0,0.661459 -0.0734,0.181901 -0.133453,0.03307 -0.133453,-0.330729 z m -25.156304,-0.683507 c 0.0127,-0.308226 0.07539,-0.370919 0.15985,-0.159853 0.07643,0.190995 0.06703,0.419198 -0.02087,0.507119 -0.08792,0.08792 -0.150453,-0.06835 -0.138965,-0.347266 z m 5.006194,-1.268473 c 0,-0.05494 0.20836,-0.2633 0.463021,-0.463021 0.419645,-0.329107 0.429004,-0.319749 0.0999,0.0999 -0.345643,0.44073 -0.562917,0.580888 -0.562917,0.363125 z m 6.316251,-0.363125 c -0.329108,-0.419645 -0.319749,-0.429003 0.0999,-0.0999 0.440729,0.345644 0.580887,0.562917 0.363124,0.562917 -0.05494,0 -0.2633,-0.208359 -0.46302,-0.463021 z M -45.729719,67.9487 c 0.190995,-0.07643 0.419198,-0.06703 0.507119,0.02088 0.08792,0.08792 -0.06835,0.150453 -0.347265,0.138965 -0.308227,-0.0127 -0.37092,-0.07539 -0.159854,-0.159851 z m -39.119783,-1.73749 c 1.096423,-1.168186 1.333974,-1.37824 1.333974,-1.179568 0,0.04246 -0.565547,0.60801 -1.256771,1.256771 l -1.256771,1.179568 z m 51.340227,0.198437 c 0.493654,-0.509323 0.957085,-0.926041 1.029846,-0.926041 0.07276,0 -0.271608,0.416718 -0.765263,0.926041 -0.493654,0.509323 -0.957085,0.926042 -1.029845,0.926042 -0.07276,0 0.271608,-0.416719 0.765262,-0.926042 z m 11.892008,-0.06615 -0.911799,-0.992188 0.992188,0.911799 c 0.545703,0.501489 0.992187,0.947973 0.992187,0.992188 0,0.202041 -0.223896,0.01172 -1.072576,-0.911799 z m -28.845369,-0.79375 -0.641432,-0.727605 0.727604,0.641432 c 0.680056,0.599517 0.84894,0.813777 0.641432,0.813777 -0.04739,0 -0.374814,-0.327422 -0.727604,-0.727604 z m 21.401669,-1.569804 c 0.190994,-0.07643 0.4192,-0.06703 0.507118,0.02089 0.08792,0.08792 -0.06835,0.150453 -0.347265,0.138965 -0.308227,-0.0127 -0.37092,-0.07539 -0.159853,-0.159853 z M -47.565943,62.63933 c -0.329107,-0.419644 -0.319749,-0.429002 0.0999,-0.0999 0.44073,0.345644 0.580888,0.562916 0.363125,0.562916 -0.05494,0 -0.2633,-0.20836 -0.463021,-0.463021 z m -5.237028,-1.807986 c 0.0127,-0.308225 0.07539,-0.37092 0.159851,-0.159853 0.07643,0.190996 0.06703,0.419199 -0.02088,0.507118 -0.08792,0.08792 -0.150452,-0.06835 -0.138964,-0.347265 z m -9.330915,-1.084734 c 0.190995,-0.07643 0.419198,-0.06703 0.507119,0.02089 0.08792,0.08792 -0.06835,0.150453 -0.347266,0.138964 -0.308226,-0.01269 -0.370919,-0.07539 -0.159853,-0.159852 z m 9.330915,-1.296516 c 0.0127,-0.308225 0.07539,-0.37092 0.159851,-0.159853 0.07643,0.190996 0.06703,0.419199 -0.02088,0.507118 -0.08792,0.08792 -0.150452,-0.06835 -0.138964,-0.347265 z m 5.006195,-1.533055 c 0,-0.05494 0.208359,-0.263302 0.463021,-0.463021 0.419645,-0.329107 0.429003,-0.319749 0.0999,0.0999 -0.345644,0.440729 -0.562917,0.580887 -0.562917,0.363126 z m -10.087918,-0.892293 c -0.329107,-0.419644 -0.319748,-0.429002 0.0999,-0.09989 0.440729,0.345643 0.580887,0.562915 0.363124,0.562915 -0.05494,0 -0.2633,-0.208359 -0.463021,-0.463021 z m -4.128402,-0.514083 c 0.257432,-0.06708 0.614619,-0.06267 0.79375,0.0098 0.179131,0.07248 -0.03149,0.127362 -0.468056,0.12197 -0.436562,-0.0054 -0.583126,-0.06469 -0.325694,-0.131774 z m 11.570487,-1.801021 c 0.341775,-0.363802 0.680939,-0.661458 0.7537,-0.661458 0.07276,0 -0.147342,0.297656 -0.489117,0.661458 -0.341776,0.363802 -0.68094,0.661458 -0.7537,0.661458 -0.07276,0 0.147341,-0.297656 0.489117,-0.661458 z m 32.245418,0.198438 c -0.329107,-0.419644 -0.319749,-0.429003 0.0999,-0.09989 0.44073,0.345643 0.580888,0.562915 0.363125,0.562915 -0.05494,0 -0.2633,-0.208359 -0.463021,-0.46302 z m -27.532528,-2.628137 c 0.190995,-0.07643 0.419198,-0.06703 0.507119,0.02089 0.08792,0.08792 -0.06835,0.150453 -0.347265,0.138964 -0.308227,-0.01269 -0.37092,-0.07539 -0.159854,-0.159852 z M -60.79511,50.468501 c -0.329108,-0.419644 -0.319749,-0.429002 0.0999,-0.0999 0.440729,0.345644 0.580887,0.562916 0.363125,0.562916 -0.05494,0 -0.263301,-0.208359 -0.463021,-0.463021 z m 2.679583,0.363126 c 0,-0.05494 0.20836,-0.263301 0.463021,-0.463021 0.419645,-0.329107 0.429004,-0.319749 0.0999,0.0999 -0.345643,0.440729 -0.562917,0.580887 -0.562917,0.363126 z m 36.214169,-0.627709 c -0.329107,-0.419644 -0.319749,-0.429002 0.0999,-0.0999 0.44073,0.345644 0.580888,0.562916 0.363125,0.562916 -0.05494,0 -0.2633,-0.20836 -0.463021,-0.463021 z m 4.918597,-1.190625 -1.312971,-1.389063 1.389062,1.312971 c 0.763985,0.722134 1.389063,1.347212 1.389063,1.389062 0,0.19743 -0.245118,-0.02223 -1.465154,-1.31297 z m -22.678077,-6.1945 c 0.181901,-0.0734 0.479557,-0.0734 0.661458,0 0.181901,0.0734 0.03307,0.133452 -0.330729,0.133452 -0.363802,0 -0.51263,-0.06005 -0.330729,-0.133452 z m -21.365105,-3.364249 c 0,-0.05494 0.208359,-0.263302 0.46302,-0.463021 0.419645,-0.329108 0.429004,-0.319749 0.0999,0.09989 -0.345644,0.440729 -0.562917,0.580887 -0.562917,0.363126 z m 3.141249,-0.363126 c -0.329107,-0.419644 -0.319748,-0.429003 0.0999,-0.09989 0.440729,0.345643 0.580887,0.562915 0.363124,0.562915 -0.05494,0 -0.2633,-0.208359 -0.463021,-0.46302 z m 13.792085,0.363126 c 0,-0.05494 0.208359,-0.263302 0.463021,-0.463021 0.419645,-0.329108 0.429003,-0.319749 0.0999,0.09989 -0.345644,0.440729 -0.562917,0.580887 -0.562917,0.363126 z m 4.039931,-0.877209 c 0.257432,-0.06708 0.614619,-0.06267 0.79375,0.0098 0.179131,0.07248 -0.03149,0.127362 -0.468056,0.12197 -0.436562,-0.0054 -0.583126,-0.06469 -0.325694,-0.131773 z"
         id="path214" /><path
         style="fill:#000000;stroke-width:0.264583"
         d="m -65.744608,160.86984 c -2.008277,-0.45137 -3.524102,-1.2975 -5.039791,-2.81319 -2.459104,-2.45911 -3.196183,-4.81186 -3.202218,-10.22148 l -0.0039,-3.50573 h -1.274894 c -3.287586,0 -5.965119,-1.78629 -6.777377,-4.52145 -0.546746,-1.8411 -0.546746,-6.04933 0,-7.89043 0.812258,-2.73516 3.489791,-4.52145 6.777377,-4.52145 h 1.274894 v -1.66468 -1.66467 l -1.521354,-0.74154 c -6.074408,-2.9608 -12.062696,-8.88885 -15.372433,-15.21779 -2.756132,-5.27032 -4.07239,-10.66629 -4.07239,-16.694657 0,-10.022435 3.883821,-19.078409 11.145992,-25.989307 6.182963,-5.883892 13.831462,-9.192031 22.840816,-9.879139 l 2.305003,-0.175794 0.815858,0.815859 0.815859,0.815858 -0.07815,7.308109 -0.07815,7.308109 -0.633928,0.512976 c -0.548844,0.444127 -0.889368,0.489832 -2.537077,0.340522 -1.532938,-0.138912 -2.096172,-0.08087 -2.895412,0.2984 -3.09679,1.469522 -3.09679,6.185958 0,7.65548 0.79924,0.379265 1.362474,0.437312 2.895412,0.2984 1.647381,-0.14928 1.988344,-0.103552 2.537077,0.34026 0.60829,0.491979 0.637392,0.668843 0.719592,4.373157 l 0.08567,3.860443 h 2.085158 2.085157 l 0.1612,-0.992187 c 0.469403,-2.889208 2.255491,-5.335874 4.806265,-6.583852 1.919963,-0.939348 4.840857,-1.014077 6.730567,-0.172194 2.563982,1.142273 4.432771,3.474652 4.989214,6.226879 l 0.307586,1.521354 h 5.557843 5.557846 l 0.800917,0.800918 0.800918,0.80092 -0.183938,2.440226 c -0.764628,10.14399 -4.805713,18.4485 -12.164929,24.99919 -2.183837,1.94391 -5.018842,3.87442 -7.269187,4.94999 l -1.603655,0.76647 v 1.67114 1.67115 h 1.274894 c 3.287586,0 5.965119,1.78629 6.777377,4.52145 0.546746,1.8411 0.546746,6.04933 0,7.89043 -0.809027,2.72429 -3.490296,4.52145 -6.745764,4.52145 h -1.243285 l -0.131186,4.16719 c -0.08702,2.7642 -0.27436,4.61831 -0.556437,5.50711 -0.916025,2.88633 -3.724765,5.68661 -6.671152,6.65107 -1.840267,0.60239 -11.699077,0.75283 -14.091863,0.21503 z m 14.126079,-4.77344 c 0.80006,-0.495 1.599962,-1.29476 2.094966,-2.09458 0.790509,-1.27731 0.801825,-1.3474 0.885097,-5.48311 l 0.08435,-4.18927 h -2.134873 -2.134873 v 3.45994 3.45993 l -0.773398,0.7734 c -0.425368,0.42537 -1.029838,0.7734 -1.343268,0.7734 -0.313431,0 -0.917901,-0.34803 -1.343269,-0.7734 l -0.773398,-0.7734 v -3.45993 -3.45994 h -2.116667 -2.116667 v 3.45994 3.45993 l -0.773398,0.7734 c -0.425368,0.42537 -1.029838,0.7734 -1.343269,0.7734 -0.31343,0 -0.9179,-0.34803 -1.343268,-0.7734 l -0.773398,-0.7734 v -3.45993 -3.45994 h -2.116667 -2.116667 v 3.84496 c 0,4.1065 0.189712,4.97045 1.455997,6.63063 0.355229,0.46574 1.274281,1.16151 2.042335,1.54616 l 1.39646,0.69938 5.974826,-0.0767 5.974824,-0.0767 z m 10.845237,-16.64973 c 0.611447,-0.61144 0.649433,-0.82106 0.649433,-3.5839 0,-2.76283 -0.03799,-2.97245 -0.649433,-3.5839 l -0.64943,-0.64943 H -59.17386 -76.924998 l -0.64943,0.64943 c -0.611447,0.61145 -0.649433,0.82107 -0.649433,3.5839 0,2.76284 0.03799,2.97246 0.649433,3.5839 l 0.64943,0.64944 h 17.751138 17.751138 z m -20.462067,-20.14403 0.07712,-8.09347 0.642046,-0.5196 c 0.558003,-0.45158 0.90433,-0.4989 2.645833,-0.36149 1.779072,0.14037 2.119387,0.09 3.034578,-0.44892 2.696639,-1.588 2.696639,-5.71144 0,-7.29944 -0.915191,-0.53895 -1.255506,-0.58929 -3.034578,-0.44892 -1.741098,0.13738 -2.087959,0.09 -2.645833,-0.36119 -0.618429,-0.50018 -0.645197,-0.66128 -0.72771,-4.379727 l -0.08567,-3.860443 h -2.073892 -2.073889 l -0.181864,1.124479 c -0.452614,2.798585 -2.485189,5.475321 -4.999712,6.584221 -1.878658,0.82849 -4.801757,0.83068 -6.638896,0.005 -2.58539,-1.16201 -4.558113,-3.750301 -5.022102,-6.589201 l -0.183788,-1.124479 h -4.210076 c -3.19224,0 -4.20982,0.07996 -4.209013,0.330729 5.82e-4,0.181901 0.175304,1.404988 0.388264,2.717972 1.646128,10.149049 8.336215,19.004529 17.814022,23.579909 1.790325,0.86427 2.529108,1.36795 2.71198,1.84893 0.138237,0.36359 0.251338,1.72489 0.251338,3.0251 v 2.36403 h 4.222356 4.222356 z m 12.644833,5.72944 c 0,-3.32373 0.136276,-3.57245 2.56349,-4.67856 8.120084,-3.70045 14.947051,-11.54132 17.365828,-19.94491 0.403111,-1.400549 1.23735,-5.784872 1.23735,-6.502882 0,-0.275167 -1.252934,-0.364964 -5.976943,-0.428363 -5.976078,-0.08021 -5.977017,-0.08031 -6.500062,-0.726787 -0.458142,-0.566259 -0.500721,-0.885603 -0.342794,-2.570943 0.165468,-1.765776 0.124066,-2.02038 -0.50237,-3.089312 -1.657157,-2.827722 -5.873612,-2.736887 -7.350654,0.15835 -0.467791,0.916951 -0.522097,1.351063 -0.370877,2.964789 0.154551,1.649301 0.110426,1.973051 -0.345797,2.537116 -0.504765,0.624081 -0.657225,0.649549 -4.383395,0.732234 l -3.860443,0.08567 v 2.073892 2.073889 l 1.124479,0.183787 c 2.8389,0.463989 5.427189,2.43671 6.589197,5.0221 0.828265,1.84284 0.828265,4.77174 0,6.61458 -1.162008,2.58539 -3.750297,4.55811 -6.589197,5.0221 l -1.124479,0.18379 v 6.32674 6.32675 h 4.233333 4.233334 z M -71.549019,97.088348 c 0.383723,-0.283911 0.956938,-0.9724 1.273813,-1.529975 0.507691,-0.893336 0.554392,-1.245817 0.393113,-2.966918 -0.173945,-1.856253 -0.149733,-1.986436 0.488077,-2.624246 0.654706,-0.654706 0.761894,-0.671103 4.387297,-0.671103 h 3.716192 v -2.093409 -2.09341 l -1.124479,-0.17916 c -6.851325,-1.0916 -9.6499,-9.406203 -4.798801,-14.257301 1.157118,-1.157118 3.120189,-2.143292 4.798801,-2.410741 l 1.124479,-0.17916 v -4.226287 -4.226289 l -1.256771,0.166195 c -3.97582,0.525761 -7.405807,1.54633 -10.740478,3.195755 -6.823012,3.374859 -12.50596,9.474881 -15.279078,16.400413 -0.94994,2.372363 -1.947081,6.185345 -2.192005,8.38204 l -0.169626,1.521354 h 5.835172 5.835172 l 0.671102,0.671103 c 0.63677,0.63677 0.661826,0.770093 0.489781,2.606066 -0.143248,1.528662 -0.09165,2.108375 0.24574,2.760808 0.487889,0.943473 1.368811,1.843599 2.141199,2.187869 0.891579,0.397399 3.390008,0.137062 4.1613,-0.433604 z m -32.666791,21.433162 c -0.82988,-0.45742 -1.17905,-1.48087 -0.83512,-2.4478 0.32899,-0.92492 8.049919,-5.42707 9.332511,-5.44187 1.605457,-0.0185 2.495229,1.98985 1.421119,3.20772 -0.56571,0.64142 -7.6564,4.73451 -8.5513,4.93622 -0.35363,0.0797 -0.96888,-0.0347 -1.36721,-0.25427 z m 88.433619,0.21704 c -1.005427,-0.37775 -7.856403,-4.44088 -8.268229,-4.90367 -1.07604,-1.20919 -0.183198,-3.22155 1.421119,-3.20304 1.282592,0.0148 9.003526,4.51695 9.332514,5.44187 0.353737,0.99451 -0.01029,1.99986 -0.888598,2.45404 -0.825146,0.4267 -0.970939,0.44595 -1.596806,0.2108 z M -111.31713,92.756042 c -0.97825,-0.97825 -0.97825,-1.708288 0,-2.686537 l 0.77339,-0.773399 h 4.80321 4.80321 l 0.77339,0.773399 c 0.978252,0.978249 0.978252,1.708287 0,2.686537 l -0.77339,0.773398 h -4.80321 -4.80321 z m 93.133337,0 c -0.42537,-0.425368 -0.773398,-1.029838 -0.773398,-1.343269 0,-0.313431 0.348028,-0.9179 0.773398,-1.343268 l 0.773396,-0.773399 h 4.803207 4.803206 l 0.7733957,0.773399 c 0.4253707,0.425368 0.7733983,1.029837 0.7733983,1.343268 0,0.313431 -0.3480276,0.917901 -0.7733983,1.343269 L -7.803984,93.52944 h -4.803206 -4.803207 z m -25.384235,-16.917565 -0.789164,-0.789165 v -3.441179 -3.441176 l -1.521355,-0.307586 c -2.752227,-0.556443 -5.084606,-2.425232 -6.226879,-4.989212 -0.841883,-1.889712 -0.767154,-4.810606 0.172194,-6.730567 1.247978,-2.550776 3.694644,-4.336862 6.583852,-4.806266 l 0.992188,-0.161199 V 45.607514 40.0429 l 0.800917,-0.800919 0.80092,-0.800919 2.440226,0.180924 c 9.425496,0.698827 17.557466,4.448835 23.838841,10.993131 6.081059,6.335598 9.4072187,13.929343 10.1042106,23.068286 l 0.1757918,2.305002 -0.8158586,0.815859 -0.815856,0.815858 -7.3081098,-0.07815 -7.308109,-0.07816 -0.512977,-0.633928 c -0.444127,-0.548844 -0.489831,-0.889368 -0.340522,-2.537077 0.138912,-1.532937 0.08086,-2.096172 -0.298399,-2.895412 -1.469523,-3.096789 -6.185959,-3.096789 -7.655482,0 -0.379264,0.79924 -0.437311,1.362475 -0.298399,2.895412 0.149291,1.647503 0.103573,1.988302 -0.340358,2.537077 -0.504986,0.624253 -0.592005,0.63518 -5.70066,0.715841 l -5.187847,0.08191 z m 7.812853,-4.600184 c 0.452615,-2.798585 2.485189,-5.475324 4.999713,-6.584226 1.872877,-0.825937 4.790331,-0.825937 6.663208,0 2.514524,1.108902 4.547098,3.785641 4.999713,6.584226 l 0.181864,1.12448 h 4.210077 c 3.386865,0 4.210076,-0.07083 4.210076,-0.362218 0,-0.729583 -0.830339,-5.102862 -1.23735,-6.516949 -2.457321,-8.537513 -9.59161,-16.602658 -17.806372,-20.129679 -1.24038,-0.53256 -2.910081,-1.156771 -3.710446,-1.387137 -1.400545,-0.403114 -5.784869,-1.237352 -6.502879,-1.237352 -0.275167,0 -0.364964,1.252935 -0.428363,5.976943 -0.07976,5.942767 -0.08384,5.979875 -0.714145,6.489826 -0.548801,0.444012 -0.889487,0.489725 -2.537076,0.340424 -1.528819,-0.138537 -2.096855,-0.08054 -2.887959,0.294863 -3.077197,1.460226 -3.077197,6.20233 0,7.662556 0.791104,0.375404 1.35914,0.433401 2.887959,0.294863 1.64738,-0.149282 1.988343,-0.103554 2.537076,0.340258 0.60829,0.491981 0.637392,0.668845 0.719593,4.373159 l 0.08567,3.860443 h 2.073892 2.073889 z m -61.568535,0.472361 c -4.53336,-2.435204 -7.50767,-4.349107 -7.73158,-4.975101 -0.50671,-1.416656 0.95529,-3.104561 2.32173,-2.680489 0.96083,0.298192 7.946303,4.385015 8.43626,4.935599 0.951408,1.069137 0.312231,2.908348 -1.124479,3.235651 -0.432566,0.09855 -1.090714,-0.07989 -1.901931,-0.51566 z m 15.727739,-15.421319 c -0.556011,-0.494786 -4.638588,-7.479499 -4.941052,-8.453444 -0.255847,-0.823835 0.498644,-2.150414 1.343671,-2.362503 1.445491,-0.362795 1.906093,0.09709 4.406705,4.399801 2.616195,4.501595 2.894303,5.492017 1.792642,6.384089 -0.767752,0.621686 -1.923376,0.635923 -2.601966,0.03206 z m 21.078842,-5.866627 -0.773398,-0.773398 V 44.846105 40.0429 l 0.773398,-0.773398 c 0.97825,-0.978249 1.708288,-0.978249 2.686538,0 l 0.773398,0.773398 v 4.803205 4.803205 l -0.773398,0.773398 c -0.425369,0.425368 -1.029838,0.773397 -1.343269,0.773397 -0.313431,0 -0.9179,-0.348029 -1.343269,-0.773397 z"
         id="path212" /></g></g></svg>
