<?xml version="1.0" encoding="UTF-8" standalone="no"?>
<!-- Uploaded to: SVG Repo, www.svgrepo.com, Transformed by: SVG Repo Mixer Tools -->

<svg
   fill="#000000"
   width="63.712887"
   height="55.995407"
   viewBox="0 0 55.748776 48.995981"
   version="1.1"
   id="svg2062"
   sodipodi:docname="person-3-fill-svgrepo-com.svg"
   xmlns:inkscape="http://www.inkscape.org/namespaces/inkscape"
   xmlns:sodipodi="http://sodipodi.sourceforge.net/DTD/sodipodi-0.dtd"
   xmlns="http://www.w3.org/2000/svg"
   xmlns:svg="http://www.w3.org/2000/svg">
  <defs
     id="defs2066" />
  <sodipodi:namedview
     id="namedview2064"
     pagecolor="#505050"
     bordercolor="#ffffff"
     borderopacity="1"
     inkscape:showpageshadow="0"
     inkscape:pageopacity="0"
     inkscape:pagecheckerboard="1"
     inkscape:deskcolor="#d1d1d1"
     showgrid="false" />
  <g
     id="SVGRepo_iconCarrier"
     transform="translate(-0.07861326,-2.9329181)">
    <path
       id="path2059"
       d="m 28,14.172607 c -3.178655,0 -5.942139,2.778082 -5.942139,6.417237 0,3.68384 2.748584,6.535156 5.942139,6.535156 3.193555,0 5.942139,-2.850769 5.942139,-6.564209 0,-3.66894 -2.763484,-6.388184 -5.942139,-6.388184 z m -17.09668,2.02002 c -2.7627535,0 -5.1998583,2.421106 -5.1850583,5.584961 0,3.193555 2.4074048,5.689209 5.1850583,5.689209 2.76287,0 5.169678,-2.495007 5.169678,-5.718262 0,-3.193655 -2.421708,-5.555908 -5.169678,-5.555908 z m 34.19336,0 c -2.74787,0 -5.169678,2.362253 -5.169678,5.555908 0,3.223255 2.406908,5.718262 5.169678,5.718262 2.777755,0 5.185058,-2.495654 5.185058,-5.689209 0,-3.163855 -2.422203,-5.584961 -5.185058,-5.584961 z M 10.887939,29.739746 c -2.8063294,0 -5.1639441,0.874507 -6.9658199,2.185791 0.00732,0.072 0.019062,0.14357 0.029053,0.215332 0.011696,-0.0016 0.023938,-0.0017 0.035889,-0.0017 0.1728959,5.75e-4 0.3670646,0.175011 0.4187012,0.522949 0.021436,0.144438 0.026464,0.291686 0.049561,0.435791 0.02524,0.16525 0.068532,0.325847 0.097412,0.490479 0.043749,0.177174 0.077422,0.356999 0.109375,0.536621 0.048233,0.232973 0.080667,0.468312 0.1315918,0.700684 0.047676,0.197421 0.078737,0.398779 0.1247558,0.596435 0.033238,0.162624 0.077166,0.322437 0.1281739,0.480225 0.00866,0.02868 0.016975,0.05677 0.025635,0.08545 0.00192,0.0064 0.00165,0.0108 0.00342,0.01709 0.108369,0.05471 0.2058582,0.183633 0.2529297,0.398193 0.040964,0.186723 0.091539,0.37018 0.1315918,0.557129 0.037438,0.144103 0.086569,0.285626 0.1264648,0.428955 0.036506,0.126954 0.096512,0.24115 0.1606446,0.355469 0.07932,0.139675 0.1534438,0.279807 0.2050781,0.432373 0.032444,0.09682 0.064843,0.193715 0.097412,0.290527 0.02092,-0.0054 0.041965,-0.0082 0.063232,-0.0085 0.1669784,-0.003 0.3357621,0.149439 0.3571777,0.478516 0.00901,0.138417 0.042255,0.271237 0.082031,0.40332 0.053512,0.104156 0.083167,0.226878 0.1538086,0.321289 0.059536,0.06048 0.083139,0.180489 0.1640625,0.217041 0.1450958,0.06791 0.2530467,0.217381 0.3417969,0.345215 0.081335,0.130158 0.1464264,0.268198 0.211914,0.406739 0.03922,0.08543 0.078897,0.175583 0.1384278,0.249511 h 6.3420407 c -1.544885,-2.24297 0.340625,-6.759342 3.53418,-9.225097 -1.648785,-1.099185 -3.772868,-1.915772 -6.550538,-1.915772 z m 34.224122,0 c -2.77767,0 -4.901653,0.816587 -6.550538,1.915772 3.193555,2.465755 5.080674,6.982127 3.535889,9.225097 h 6.357422 c 0.03737,-0.0853 0.123948,-0.168061 0.247803,-0.240967 -0.01269,-0.0871 -0.0052,-0.190463 0.02905,-0.309326 0.04692,-0.162722 0.09846,-0.325456 0.158936,-0.483642 0.06801,-0.175994 0.147622,-0.347654 0.232422,-0.516114 0.06562,-0.12285 0.141481,-0.241005 0.199951,-0.367431 0.066,-0.137302 0.109474,-0.28467 0.162354,-0.427246 0.075,-0.19952 0.16097,-0.393146 0.25122,-0.586182 0.118851,-0.232884 0.229137,-0.462517 0.478516,-0.563965 0.06946,-0.160354 0.182038,-0.243962 0.295654,-0.258056 0.02666,-0.209669 0.06135,-0.416742 0.119629,-0.620362 0.07265,-0.238467 0.167566,-0.469318 0.259766,-0.700683 0.07837,-0.177855 0.129086,-0.363822 0.157226,-0.55542 0.03407,-0.213594 0.07573,-0.425383 0.11792,-0.637451 0.02503,-0.183592 0.06449,-0.362775 0.11792,-0.54004 0.0769,-0.199248 0.123326,-0.407156 0.176026,-0.613525 0.06561,-0.213589 0.118257,-0.43108 0.172607,-0.647705 0.04597,-0.217762 0.09871,-0.433741 0.165771,-0.645996 0.04452,-0.140912 0.109376,-0.24283 0.182862,-0.309326 -1.789466,-1.272322 -4.111929,-2.117432 -6.868408,-2.117432 z m -17.127442,0.04443 c -7.69428,0 -12.490967,5.288509 -12.490967,9.120849 0,1.307185 0.831275,1.975586 3.16333,1.975586 h 18.670655 c 2.332055,0 3.165039,-0.668401 3.165039,-1.975586 0,-3.83234 -4.798877,-9.120849 -12.508057,-9.120849 z M 2.9650879,32.776611 c 0.00153,0.01873 0.00624,0.03152 0.010254,0.04443 -5.508e-4,-0.0057 -9.713e-4,-0.01138 -0.00171,-0.01709 -0.00119,-0.0093 -0.00931,-0.03664 -0.00854,-0.02734 z M 53.72876,33.429443 c 0.02134,0.04277 0.04251,0.08604 0.06494,0.128174 0.0084,-0.01139 0.01572,-0.01836 0.02393,-0.02905 -0.02897,-0.03327 -0.05936,-0.06611 -0.08887,-0.09912 z m -50.7243655,0.69043 c -0.026228,0.06895 -0.053665,0.137723 -0.080322,0.206787 0.039296,0.0081 0.08671,0.01656 0.1333007,0.02564 -0.017806,-0.07746 -0.039346,-0.154228 -0.052979,-0.232422 z m -2.25585934,1.585938 c -0.0578361,0.122177 -0.10233995,0.246116 -0.1538086,0.36914 0.0491339,-0.09325 0.10101484,-0.184442 0.15722657,-0.273437 -9.6724e-4,-0.03191 -0.002592,-0.0638 -0.003418,-0.0957 z m 2.11743164,0.446044 c -0.025947,0.04502 -0.054464,0.08973 -0.08374,0.133301 0.043353,0.0191 0.086324,0.03932 0.1264648,0.06323 -0.014367,-0.06536 -0.028499,-0.131141 -0.042725,-0.196534 z m -2.38916016,0.208497 c -0.0374295,0.0995 -0.0658331,0.199357 -0.0991211,0.299072 0.008544,0.0086 0.0170067,0.01706 0.0256348,0.02564 0.018942,-0.10986 0.0410379,-0.218334 0.0734863,-0.324707 z M 53.111816,36.664551 c 1.72e-4,0.0011 -1.83e-4,0.0023 0,0.0034 0.0023,10e-4 0.0045,0.0024 0.0068,0.0034 -0.0031,-0.0023 -0.0039,-0.0046 -0.0068,-0.0068 z m 2.602784,0.256347 c -0.02698,0.01974 -0.05557,0.0357 -0.08545,0.04956 0.0045,0.01181 0.0081,0.02367 0.01196,0.03589 0.06422,0.109705 0.126395,0.220962 0.18628,0.333252 -0.0316,-0.139541 -0.07253,-0.27904 -0.112793,-0.418702 z m -5.150879,0.138428 c -0.01159,0.01999 -0.0178,0.04261 -0.02222,0.06152 0.0023,-2.3e-5 0.0045,-0.0017 0.0068,-0.0017 0.0053,-0.01972 0.01081,-0.03992 0.01538,-0.05982 z M 3.1411133,37.344727 c -0.037157,0.01479 -0.076056,0.02594 -0.114502,0.0376 0.033549,0.02276 0.067686,0.04478 0.1025391,0.06323 0.039096,0.142814 0.062045,0.288801 0.078613,0.435791 0.01733,-0.0066 0.037322,-0.0132 0.052979,-0.0188 -0.038586,-0.172775 -0.078086,-0.345741 -0.1196289,-0.517822 z m -1.0253906,1.368896 c -7.023e-4,0.0028 -9.571e-4,0.0058 -0.00171,0.0085 -8.15e-4,0.003 0.00106,0.0078 0.00342,0.01196 0.0011,-0.0017 0.00232,-0.0034 0.00342,-0.0051 -0.00107,-0.0053 -0.00395,-0.01013 -0.00513,-0.01538 z m -2.03710942,0.70752 c 0.02522317,0.104086 0.0527421,0.205807 0.09228516,0.299072 -0.0162789,-0.08978 -0.0364577,-0.178981 -0.0683594,-0.264893 -0.0076591,-0.01162 -0.01559625,-0.02317 -0.02392578,-0.03418 z m 1.82861332,0.65625 c -8.046e-4,0.0046 -0.00259,0.009 -0.00342,0.01367 0.00713,0.0099 0.015115,0.01917 0.022217,0.02905 -0.00318,-0.01038 -0.0056,-0.02057 -0.00854,-0.03076 -0.00275,-0.0041 -0.00763,-0.0079 -0.010254,-0.01196 z M 55.39502,40.30127 c -0.0053,0.01189 -0.01,0.0195 -0.01538,0.03247 -0.0021,0.005 0.01494,-0.0031 0.01538,-0.0085 6.38e-4,-0.0079 -3.49e-4,-0.016 0,-0.02392 z M 3.932373,40.567871 c -0.00249,0.0149 -0.0034,0.02956 -0.00513,0.04443 -3.6e-4,0.0031 0.00828,0.0082 0.00854,0.0051 0.00137,-0.01636 -0.00172,-0.03317 -0.00342,-0.04956 z m 51.023438,0.02905 c -0.0079,0.0064 -0.01602,0.01244 -0.02393,0.0188 0.01135,-0.0049 0.02474,-0.0086 0.03589,-0.01367 -0.0032,-0.0021 -0.0071,-0.003 -0.01025,-0.0051 z m -5.036377,0.182861 c -0.07976,0.02489 -0.15539,0.05411 -0.232422,0.10083 h 0.370849 c -0.01602,-0.03051 -0.02604,-0.05972 -0.03418,-0.08716 -0.03481,-0.0044 -0.0711,-0.0036 -0.104247,-0.01367 z m 2.302002,0.09399 c -9.16e-4,0.0019 -0.0025,0.0049 -0.0034,0.0068 h 0.0581 c -0.01478,-0.0021 -0.02968,-0.0028 -0.04443,-0.0051 -0.0034,-5.58e-4 -0.0069,-0.0011 -0.01025,-0.0017 z" />
  </g>
  <path
     id="path1692"
     style="font-variation-settings:'wdth' 75, 'wght' 800;fill:none;stroke:#0507f5;stroke-width:0.812875;stroke-dasharray:none;stroke-opacity:1"
     d="M 27.921387,0.40643743 A 24.091372,24.091372 0 0 0 3.829834,24.49799 24.091372,24.091372 0 0 0 27.921387,48.589543 24.091372,24.091372 0 0 0 52.01294,24.49799 24.091372,24.091372 0 0 0 27.921387,0.40643743 Z" />
</svg>
