<?xml version="1.0" encoding="UTF-8" standalone="no"?>
<!-- Uploaded to: SVG Repo, www.svgrepo.com, Transformed by: SVG Repo Mixer Tools -->

<svg
   fill="#000000"
   width="64"
   height="64"
   viewBox="0 0 56 56"
   version="1.1"
   id="svg2073"
   sodipodi:docname="person-2-fill-svgrepo-com.svg"
   xmlns:inkscape="http://www.inkscape.org/namespaces/inkscape"
   xmlns:sodipodi="http://sodipodi.sourceforge.net/DTD/sodipodi-0.dtd"
   xmlns="http://www.w3.org/2000/svg"
   xmlns:svg="http://www.w3.org/2000/svg">
  <defs
     id="defs2077" />
  <sodipodi:namedview
     id="namedview2075"
     pagecolor="#505050"
     bordercolor="#ffffff"
     borderopacity="1"
     inkscape:showpageshadow="0"
     inkscape:pageopacity="0"
     inkscape:pagecheckerboard="1"
     inkscape:deskcolor="#d1d1d1"
     showgrid="false" />
  <g
     id="SVGRepo_iconCarrier">
    <path
       id="path2070"
       d="m 38.723877,10.63501 c -4.395968,0 -8.218506,3.841921 -8.218506,8.874756 0,5.094435 3.802038,9.038818 8.218506,9.038818 4.416568,0 8.216797,-3.944299 8.216797,-9.079834 0,-5.073935 -3.820829,-8.83374 -8.216797,-8.83374 z m -23.645508,2.794189 c -3.820768,0 -7.1896893,3.349042 -7.1691893,7.72461 0,4.416535 3.3279213,7.868164 7.1691893,7.868164 3.820868,0 7.148682,-3.451512 7.148682,-7.90918 0,-4.416568 -3.348314,-7.683594 -7.148682,-7.683594 z m -0.02051,18.735596 c -4.485652,0 -8.1549511,1.604966 -10.7495114,3.905029 0.015486,0.01707 0.030851,0.03521 0.046143,0.05469 0.1096297,0.139649 0.2020479,0.291163 0.3161621,0.427246 0.093629,0.113537 0.046439,0.05314 0.1418457,0.177734 0.1197894,0.15644 0.1567119,0.299351 0.1452637,0.416992 0.027594,0.04001 0.053258,0.085 0.076904,0.136719 0.070735,0.154724 0.1435973,0.309959 0.210205,0.466553 0.06661,0.169503 0.1175291,0.344982 0.1794434,0.516113 0.072979,0.18068 0.1882872,0.338993 0.2922363,0.502442 0.021492,0.03125 0.04174,0.06274 0.063232,0.09399 0.1442531,0.209762 0.1557675,0.394301 0.097412,0.519531 0.062887,0.04187 0.1238453,0.08689 0.1828613,0.13501 0.1993641,0.164392 0.3589501,0.36993 0.5195312,0.5708 0.1313777,0.164867 0.2393687,0.345527 0.3674317,0.512696 0.097223,0.12321 0.1771695,0.257981 0.2563476,0.393066 0.1389658,0.237085 0.1267603,0.433198 0.042725,0.552002 0.065792,0.08316 0.1367228,0.163137 0.2050781,0.244385 0.1107832,0.13707 0.2341362,0.262228 0.3571777,0.387939 0.1081253,0.100292 0.2122326,0.204832 0.3127442,0.312745 0.062105,0.05964 0.123739,0.118485 0.1845703,0.179443 0.050078,0.05018 0.083829,0.09936 0.1145019,0.148682 0.036826,0.02872 0.074014,0.06367 0.111084,0.104248 0.1448277,0.158526 0.2807413,0.326011 0.4187012,0.490478 0.1141307,0.119806 0.2096763,0.254143 0.3110351,0.384522 0.099319,0.139002 0.2089254,0.269483 0.3127442,0.405029 0.1083919,0.149107 0.2087645,0.303145 0.3059082,0.459717 0.065133,0.102371 0.1624295,0.17334 0.2529295,0.25122 0.0041,0.0033 0.0079,0.007 0.01196,0.01025 0.02557,0.0087 0.05143,0.01756 0.07691,0.02734 0.233239,0.113005 0.444107,0.264697 0.63916,0.434082 0.164389,0.146519 0.308547,0.313771 0.461425,0.47168 0.113098,0.107963 0.251344,0.184156 0.38794,0.258056 0.161106,0.0929 0.324961,0.181565 0.483643,0.278565 0.09138,0.05058 0.171331,0.117989 0.249511,0.186279 0.318172,0.277935 0.263115,0.589149 0.05981,0.687012 0.0023,0.0011 0.0046,0.0023 0.0068,0.0034 0.171662,0.07064 0.323307,0.177801 0.485351,0.266601 0.04116,0.02302 0.04959,0.02758 0.06152,0.03418 h 6.171142 c -2.136059,-3.101733 0.472882,-9.345863 4.88945,-12.755831 -2.280134,-1.520167 -5.217959,-2.650635 -9.059327,-2.650635 z m 23.645508,0.06152 c -10.640637,0 -17.277832,7.314079 -17.277832,12.614014 0,1.807634 1.151608,2.730957 4.376709,2.730957 h 16.061035 c -0.05594,-0.129385 -0.03297,-0.237343 0.177735,-0.258057 0.03601,-0.0035 0.07045,-0.0051 0.104248,-0.0051 0.02464,1.2e-5 0.0484,0.0015 0.07178,0.0034 0.03901,-0.106959 0.06478,-0.220287 0.131592,-0.312744 0.04158,-0.05754 0.0937,-0.108663 0.140137,-0.162353 0.239477,-0.20252 0.520051,-0.335253 0.80664,-0.45459 -0.06299,-0.16165 0.02464,-0.392468 0.331543,-0.543457 0.232405,-0.11434 0.47177,-0.207161 0.714356,-0.292236 -0.103082,-0.130987 -0.09105,-0.365217 0.138427,-0.599854 0.10722,-0.10963 0.219358,-0.214961 0.324707,-0.326416 0.180718,-0.177899 0.355963,-0.360617 0.558838,-0.514404 0.23147,-0.205633 0.456223,-0.418671 0.681885,-0.630615 0.172048,-0.164364 0.338246,-0.334672 0.480225,-0.526368 0.129027,-0.174219 0.270684,-0.250477 0.391357,-0.256347 0.0452,-0.0794 0.09124,-0.158295 0.136719,-0.237549 0.07951,-0.159388 0.155813,-0.318628 0.230713,-0.480225 0.07558,-0.161865 0.134842,-0.3305 0.198242,-0.497314 0.06952,-0.182931 0.168965,-0.294643 0.271728,-0.345215 0.02691,-0.04592 0.05317,-0.09099 0.0957,-0.138428 0.09359,-0.104367 0.193196,-0.203631 0.275146,-0.317871 0.07822,-0.123766 0.148922,-0.252497 0.215332,-0.382812 0.07552,-0.14506 0.146435,-0.292012 0.210205,-0.442627 0.07511,-0.158199 0.136928,-0.322454 0.205078,-0.483643 0.09411,-0.222567 0.233635,-0.339606 0.365723,-0.37085 0.01341,-0.06008 0.03239,-0.123191 0.06665,-0.191406 0.06947,-0.138299 0.125751,-0.282548 0.184571,-0.425537 0.06768,-0.14012 0.137977,-0.278518 0.189697,-0.425537 0.04983,-0.122847 0.106831,-0.242196 0.15039,-0.367432 0.05185,-0.148785 0.119592,-0.291767 0.165772,-0.442627 0.05054,-0.16992 0.09624,-0.340385 0.150391,-0.509277 0.09397,-0.293091 0.277932,-0.425813 0.4375,-0.425537 0.01282,2.2e-5 0.02515,0.0017 0.0376,0.0034 -0.0074,-0.113534 -0.01566,-0.226793 -0.02734,-0.340088 -2.935427,-2.138255 -6.938224,-3.645264 -11.773194,-3.645264 z M 3.7905273,36.553467 c -0.019181,0.01876 -0.035642,0.03927 -0.054687,0.05811 0.035549,0.003 0.071809,0.0085 0.109375,0.01709 -0.011887,-0.0166 -0.023833,-0.03304 -0.035889,-0.04956 -0.00648,-0.0089 -0.012774,-0.01682 -0.018799,-0.02564 z m 48.6411137,1.051025 c -0.0045,0.002 -0.0087,0.0043 -0.0068,0.0068 0.0012,0.0016 0.0022,0.0035 0.0034,0.0051 0.0055,-0.0017 0.01121,-0.0036 0.01709,-0.0051 -0.0011,-0.0023 -0.0022,-0.0046 -0.0034,-0.0068 -0.0015,-0.0028 -0.0058,-0.002 -0.01025,0 z m 1.233886,2.05249 c -0.0077,0.0019 -0.01544,0.0058 -0.02392,0.01025 -6.59e-4,0.02725 -0.0026,0.05479 -0.0034,0.08203 0.02552,-0.02605 0.05162,-0.05081 0.07861,-0.0752 -0.009,-0.0084 -0.01868,-0.01419 -0.02905,-0.01709 -0.007,-0.002 -0.01455,-0.0019 -0.02222,0 z M 4.6535645,39.805664 c 0.027925,0.08602 0.059854,0.170704 0.088867,0.256348 0.00312,-0.02622 0.0072,-0.05157 0.015381,-0.07691 -0.03493,-0.05976 -0.073813,-0.117529 -0.104248,-0.179443 z m 1.1860351,2.495117 c 0.1601968,0.249663 0.3354473,0.48838 0.5212402,0.719483 C 6.2508362,42.858551 6.1374493,42.698885 6.0258789,42.53833 5.9685882,42.455572 5.9043252,42.377786 5.8395996,42.300781 Z m -3.5632324,0.03076 c -0.00399,0.08653 -0.00219,0.173696 -0.011963,0.259766 -3.197e-4,0.0028 -0.00129,0.0057 -0.00171,0.0085 0.020301,0.006 0.039478,0.01313 0.058106,0.02222 0.00758,-0.0024 0.017221,-0.004 0.025635,-0.0068 0.00226,-0.0034 0.00456,-0.0068 0.00684,-0.01025 -0.024787,-0.09137 -0.047849,-0.183556 -0.076904,-0.273437 z m -2.17553712,1.068115 c -0.008563,0.05811 -0.01819809,0.116325 -0.02563477,0.174317 0.01322354,-0.009 0.02613377,-0.01854 0.03930664,-0.02734 -0.002034,-0.02113 -0.004915,-0.04209 -0.006836,-0.06323 -0.002034,-0.02238 -0.004378,-0.05762 -0.006836,-0.08374 z m -0.04272461,0.309326 c -0.01773032,0.156499 -0.03331758,0.312923 -0.04272461,0.468262 0.01835595,-0.0044 0.03867131,-0.0097 0.05639648,-0.01367 -0.0015944,-0.148521 -0.0049034,-0.297268 -0.01196289,-0.446045 -7.451e-5,-0.0026 -0.001388,-0.0058 -0.001709,-0.0085 z m 8.36889653,0.187989 -0.00171,0.0017 c 0.00381,0.0041 0.00814,0.0078 0.011963,0.01196 -0.00381,-0.0042 -0.00685,-0.0091 -0.010254,-0.01367 z m 47.246582,0.0188 c 6.65e-4,-6.13e-4 -0.01503,0.0061 -0.03076,0.01367 4.65e-4,0.0017 0.0012,0.0034 0.0017,0.0051 0.01121,-0.0068 0.02841,-0.0182 0.02905,-0.0188 z m -6.945313,0.334961 c -0.01773,0.0073 -0.03508,0.01536 -0.05298,0.02222 0.0014,0.0108 0.0024,0.0214 0.0034,0.03247 0.01698,-0.0178 0.03265,-0.03683 0.04956,-0.05469 z m -1.845703,0.145264 c -0.06308,0.02422 -0.122696,0.04275 -0.176025,0.05127 -0.01904,0.04235 -0.0373,0.08496 -0.05469,0.128173 0.0859,-0.04185 0.168227,-0.08752 0.21875,-0.09912 0.01067,-0.0043 0.02181,-0.0077 0.03247,-0.01196 -0.0091,-0.02249 -0.01602,-0.04524 -0.02051,-0.06836 z m -0.476806,0.239258 c -0.0074,-2e-4 -0.0258,0.0099 -0.0188,0.01196 0.02074,0.0062 0.04595,0.0033 0.07349,-0.0017 -0.01794,-0.0043 -0.03632,-0.0097 -0.05469,-0.01025 z M 5.9763184,44.818115 c 0.0042,0.01077 0.00785,0.02166 0.011963,0.03247 0.013128,-0.0091 0.026232,-0.01821 0.039307,-0.02734 -0.022019,-0.0021 -0.031475,-0.0033 -0.05127,-0.0051 z m 41.4309086,0.208496 c -0.05164,0.02042 -0.103677,0.04071 -0.155518,0.06152 0.01728,0.02434 0.03071,0.04953 0.03931,0.0769 0.03864,-0.04632 0.07802,-0.0917 0.116211,-0.138428 z m 1.536377,0.0376 c -0.04285,0.04564 -0.08254,0.0939 -0.124756,0.140137 0.02179,0.0023 0.03638,0.0016 0.06152,0.0051 0.01954,0.0028 0.03772,0.0109 0.05469,0.02051 0.0023,-5.9e-5 0.0046,2.9e-5 0.0068,0 -0.0074,-0.05379 -0.0048,-0.109064 0.0017,-0.165771 z m -42.2341313,0.14868 c -0.036545,0.02544 -0.072738,0.0515 -0.109375,0.0769 0.046116,-0.02153 0.091017,-0.04065 0.1418457,-0.04102 0.042308,-3.02e-4 0.096645,0.02153 0.1469726,0.03589 -7.907e-4,-0.002 -9.063e-4,-0.0031 -0.00171,-0.0051 -0.015238,-0.0049 -0.03071,-0.0093 -0.046143,-0.01367 -0.045082,-0.01552 -0.089593,-0.0336 -0.1315918,-0.05298 z m -0.2443848,0.170898 c -0.034624,0.02412 -0.069791,0.04751 -0.1042481,0.07178 -0.046153,0.0325 -0.091392,0.05816 -0.1350097,0.07861 0.00849,0.0017 0.015194,0.0015 0.023926,0.0034 0.021075,0.007 0.040189,0.01694 0.059814,0.02563 0.021195,-0.03933 0.04217,-0.07832 0.070068,-0.107666 0.030472,-0.03205 0.057364,-0.04724 0.085449,-0.07178 z m 45.0505371,0.05298 c 0.0048,0.04654 0.01478,0.08578 0.03247,0.111084 0.012,0.01715 0.01527,-0.04464 0.0051,-0.06323 -0.0094,-0.01815 -0.02361,-0.03282 -0.0376,-0.04785 z m -5.080811,0.295654 c -0.02648,0.0055 -0.112194,0.02256 -0.135009,0.02734 -0.02174,0.04158 -0.0528,0.07789 -0.08032,0.116211 0.06771,-0.05531 0.139186,-0.103999 0.215332,-0.143555 z m 4.84668,0.31958 c 0.01347,0.02884 0.02348,0.0509 0.03589,0.07861 0.01908,-0.01689 0.03925,-0.03242 0.0581,-0.04956 -0.0011,2.36e-4 -0.0023,-2.39e-4 -0.0034,0 -0.02914,-0.0114 -0.06011,-0.02001 -0.09058,-0.02905 z m -0.141846,0.0564 c -0.0026,2.55e-4 -0.0059,0.0013 -0.0085,0.0017 0.01647,0.01554 0.03647,0.02793 0.06494,0.03418 2.75e-4,-0.03143 -0.02395,-0.03909 -0.0564,-0.03589 z m -43.2185054,0.04102 c -0.00347,5.76e-4 -0.00606,0.0018 -0.00684,0.0034 0.00416,0.0039 0.00616,0.0042 0.010254,0.0068 -0.00102,-0.0037 -0.0024,-0.0065 -0.00342,-0.01025 z m -1.861084,0.0769 c -0.039651,0.0216 -0.080508,0.04563 -0.112793,0.06494 0.055759,0.008 0.1115501,0.01698 0.1674805,0.02393 -0.02213,-0.03155 -0.043093,-0.06155 -0.054687,-0.08887 z m 47.9541014,0.48877 c -0.0033,0.0011 -0.0069,8.11e-4 -0.01025,0.0017 0.0037,0.0027 0.0084,0.0039 0.01196,0.0068 -5.82e-4,-0.0028 -0.0012,-0.0057 -0.0017,-0.0085 z m -6.29248,0.05981 c 0.0046,0.0088 0.0066,0.01946 0.01025,0.02905 -5.28e-4,-0.0028 7.04e-4,-0.0057 0,-0.0085 -0.0019,-0.0075 -0.01385,-0.02741 -0.01025,-0.02051 z m -1.172364,0.3042 c -0.0051,0.0057 -0.01028,0.01138 -0.01538,0.01709 0.0065,-0.0041 0.01078,-0.0111 0.01709,-0.01538 z m -45.2197262,0.06665 c 0.081938,0.04093 0.1695079,0.07765 0.2597657,0.112793 0.010889,-0.02711 0.029521,-0.05175 0.054687,-0.0752 -0.1048279,-0.01145 -0.2096398,-0.02496 -0.3144532,-0.0376 z m 46.9458012,0.232422 c -0.02819,0.03739 -0.05626,0.07439 -0.09058,0.105957 -0.03613,0.03324 -0.07475,0.06227 -0.114501,0.08716 h 0.199951 c -0.01608,-0.06573 -0.01262,-0.129848 0.0051,-0.193115 z m 3.385498,0.162353 c -0.03509,0.0093 -0.06942,0.02023 -0.104248,0.03076 h 0.06665 c 0.01669,10e-7 0.02956,-0.0017 0.04614,-0.0017 -0.0025,-0.0093 -0.0058,-0.01941 -0.0085,-0.02905 z" />
  </g>
  <path
     id="path1692"
     style="font-variation-settings:'wdth' 75, 'wght' 800;fill:none;stroke:#0507f5;stroke-width:0.812875;stroke-dasharray:none;stroke-opacity:1"
     d="M 27.430908,3.6948242 A 24.091372,24.091372 0 0 0 3.3393555,27.786377 24.091372,24.091372 0 0 0 12.176514,46.383545 c 0.0057,0.0034 0.01142,0.0068 0.01709,0.01025 0.09138,0.05058 0.171331,0.117989 0.249511,0.186279 0.06194,0.05411 0.10992,0.109247 0.145264,0.164063 A 24.091372,24.091372 0 0 0 27.430908,51.87793 24.091372,24.091372 0 0 0 51.522461,27.786377 24.091372,24.091372 0 0 0 27.430908,3.6948242 Z" />
</svg>
