<?xml version="1.0" encoding="UTF-8" standalone="no"?>
<!-- Created with Inkscape (http://www.inkscape.org/) -->

<svg
   width="14.809925mm"
   height="14.277361mm"
   viewBox="0 0 14.809925 14.277361"
   version="1.1"
   id="svg5"
   inkscape:version="1.2.2 (732a01da63, 2022-12-09, custom)"
   sodipodi:docname="portal.svg"
   xmlns:inkscape="http://www.inkscape.org/namespaces/inkscape"
   xmlns:sodipodi="http://sodipodi.sourceforge.net/DTD/sodipodi-0.dtd"
   xmlns="http://www.w3.org/2000/svg"
   xmlns:svg="http://www.w3.org/2000/svg">
  <sodipodi:namedview
     id="namedview7"
     pagecolor="#505050"
     bordercolor="#ffffff"
     borderopacity="1"
     inkscape:showpageshadow="0"
     inkscape:pageopacity="0"
     inkscape:pagecheckerboard="1"
     inkscape:deskcolor="#505050"
     inkscape:document-units="mm"
     showgrid="false"
     inkscape:zoom="0.75722503"
     inkscape:cx="171.01918"
     inkscape:cy="-275.34748"
     inkscape:window-width="1452"
     inkscape:window-height="752"
     inkscape:window-x="1981"
     inkscape:window-y="139"
     inkscape:window-maximized="0"
     inkscape:current-layer="layer1" />
  <defs
     id="defs2">
    <style
       id="style1575">.cls-1{fill:#f57c00;}.cls-2{fill:#999;}.cls-3{fill:#666;}</style>
  </defs>
  <g
     inkscape:label="Layer 1"
     inkscape:groupmode="layer"
     id="layer1"
     transform="translate(-51.995038,40.332797)">
                        
                        <g
   id="SVGRepo_iconCarrier-cmdb"
   transform="matrix(0.26458333,0,0,0.26458333,50.928969,-41.40127)">
  <defs
     id="defs1577">
    <style
       id="style1622">.cls-1{fill:#f57c00;}.cls-2{fill:#999;}.cls-3{fill:#666;}</style>
  </defs>
  <title
     id="title1579" />
  <g
     data-name="outline color"
     id="outline_color">
    <path
       class="cls-1"
       d="m 45,46 c -7.22,0 -15,-1.56 -15,-5 0,-3.44 7.78,-5 15,-5 7.22,0 15,1.56 15,5 0,3.44 -7.78,5 -15,5 z m 0,-8 c -8.58,0 -13,2.1 -13,3 0,0.9 4.42,3 13,3 8.58,0 13,-2.1 13,-3 0,-0.9 -4.42,-3 -13,-3 z"
       id="path1581" />
    <path
       class="cls-1"
       d="m 45,50 c -7.22,0 -15,-1.56 -15,-5 0,-1.12 0.82,-2.1 2.45,-2.9 a 1.0017984,1.0017984 0 1 1 0.88,1.8 c -1,0.52 -1.33,0.94 -1.33,1.1 0,0.9 4.42,3 13,3 8.58,0 13,-2.1 13,-3 0,-0.16 -0.28,-0.58 -1.33,-1.1 a 1.0017984,1.0017984 0 1 1 0.88,-1.8 c 1.63,0.8 2.45,1.78 2.45,2.9 0,3.44 -7.78,5 -15,5 z"
       id="path1583" />
    <path
       class="cls-1"
       d="m 45,54 c -7.22,0 -15,-1.56 -15,-5 0,-1.12 0.82,-2.1 2.45,-2.9 a 1.0017984,1.0017984 0 1 1 0.88,1.8 c -1,0.52 -1.33,0.94 -1.33,1.1 0,0.9 4.42,3 13,3 8.58,0 13,-2.1 13,-3 0,-0.16 -0.28,-0.58 -1.33,-1.1 a 1.0017984,1.0017984 0 1 1 0.88,-1.8 c 1.63,0.8 2.45,1.78 2.45,2.9 0,3.44 -7.78,5 -15,5 z"
       id="path1585" />
    <path
       class="cls-1"
       d="m 45,58 c -7.22,0 -15,-1.56 -15,-5 0,-1.12 0.82,-2.1 2.45,-2.9 a 1.0017984,1.0017984 0 1 1 0.88,1.8 c -1,0.52 -1.33,0.94 -1.33,1.1 0,0.9 4.42,3 13,3 8.58,0 13,-2.1 13,-3 0,-0.16 -0.28,-0.58 -1.33,-1.1 a 1.0017984,1.0017984 0 1 1 0.88,-1.8 c 1.63,0.8 2.45,1.78 2.45,2.9 0,3.44 -7.78,5 -15,5 z"
       id="path1587" />
    <path
       class="cls-1"
       d="M 50,42 H 40 a 1,1 0 0 1 0,-2 h 10 a 1,1 0 0 1 0,2 z"
       id="path1589" />
    <path
       class="cls-2"
       d="M 21.67,55.1 A 5.06,5.06 0 0 1 19.88,54.77 5,5 0 0 1 17.11,52.14 L 4.46,23.84 A 5,5 0 0 1 7,17.24 l 21,-9.4 a 1,1 0 0 1 0.82,1.82 l -21,9.4 A 3,3 0 0 0 6.24,20.73 3,3 0 0 0 6.28,23 l 12.65,28.3 a 3,3 0 0 0 4,1.52 l 3.79,-1.7 A 1.0176935,1.0176935 0 1 1 27.5,53 l -3.79,1.7 a 5,5 0 0 1 -2.04,0.4 z"
       id="path1591" />
    <path
       class="cls-3"
       d="m 18,34.41 a 3.5,3.5 0 1 1 3.19,-4.93 0.36,0.36 0 0 1 0,0.11 1,1 0 0 1 0.06,0.33 1,1 0 0 1 -1.94,0.34 1.5,1.5 0 1 0 -0.8,2.05 1,1 0 1 1 0.86,1.8 v 0 A 3.39,3.39 0 0 1 18,34.41 Z"
       id="path1593" />
    <path
       class="cls-3"
       d="m 22.84,24.31 a 1,1 0 0 1 -0.91,-0.59 l -2.05,-4.59 a 1,1 0 0 1 0,-0.77 0.94,0.94 0 0 1 0.52,-0.55 l 4.59,-2 a 1,1 0 0 1 0.82,1.82 l -3.68,1.64 1.64,3.67 a 1,1 0 0 1 -0.5,1.32 1,1 0 0 1 -0.43,0.05 z"
       id="path1595" />
    <path
       class="cls-2"
       d="m 20.31,30.89 a 1,1 0 0 1 -0.95,-0.67 1,1 0 0 1 0.64,-1.28 1,1 0 0 1 1.29,0.62 1,1 0 0 1 -0.6,1.27 v 0 a 1.26,1.26 0 0 1 -0.38,0.06 z"
       id="path1597" />
    <path
       class="cls-2"
       d="m 27,45.39 a 0.92,0.92 0 0 1 -0.36,-0.07 l -6.95,-2.66 a 5,5 0 0 1 -2.88,-6.45 l 2.53,-6.63 a 0.37,0.37 0 0 1 0.05,-0.11 L 27.91,7.25 a 5,5 0 0 1 6.46,-2.88 l 22.42,8.57 a 5,5 0 0 1 2.89,6.44 L 54.07,34 a 1,1 0 1 1 -1.86,-0.72 l 5.6,-14.65 A 3,3 0 0 0 56.07,14.76 L 33.65,6.23 A 3,3 0 0 0 29.77,8 l -8.5,22.27 v 0.08 l -2.53,6.61 a 3,3 0 0 0 1.74,3.87 l 7,2.66 A 1,1 0 0 1 27,45.39 Z"
       id="path1599" />
    <path
       class="cls-3"
       d="m 31,28.17 a 3.43,3.43 0 0 1 -1.25,-0.24 3.5,3.5 0 1 1 4.52,-2 v 0 A 3.46,3.46 0 0 1 32.43,27.88 3.57,3.57 0 0 1 31,28.17 Z m 0,-5 a 1.5,1.5 0 0 0 -0.53,2.91 1.51,1.51 0 0 0 1.93,-0.87 v 0 a 1.48,1.48 0 0 0 0,-1.15 A 1.53,1.53 0 0 0 31.57,23.27 1.71,1.71 0 0 0 31,23.16 Z"
       id="path1601" />
    <path
       class="cls-3"
       d="m 49,23.86 a 3.07,3.07 0 0 1 -1.07,-0.2 3,3 0 0 1 -1.67,-1.58 3,3 0 0 1 1.51,-4 3,3 0 0 1 4,1.51 3,3 0 0 1 0.06,2.3 v 0 A 3,3 0 0 1 49,23.86 Z m 0,-4 a 1,1 0 0 0 -0.93,0.65 1,1 0 0 0 0,0.76 1,1 0 0 0 0.55,0.53 1,1 0 0 0 0.77,0 1,1 0 0 0 0.52,-0.56 v 0 a 1,1 0 0 0 0,-0.76 1,1 0 0 0 -0.55,-0.53 1.15,1.15 0 0 0 -0.36,-0.1 z"
       id="path1603" />
    <path
       class="cls-3"
       d="m 45.43,33.2 a 3.07,3.07 0 0 1 -1.07,-0.2 3,3 0 0 1 -1.73,-3.87 3,3 0 0 1 1.58,-1.67 3,3 0 0 1 4,3.81 v 0 a 3,3 0 0 1 -2.78,1.93 z m 0,-4 a 1.15,1.15 0 0 0 -0.41,0.08 1,1 0 0 0 -0.52,0.56 1,1 0 0 0 0.57,1.29 1,1 0 0 0 1.29,-0.58 v 0 a 1,1 0 0 0 0,-0.76 1,1 0 0 0 -0.55,-0.53 1.13,1.13 0 0 0 -0.38,-0.06 z"
       id="path1605" />
    <path
       class="cls-3"
       d="M 43.56,30.48 A 1,1 0 0 1 43.21,30.42 L 37.6,28.28 A 1,1 0 0 1 37.04,27.75 1.08,1.08 0 0 1 37,27 l 3.57,-9.34 a 1,1 0 0 1 1.29,-0.57 l 5.61,2.14 a 1,1 0 0 1 0.58,1.29 1,1 0 0 1 -1.3,0.58 l -4.65,-1.81 -2.85,7.47 4.67,1.79 a 1,1 0 0 1 0.58,1.29 1,1 0 0 1 -0.94,0.64 z"
       id="path1607" />
    <path
       class="cls-3"
       d="m 38,28.34 a 1.13,1.13 0 0 1 -0.36,-0.06 l -4.67,-1.79 a 1.000125,1.000125 0 0 1 0.71,-1.87 l 4.67,1.79 A 1,1 0 0 1 38,28.34 Z"
       id="path1609" />
  </g>
</g>
</g>
</svg>
