<?xml version="1.0" encoding="UTF-8" standalone="no"?>
<!-- Created with Inkscape (http://www.inkscape.org/) -->

<svg
   width="130.50179mm"
   height="135.46667mm"
   viewBox="0 0 130.50179 135.46667"
   version="1.1"
   id="svg5"
   inkscape:version="1.2.2 (732a01da63, 2022-12-09, custom)"
   sodipodi:docname="portal.svg"
   xmlns:inkscape="http://www.inkscape.org/namespaces/inkscape"
   xmlns:sodipodi="http://sodipodi.sourceforge.net/DTD/sodipodi-0.dtd"
   xmlns="http://www.w3.org/2000/svg"
   xmlns:svg="http://www.w3.org/2000/svg">
  <sodipodi:namedview
     id="namedview7"
     pagecolor="#505050"
     bordercolor="#ffffff"
     borderopacity="1"
     inkscape:showpageshadow="0"
     inkscape:pageopacity="0"
     inkscape:pagecheckerboard="1"
     inkscape:deskcolor="#505050"
     inkscape:document-units="mm"
     showgrid="false"
     inkscape:zoom="0.75722503"
     inkscape:cx="171.01918"
     inkscape:cy="-275.34748"
     inkscape:window-width="1452"
     inkscape:window-height="752"
     inkscape:window-x="1981"
     inkscape:window-y="139"
     inkscape:window-maximized="0"
     inkscape:current-layer="layer1" />
  <defs
     id="defs2">
    <style
       id="style1575">.cls-1{fill:#f57c00;}.cls-2{fill:#999;}.cls-3{fill:#666;}</style>
  </defs>
  <g
     inkscape:label="Layer 1"
     inkscape:groupmode="layer"
     id="layer1"
     transform="translate(-25.945572,43.623919)">
                        
                        <g
   id="SVGRepo_iconCarrier-admin"
   transform="matrix(0.26458333,0,0,0.26458333,23.463138,-43.623921)"> <path
   style="fill:#0084ff"
   d="m 486.305,321.422 -36.052,-29.691 c 2.119,-11.59 3.233,-23.53 3.233,-35.731 0,-12.202 -1.114,-24.142 -3.233,-35.733 l 36.052,-29.692 c 6.053,-4.985 7.611,-13.591 3.693,-20.37 L 447.294,96.242 c -3.908,-6.791 -12.149,-9.748 -19.483,-6.983 l -43.773,16.397 C 365.941,90.229 345.028,78.016 322.174,69.89 L 314.495,23.837 C 313.214,16.109 306.53,10.45 298.704,10.45 h -85.408 c -7.825,0 -14.508,5.659 -15.789,13.388 l -7.678,46.05 c -22.856,8.127 -43.771,20.342 -61.867,35.768 L 84.19,89.26 c -7.312,-2.775 -15.566,0.192 -19.484,6.982 l -42.704,73.964 c -3.918,6.779 -2.36,15.385 3.693,20.37 l 36.052,29.691 c -2.118,11.59 -3.232,23.53 -3.232,35.732 0,12.202 1.114,24.142 3.233,35.732 l -36.052,29.692 c -6.053,4.985 -7.611,13.591 -3.693,20.37 l 42.704,73.964 c 3.918,6.79 12.181,9.768 19.484,6.982 l 43.772,-16.397 c 18.097,15.427 39.011,27.641 61.865,35.767 l 7.679,46.052 c 1.278,7.731 7.984,13.388 15.79,13.388 h 85.408 c 7.819,0 14.504,-5.653 15.789,-13.388 l 7.678,-46.051 c 22.856,-8.127 43.771,-20.341 61.867,-35.768 l 43.772,16.397 c 7.324,2.775 15.565,-0.193 19.483,-6.982 l 42.704,-73.964 c 3.918,-6.781 2.36,-15.385 -3.693,-20.371 z"
   id="path2026" />
 <path
   style="fill:#ffaf00"
   d="m 310.022,320.056 v 176.806 c -2.915,2.915 -6.94,4.686 -11.317,4.686 h -85.408 c -3.769,0 -7.27,-1.313 -10.036,-3.544 V 320.056 Z"
   id="path2028" />
 <path
   style="fill:#ffd41d"
   d="m 310.022,151.555 v 94.927 l -53.381,32.027 -53.381,-32.027 v -94.927 c -39.228,19.986 -64.055,59.844 -64.056,104.442 -0.001,66.879 54.481,117.408 117.375,117.439 64.782,0.033 117.497,-52.662 117.497,-117.438 0.002,-44.597 -24.827,-84.457 -64.054,-104.443 z"
   id="path2030" />
 <path
   d="m 235.082,418.321 c -5.771,0 -10.449,-4.678 -10.449,-10.449 v -4.678 c 0,-5.771 4.678,-10.449 10.449,-10.449 5.771,0 10.449,4.678 10.449,10.449 v 4.678 c 0,5.771 -4.679,10.449 -10.449,10.449 z"
   id="path2032" />
 <path
   d="m 492.948,313.357 -31.393,-25.855 c 1.58,-10.4 2.38,-20.968 2.38,-31.502 0,-10.534 -0.8,-21.104 -2.381,-31.504 l 31.394,-25.856 c 10.032,-8.262 12.595,-22.42 6.099,-33.66 L 456.35,91.029 c -4.704,-8.173 -13.479,-13.25 -22.903,-13.25 -3.19,0 -6.326,0.573 -9.302,1.695 L 386.037,93.748 C 369.491,80.462 351.189,69.879 331.487,62.208 L 324.804,22.126 C 322.676,9.306 311.701,0 298.704,0 H 213.296 C 200.3,0 189.324,9.307 187.2,22.119 l -6.684,40.088 C 160.813,69.88 142.509,80.462 125.963,93.749 L 87.898,79.492 c -2.999,-1.138 -6.14,-1.715 -9.338,-1.715 -9.413,0 -18.191,5.074 -22.903,13.241 l -42.702,73.96 c -6.499,11.244 -3.935,25.403 6.097,33.665 l 31.394,25.855 c -1.58,10.4 -2.38,20.969 -2.38,31.503 0,10.534 0.8,21.103 2.38,31.503 L 19.052,313.36 C 9.02,321.622 6.457,335.78 12.953,347.02 l 42.703,73.963 c 4.716,8.171 13.492,13.247 22.904,13.247 3.205,0 6.352,-0.581 9.294,-1.703 l 38.107,-14.275 c 16.547,13.287 34.85,23.87 54.551,31.541 l 6.682,40.075 C 189.316,502.692 200.293,512 213.297,512 h 85.408 c 12.991,0 23.967,-9.304 26.096,-22.118 l 6.683,-40.089 c 19.705,-7.673 38.008,-18.255 54.554,-31.542 l 38.07,14.261 c 2.999,1.137 6.141,1.713 9.336,1.713 9.411,0 18.185,-5.074 22.9,-13.241 l 42.703,-73.962 c 6.496,-11.246 3.932,-25.403 -6.099,-33.665 z M 299.573,491.025 c -0.284,0.044 -0.573,0.077 -0.868,0.077 H 245.53 v -49.427 c 0,-5.771 -4.678,-10.449 -10.449,-10.449 -5.771,0 -10.449,4.678 -10.449,10.449 v 49.427 H 213.71 V 376.504 c 13.606,4.844 28.061,7.375 42.865,7.382 0.003,0 0.066,0 0.07,0 14.852,0 29.325,-2.528 42.928,-7.376 z M 256.642,362.988 h -0.057 c -58.964,-0.029 -106.933,-48.026 -106.932,-106.99 0.001,-34.314 16.175,-65.814 43.158,-85.745 v 76.229 c 0,3.671 1.926,7.072 5.073,8.96 l 53.381,32.027 c 3.309,1.984 7.443,1.984 10.752,0 l 53.381,-32.027 c 3.147,-1.889 5.073,-5.29 5.073,-8.96 v -76.229 c 26.983,19.931 43.158,51.432 43.157,85.747 0,28.528 -11.143,55.382 -31.374,75.614 -20.232,20.232 -47.085,31.374 -75.612,31.374 z m 224.307,-26.418 -42.705,73.965 c -1.326,2.296 -4.122,3.423 -6.769,2.42 l -43.772,-16.397 c -3.557,-1.331 -7.555,-0.63 -10.444,1.834 -16.925,14.428 -36.026,25.589 -56.79,33.212 v -64.78 c 9.585,-5.551 18.513,-12.386 26.56,-20.434 24.179,-24.18 37.495,-56.281 37.495,-90.391 10e-4,-48.242 -26.73,-91.831 -69.761,-113.754 -3.239,-1.651 -7.103,-1.498 -10.203,0.401 -3.099,1.9 -4.989,5.274 -4.989,8.909 v 89.011 l -42.932,25.759 -42.932,-25.759 v -89.011 c 0,-3.635 -1.89,-7.009 -4.989,-8.909 -3.099,-1.899 -6.963,-2.05 -10.203,-0.401 -43.03,21.922 -69.761,65.51 -69.762,113.752 -10e-4,34.743 13.583,67.154 38.247,91.26 7.858,7.68 16.53,14.23 25.809,19.585 v 65.235 c -21.258,-7.63 -40.795,-18.958 -58.071,-33.684 -1.922,-1.638 -4.333,-2.497 -6.78,-2.497 -1.232,0 -2.473,0.217 -3.663,0.664 l -43.83,16.419 c -0.613,0.234 -1.255,0.353 -1.905,0.353 -1.969,0 -3.81,-1.071 -4.805,-2.796 L 31.049,336.568 c -1.365,-2.361 -0.822,-5.337 1.288,-7.076 L 68.389,299.8 c 2.926,-2.411 4.318,-6.216 3.635,-9.944 -2.03,-11.12 -3.061,-22.509 -3.061,-33.856 0,-11.346 1.03,-22.736 3.063,-33.854 0.681,-3.729 -0.709,-7.535 -3.636,-9.944 L 32.339,182.511 c -2.112,-1.74 -2.654,-4.716 -1.287,-7.08 l 42.705,-73.966 c 1.323,-2.294 4.109,-3.429 6.769,-2.419 l 43.772,16.395 c 3.555,1.33 7.554,0.63 10.444,-1.833 17.417,-14.847 37.129,-26.244 58.59,-33.876 3.576,-1.272 6.182,-4.382 6.805,-8.126 l 7.679,-46.059 c 0.446,-2.694 2.752,-4.649 5.482,-4.649 h 85.408 c 2.73,0 5.036,1.955 5.485,4.656 l 7.679,46.053 c 0.624,3.744 3.23,6.856 6.806,8.126 21.459,7.631 41.17,19.027 58.586,33.873 2.89,2.463 6.888,3.165 10.444,1.833 L 431.5,99.034 c 0.631,-0.238 1.287,-0.358 1.95,-0.358 1.97,0 3.806,1.064 4.798,2.789 l 42.706,73.967 c 1.365,2.361 0.822,5.337 -1.288,7.076 L 443.614,212.2 c -2.926,2.411 -4.318,6.215 -3.635,9.944 2.03,11.118 3.061,22.509 3.061,33.855 0,11.346 -1.03,22.735 -3.063,33.853 -0.681,3.728 0.709,7.535 3.636,9.944 l 36.051,29.691 c 2.11,1.74 2.652,4.718 1.285,7.083 z"
   id="path2034" />
 </g>
</g>
</svg>
