<?xml version="1.0" encoding="UTF-8" standalone="no"?>
<!-- Created with Inkscape (http://www.inkscape.org/) -->

<svg
   width="26.484573mm"
   height="20.720844mm"
   viewBox="0 0 26.484573 20.720844"
   version="1.1"
   id="svg5"
   inkscape:version="1.2.2 (732a01da63, 2022-12-09, custom)"
   sodipodi:docname="portal.svg"
   xmlns:inkscape="http://www.inkscape.org/namespaces/inkscape"
   xmlns:sodipodi="http://sodipodi.sourceforge.net/DTD/sodipodi-0.dtd"
   xmlns="http://www.w3.org/2000/svg"
   xmlns:svg="http://www.w3.org/2000/svg">
  <sodipodi:namedview
     id="namedview7"
     pagecolor="#505050"
     bordercolor="#ffffff"
     borderopacity="1"
     inkscape:showpageshadow="0"
     inkscape:pageopacity="0"
     inkscape:pagecheckerboard="1"
     inkscape:deskcolor="#505050"
     inkscape:document-units="mm"
     showgrid="false"
     inkscape:zoom="0.75722503"
     inkscape:cx="171.01918"
     inkscape:cy="-275.34748"
     inkscape:window-width="1452"
     inkscape:window-height="752"
     inkscape:window-x="1981"
     inkscape:window-y="139"
     inkscape:window-maximized="0"
     inkscape:current-layer="layer1" />
  <defs
     id="defs2">
    <style
       id="style1575">.cls-1{fill:#f57c00;}.cls-2{fill:#999;}.cls-3{fill:#666;}</style>
  </defs>
  <g
     inkscape:label="Layer 1"
     inkscape:groupmode="layer"
     id="layer1"
     transform="translate(-102.0636,21.89101)">
                        
                        <g
   id="SVGRepo_iconCarrier-changes"
   transform="matrix(0.26458333,0,0,0.26458333,102.0636,-24.801427)">
  <path
     d="m 33.418,11 c -3.497,0 -6.672,1.454 -8.961,3.781 -2.31,2.281 -3.752,5.44 -3.752,8.914 0,3.374 1.363,6.446 3.557,8.71 L 14.016,53.003 C 13.876,52.987 13.736,52.972 13.596,52.96 13.264,52.914 12.934,52.866 12.59,52.866 5.673,52.867 0,58.54 0,65.457 c 0,6.917 5.673,12.6 12.59,12.6 6.916,0 12.59,-5.683 12.59,-12.6 0,-3.425 -1.397,-6.539 -3.64,-8.816 L 31.734,36.143 c 0.5,0.061 1.005,0.101 1.52,0.101 1.913,0 3.721,-0.449 5.344,-1.228 l 0.029,-0.012 37.28,36.684 a 12.405,12.405 0 0 0 -1.087,5.037 c 0,6.916 5.674,12.59 12.59,12.59 5.79,0 10.694,-3.98 12.143,-9.333 0.062,-0.217 0.12,-0.436 0.172,-0.658 l 0.029,-0.148 c 0.136,-0.629 0.238,-1.27 0.275,-1.928 a 3.497,3.497 0 0 0 0,-1.394 C 99.704,70.132 95.516,65.381 90.041,64.256 l -0.197,-2.652 -5.422,0.408 0.178,2.357 a 12.505,12.505 0 0 0 -3.028,1.162 L 44.627,29.174 a 12.379,12.379 0 0 0 1.299,-4.817 l 6.328,0.254 0.21,-5.43 -7.396,-0.294 C 43.191,14.282 38.671,11 33.418,11 Z m 50.8,0 c -6.916,0 -12.59,5.673 -12.59,12.59 0,3.453 1.428,6.574 3.71,8.842 1.875,1.889 4.223,2.998 6.78,3.504 0.115,0.02 0.228,0.047 0.345,0.064 l 0.326,4.336 5.422,-0.408 -0.328,-4.362 C 93.021,33.978 96.816,29.225 96.816,23.59 96.816,16.673 91.136,11 84.219,11 Z m -0.02,7.023 c 3.106,0 5.548,2.445 5.548,5.551 0,3.107 -2.442,5.549 -5.549,5.549 -3.106,0 -5.55,-2.442 -5.55,-5.549 0,-3.106 2.444,-5.55 5.55,-5.55 z m -50.944,0.122 c 3.107,0 5.55,2.444 5.55,5.55 0,3.107 -2.443,5.55 -5.55,5.55 -3.107,0 -5.549,-2.443 -5.549,-5.55 0,-3.106 2.442,-5.55 5.549,-5.55 z m 24.64,1.248 -0.21,5.43 10.857,0.433 0.213,-5.43 z M 88.62,45.348 83.198,45.756 84.015,56.6 89.437,56.191 Z M 12.57,59.91 c 3.106,0 5.548,2.444 5.548,5.55 0,3.108 -2.442,5.55 -5.549,5.55 -3.106,0 -5.55,-2.442 -5.55,-5.55 0,-3.106 2.444,-5.55 5.55,-5.55 z M 87.55,71 c 3.106,0 5.549,2.444 5.549,5.55 0,3.107 -2.443,5.55 -5.55,5.55 -3.106,0 -5.55,-2.443 -5.55,-5.55 0,-3.106 2.444,-5.55 5.55,-5.55 z"
     fill="#198754"
     id="path1948" />
</g>
</g>
</svg>
