<?xml version="1.0" encoding="UTF-8" standalone="no"?>
<!-- Created with Inkscape (http://www.inkscape.org/) -->

<svg
   width="64.413567mm"
   height="53.168903mm"
   viewBox="0 0 64.413567 53.168903"
   version="1.1"
   id="svg5"
   inkscape:version="1.2.2 (732a01da63, 2022-12-09, custom)"
   sodipodi:docname="portal.svg"
   xmlns:inkscape="http://www.inkscape.org/namespaces/inkscape"
   xmlns:sodipodi="http://sodipodi.sourceforge.net/DTD/sodipodi-0.dtd"
   xmlns="http://www.w3.org/2000/svg"
   xmlns:svg="http://www.w3.org/2000/svg">
  <sodipodi:namedview
     id="namedview7"
     pagecolor="#505050"
     bordercolor="#ffffff"
     borderopacity="1"
     inkscape:showpageshadow="0"
     inkscape:pageopacity="0"
     inkscape:pagecheckerboard="1"
     inkscape:deskcolor="#505050"
     inkscape:document-units="mm"
     showgrid="false"
     inkscape:zoom="0.75722503"
     inkscape:cx="171.01918"
     inkscape:cy="-275.34748"
     inkscape:window-width="1452"
     inkscape:window-height="752"
     inkscape:window-x="1981"
     inkscape:window-y="139"
     inkscape:window-maximized="0"
     inkscape:current-layer="layer1" />
  <defs
     id="defs2" />
  <g
     inkscape:label="Layer 1"
     inkscape:groupmode="layer"
     id="layer1"
     transform="translate(-7.6261594,65.369154)">
                        
                        <g
   id="SVGRepo_iconCarrier-ideas"
   transform="matrix(0.26458333,0,0,0.26458333,5.569551,-72.914227)">
  <g
     id="g1398">
    <path
       d="m 123.48,66.47 c 0.43,12.92 1.59,125.78 0.28,133.63 -1.18,7.07 -5.7,19.84 -14.33,21.18 -8.63,1.34 -14.23,-5.15 -16.82,-6 -2.59,-0.85 -9.75,3.53 -15.41,-0.34 -5.66,-3.87 -4.42,-14 -6,-15.72 -1.58,-1.72 -10.34,0.31 -14.54,-5.49 -4.2,-5.8 -0.55,-12 -1.88,-13.68 -1.33,-1.68 -14.27,-3.2 -16.1,-16.75 C 36.6,147.75 49.07,144.71 49,142.29 48.93,139.87 38.66,126.64 43.86,110.38 49.06,94.12 62.74,92.38 63.54,90.92 64.34,89.46 58.08,80.5 66.32,67.58 74.56,54.66 86.45,58.15 88.14,57 c 1.69,-1.15 -0.29,-6.24 5.44,-13.45 5.29,-6.66 15.41,-8.3 22.72,-4.09 6.63,3.86 6.75,14.09 7.18,27.01 z"
       fill="#191919"
       id="path1394" />
    <path
       d="m 107.06,229.47 c -7.58,0 -13.08,-3.77 -16.23,-5.93 l -0.08,-0.05 -0.37,0.08 c -3.87,0.89 -11.08,2.54 -17.69,-2 -5.94,-4.06 -7.45,-10.76 -8.16,-15.52 -4.21,-0.54 -10.23,-1.95 -14.32,-7.6 A 19.73,19.73 0 0 1 46.68,185 C 32.68,178.18 31.3,168.25 30.78,164.38 29,151.3 35,144.15 39.42,140.33 c -3,-6.52 -7.6,-18.54 -3.18,-32.38 A 35.26,35.26 0 0 1 54.45,86.41 c -0.93,-5.35 -1,-13.53 5.12,-23.13 7,-10.91 16.37,-13.24 22.25,-13.77 a 28,28 0 0 1 5.49,-10.9 c 7.65,-9.62 22.13,-12.28 33,-6 10.26,5.87 10.69,18.75 11.13,32.39 v 1.22 c 0.32,9.58 1.72,126 0.18,135.21 -1.93,11.61 -8.59,25.85 -21,27.78 a 23.41,23.41 0 0 1 -3.56,0.26 z M 91.84,207.23 a 10.49,10.49 0 0 1 3.15,0.46 18.08,18.08 0 0 1 4.88,2.65 c 3,2.07 5.38,3.5 8.34,3 2.71,-0.42 6.51,-7.65 7.67,-14.59 1.12,-8.18 0.09,-117.61 -0.39,-132.05 v -1.23 c -0.26,-7.84 -0.57,-17.6 -3.14,-19.08 -4,-2.31 -9.72,-1.33 -12.47,2.13 A 12.18,12.18 0 0 0 97,55.44 c -0.29,2.06 -0.82,5.89 -4.46,8.28 -2.31,1.52 -4.68,1.56 -6.77,1.6 -3.84,0.07 -8.62,0.17 -12.7,6.56 -4.33,6.79 -3,11.49 -2.16,14.6 0.57,2.05 1.43,5.15 -0.39,8.38 -1.53,2.71 -3.92,3.7 -6,4.57 -3.76,1.56 -10,4.17 -13,13.39 -3,9.53 1,17.82 3.41,22.77 1.19,2.44 2.05,4.21 2.11,6.48 0.13,4.75 -3.3,7.38 -5.35,9 -3,2.34 -5.92,4.54 -5,11.25 0.73,5.41 4.22,7.26 8.71,9.12 2.06,0.85 4.18,1.73 5.8,3.82 2.53,3.28 2,6.92 1.7,9.33 -0.3,2.41 -0.4,3.54 0.33,4.55 0.61,0.84 3.27,1.11 5,1.28 2.83,0.28 6.36,0.63 9,3.56 2.16,2.41 2.55,5.27 3,8.3 0.2,1.48 0.73,5.4 1.59,6.16 0.82,0.56 3.37,0 5.06,-0.42 a 22.44,22.44 0 0 1 4.96,-0.79 z"
       fill="#191919"
       id="path1396" />
  </g>
  <g
     id="g1404">
    <path
       d="m 132.29,63.82 c -0.67,13 -1.88,126.42 -0.7,134.33 1.06,7.12 3,15.1 13.59,20.24 8,3.88 15.62,-2.43 18.13,-3.25 2.51,-0.82 8.51,0.27 14.32,-3.53 5.81,-3.8 8.34,-12.3 9.92,-13.19 1.58,-0.89 9.23,-0.12 13.6,-5.89 4.37,-5.77 0.8,-11.79 1.3,-13.67 0.5,-1.88 11.92,-4.1 14.06,-16.43 2.64,-15.17 -9.72,-19.26 -10.06,-21.31 -0.34,-2.05 9.28,-9.24 6.29,-23.55 -3.27,-15.63 -13.39,-17.49 -14.16,-19.42 -0.77,-1.93 5.16,-6.87 2.08,-15.8 -3.08,-8.93 -11,-8.73 -12.16,-10.66 -1.16,-1.93 1.67,-6.79 -3.18,-12.79 -5.05,-6.25 -15.3,-3.09 -17,-4 -1.7,-0.91 -1.66,-7.15 -7.53,-13.37 -4.6,-4.87 -14.63,-7.39 -21.29,-1.73 -5.91,5 -6.5,11.04 -7.21,24.02 z"
       fill="#191919"
       id="path1400" />
    <path
       d="m 150.54,227.64 a 20,20 0 0 1 -8.87,-2.06 c -15.19,-7.4 -17.09,-20.14 -18,-26.26 -1.36,-9.09 0,-124.6 0.62,-135.93 0.64,-12.4 1.15,-22.19 10,-29.72 10,-8.48 24.76,-5.64 32.29,2.33 a 32.91,32.91 0 0 1 6.82,10.88 c 5.06,-0.13 12.83,0.44 18.12,7 a 20.39,20.39 0 0 1 4.76,12.84 21.51,21.51 0 0 1 11.93,13 22.48,22.48 0 0 1 -0.07,15.47 c 4.24,3.19 10,9.12 12.41,20.72 a 32.1,32.1 0 0 1 -3.95,23.62 c 4.37,4.12 10,11.67 7.77,24.26 -1.86,10.66 -8.76,16.09 -13.29,18.88 a 19.24,19.24 0 0 1 -3.58,14.67 c -4.63,6.12 -11.19,7.64 -15.16,8.27 -1.88,3.5 -5,9.16 -10.36,12.67 -5.8,3.79 -11.56,4.18 -15,4.41 l -1.24,0.09 -0.79,0.42 c -2.73,1.54 -8.05,4.44 -14.41,4.44 z m -1.91,-183.1 a 6,6 0 0 0 -4,1.34 c -3.07,2.6 -3.72,5.35 -4.4,18.35 -0.68,13 -1.75,124.77 -0.73,132.77 0.91,6.13 2.11,10.76 9.18,14.2 2.42,1.18 5.34,-0.21 8.63,-2 a 20.77,20.77 0 0 1 3.52,-1.65 20.52,20.52 0 0 1 5.09,-0.78 c 2.47,-0.17 5,-0.34 7.32,-1.84 2.07,-1.35 3.91,-4.79 5.14,-7.06 1.43,-2.66 2.66,-5 5.25,-6.41 a 13.88,13.88 0 0 1 5.14,-1.45 c 2.7,-0.38 4.86,-0.79 6,-2.29 0.77,-1 0.71,-2 0.15,-4.61 a 12.82,12.82 0 0 1 -0.19,-6.32 c 1,-3.75 3.92,-5.39 6.26,-6.7 3.82,-2.15 6.81,-4.18 7.65,-9 1.17,-6.75 -2,-9.24 -5.1,-11.64 -1.85,-1.44 -4.38,-3.42 -5,-7 -0.62,-3.58 1.25,-6.44 2.74,-8.63 2.15,-3.15 5.1,-7.47 3.61,-14.59 -1.76,-8.43 -5.68,-10.87 -8.53,-12.65 -1.82,-1.13 -4.08,-2.54 -5.23,-5.47 -1.54,-3.89 0.09,-7.26 1.06,-9.28 1.06,-2.2 1.9,-3.94 0.89,-6.86 -0.89,-2.58 -2.32,-3.27 -5,-4.35 -2,-0.81 -4.76,-1.93 -6.49,-4.83 a 12.23,12.23 0 0 1 -1.37,-7.34 c 0.11,-1.92 0.16,-2.88 -1.15,-4.5 -1,-1.29 -5,-1.07 -7.14,-1 -2.56,0.14 -5,0.28 -7.46,-1.07 -3.35,-1.82 -4.45,-4.92 -5.33,-7.42 A 19.12,19.12 0 0 0 155,47 9.53,9.53 0 0 0 148.64,44.54 Z"
       fill="#191919"
       id="path1402" />
  </g>
  <g
     id="g1408">
    <path
       d="m 123.48,66.47 c 0.43,12.92 1.59,125.78 0.28,133.63 -1.18,7.07 -5.7,19.84 -14.33,21.18 -8.63,1.34 -14.23,-5.15 -16.82,-6 -2.59,-0.85 -9.75,3.53 -15.41,-0.34 -5.66,-3.87 -4.42,-14 -6,-15.72 -1.58,-1.72 -10.34,0.31 -14.54,-5.49 -4.2,-5.8 -0.55,-12 -1.88,-13.68 -1.33,-1.68 -14.27,-3.2 -16.1,-16.75 C 36.6,147.75 49.07,144.71 49,142.29 48.93,139.87 38.66,126.64 43.86,110.38 49.06,94.12 62.74,92.38 63.54,90.92 64.34,89.46 58.08,80.5 66.32,67.58 74.56,54.66 86.45,58.15 88.14,57 c 1.69,-1.15 -0.29,-6.24 5.44,-13.45 5.29,-6.66 15.41,-8.3 22.72,-4.09 6.63,3.86 6.75,14.09 7.18,27.01 z"
       fill="#ffffff"
       id="path1406" />
  </g>
  <g
     id="g1412">
    <path
       d="m 132.29,63.82 c -0.67,13 -1.88,126.42 -0.7,134.33 1.06,7.12 3,15.1 13.59,20.24 8,3.88 15.62,-2.43 18.13,-3.25 2.51,-0.82 8.51,0.27 14.32,-3.53 5.81,-3.8 8.34,-12.3 9.92,-13.19 1.58,-0.89 9.23,-0.12 13.6,-5.89 4.37,-5.77 0.8,-11.79 1.3,-13.67 0.5,-1.88 11.92,-4.1 14.06,-16.43 2.64,-15.17 -9.72,-19.26 -10.06,-21.31 -0.34,-2.05 9.28,-9.24 6.29,-23.55 -3.27,-15.63 -13.39,-17.49 -14.16,-19.42 -0.77,-1.93 5.16,-6.87 2.08,-15.8 -3.08,-8.93 -11,-8.73 -12.16,-10.66 -1.16,-1.93 1.67,-6.79 -3.18,-12.79 -5.05,-6.25 -15.3,-3.09 -17,-4 -1.7,-0.91 -1.66,-7.15 -7.53,-13.37 -4.6,-4.87 -14.63,-7.39 -21.29,-1.73 -5.91,5 -6.5,11.04 -7.21,24.02 z"
       fill="#ffffff"
       id="path1410" />
  </g>
  <g
     id="g1416">
    <path
       d="m 152.16,76 c -4.5,-3.15 -51.77,44.84 -50.25,48.77 1.52,3.93 16.93,3.7 19,6.09 2.07,2.39 -16.74,44.47 -13.25,47.2 2.62,2 49.83,-44.23 49.13,-48.38 -0.7,-4.15 -13.36,-3.37 -16.13,-6 -2.77,-2.63 14.72,-45.41 11.5,-47.68 z"
       fill="#e83a2a"
       id="path1414" />
  </g>
  <path
     d="m 11.15,147.17 c 2.17,0 15.49,-3.55 17.67,-4.89 2.18,-1.34 -0.4,-8.91 -2.07,-9.25 -1.67,-0.34 -15.75,3.73 -17.67,4.89 -1.92,1.16 -0.08,9.28 2.07,9.25 z"
     fill="#191919"
     id="path1418" />
  <path
     d="M 8.36,97.94 C 6.66,96.2 8.94,89.5 11.53,89.47 14.12,89.44 26.48,93.56 28,95 c 1.52,1.44 -0.27,8.17 -3.17,8.47 -2.9,0.3 -14.6,-3.62 -16.47,-5.53 z"
     fill="#191919"
     id="path1420" />
  <path
     d="m 34.5,67.22 c -1.09,-2.18 3.14,-7.85 5.61,-7.09 2.47,0.76 7.89,4.87 8.79,6.68 0.9,1.81 -2.76,7.69 -5.61,7.09 -2.85,-0.6 -7.59,-4.3 -8.79,-6.68 z"
     fill="#191919"
     id="path1422" />
  <path
     d="m 24,196.51 c -2.43,-0.12 -5.31,-6.58 -3.44,-8.37 1.87,-1.79 8,-4.47 10.13,-4.4 2.13,0.07 5.36,6.17 3.44,8.37 -1.92,2.2 -7.5,4.52 -10.13,4.4 z"
     fill="#191919"
     id="path1424" />
  <path
     d="m 241.72,104.39 c -1.64,-0.17 -10.78,1.87 -12.52,3 -1.74,1.13 0.88,8.66 2.11,9.14 1.23,0.48 11,-2 12.52,-3 1.52,-1 -0.47,-8.97 -2.11,-9.14 z"
     fill="#191919"
     id="path1426" />
  <path
     d="m 219.86,88.45 c -2.43,-0.09 -5.38,-6.52 -3.52,-8.33 1.86,-1.81 13.66,-7.32 15.74,-7.26 2.08,0.06 5.57,5.83 3.67,8 -1.9,2.17 -13.22,7.68 -15.89,7.59 z"
     fill="#191919"
     id="path1428" />
  <path
     d="m 250,142 c 2.06,1.29 1.41,8.34 -1.1,9 -2.51,0.66 -15.49,-0.47 -17.27,-1.56 -1.78,-1.09 -1.65,-8 1.1,-9 2.75,-1 15.01,0.13 17.27,1.56 z"
     fill="#191919"
     id="path1430" />
  <path
     d="m 238.12,177.63 c 1.72,1.72 -0.52,8.44 -3.11,8.49 -2.59,0.05 -8.52,-2.18 -10,-3.64 -1.48,-1.46 0.21,-8.17 3.11,-8.49 2.9,-0.32 8.11,1.75 10,3.64 z"
     fill="#191919"
     id="path1432" />
</g>
</g>
</svg>
