<?xml version="1.0" encoding="UTF-8" standalone="no"?>
<!-- Created with Inkscape (http://www.inkscape.org/) -->

<svg
   width="106.392mm"
   height="101.94537mm"
   viewBox="0 0 106.392 101.94537"
   version="1.1"
   id="svg5"
   inkscape:version="1.2.2 (732a01da63, 2022-12-09, custom)"
   sodipodi:docname="portal.svg"
   xmlns:inkscape="http://www.inkscape.org/namespaces/inkscape"
   xmlns:sodipodi="http://sodipodi.sourceforge.net/DTD/sodipodi-0.dtd"
   xmlns="http://www.w3.org/2000/svg"
   xmlns:svg="http://www.w3.org/2000/svg">
  <sodipodi:namedview
     id="namedview7"
     pagecolor="#505050"
     bordercolor="#ffffff"
     borderopacity="1"
     inkscape:showpageshadow="0"
     inkscape:pageopacity="0"
     inkscape:pagecheckerboard="1"
     inkscape:deskcolor="#505050"
     inkscape:document-units="mm"
     showgrid="false"
     inkscape:zoom="0.75722503"
     inkscape:cx="171.01918"
     inkscape:cy="-275.34748"
     inkscape:window-width="1452"
     inkscape:window-height="752"
     inkscape:window-x="1981"
     inkscape:window-y="139"
     inkscape:window-maximized="0"
     inkscape:current-layer="layer1" />
  <defs
     id="defs2" />
  <g
     inkscape:label="Layer 1"
     inkscape:groupmode="layer"
     id="layer1"
     transform="translate(0,101.94537)">
                        
                        <g
   id="SVGRepo_iconCarrier-kbase"
   transform="matrix(0.26458333,0,0,0.26458333,0,-104.16857)"> <g
   id="_x30_3._Catalog_1_"> <g
   id="g1123"> <g
   id="XMLID_4_"> <g
   id="g1070"> <g
   id="g1024"> <path
   style="fill:#ff7124"
   d="m 391.6,343.608 c 2.14,8 -2.61,16.22 -10.61,18.37 l -66.63,17.85 c -8,2.15 -16.22,-2.6 -18.37,-10.61 l -8.03,-29.97 95.61,-25.62 z"
   id="path1022" />
 </g>
 <g
   id="g1028"> <path
   style="fill:#ff7124"
   d="m 315.47,59.508 68.1,254.12 -95.61,25.62 -68.09,-254.12 z m 17.22,205.39 c 2.67,-0.71 4.25,-3.45 3.53,-6.12 l -34.32,-128.1 c -0.71,-2.66 -3.46,-4.25 -6.12,-3.53 l -25.03,6.71 c -2.67,0.71 -4.25,3.45 -3.54,6.12 l 34.32,128.1 c 0.72,2.66 3.46,4.25 6.13,3.53 z"
   id="path1026" />
 </g>
 <g
   id="g1032"> <path
   style="fill:#f2d59f"
   d="m 336.22,258.778 c 0.72,2.67 -0.86,5.41 -3.53,6.12 l -25.03,6.71 c -2.67,0.72 -5.41,-0.87 -6.13,-3.53 l -34.32,-128.1 c -0.71,-2.67 0.87,-5.41 3.54,-6.12 l 25.03,-6.71 c 2.66,-0.72 5.41,0.87 6.12,3.53 z"
   id="path1030" />
 </g>
 <g
   id="g1036"> <path
   style="fill:#ff7124"
   d="m 307.44,29.538 8.03,29.97 -95.6,25.62 -8.03,-29.98 c -2.15,-8 2.6,-16.22 10.6,-18.37 l 66.63,-17.85 c 8,-2.15 16.23,2.6 18.37,10.61 z"
   id="path1034" />
 </g>
 <g
   id="g1040"> <path
   style="fill:#8ecac1"
   d="m 207.95,337.678 v 31.03 c 0,8.29 -6.71,15 -15,15 h -68.97 c -8.29,0 -15,-6.71 -15,-15 v -31.03 z"
   id="path1038" />
 </g>
 <g
   id="g1044"> <path
   style="fill:#8ecac1"
   d="m 207.95,74.588 v 263.09 H 108.98 V 74.588 Z m -31.53,197.85 v -132.61 c 0,-2.76 -2.24,-5 -5,-5 h -25.91 c -2.76,0 -5,2.24 -5,5 v 132.61 c 0,2.77 2.24,5 5,5 h 25.91 c 2.76,0 5,-2.23 5,-5 z"
   id="path1042" />
 </g>
 <g
   id="g1048"> <path
   style="fill:#8ecac1"
   d="m 207.95,43.558 v 31.03 h -98.97 v -31.03 c 0,-8.28 6.71,-15 15,-15 h 68.97 c 8.29,0 15,6.72 15,15 z"
   id="path1046" />
 </g>
 <g
   id="g1052"> <path
   style="fill:#f2d59f"
   d="m 176.42,139.828 v 132.61 c 0,2.77 -2.24,5 -5,5 h -25.91 c -2.76,0 -5,-2.23 -5,-5 v -132.61 c 0,-2.76 2.24,-5 5,-5 h 25.91 c 2.76,0 5,2.24 5,5 z"
   id="path1050" />
 </g>
 <g
   id="g1056"> <path
   style="fill:#8ecac1"
   d="m 108.98,337.678 v 31.03 c 0,8.29 -6.72,15 -15,15 H 25 c -8.28,0 -15,-6.71 -15,-15 v -31.03 z"
   id="path1054" />
 </g>
 <g
   id="g1060"> <path
   style="fill:#8ecac1"
   d="m 108.98,74.588 v 263.09 H 10 V 74.588 Z m -31.53,197.85 v -132.61 c 0,-2.76 -2.24,-5 -5,-5 H 46.53 c -2.76,0 -5,2.24 -5,5 v 132.61 c 0,2.77 2.24,5 5,5 h 25.92 c 2.76,0 5,-2.23 5,-5 z"
   id="path1058" />
 </g>
 <g
   id="g1064"> <path
   style="fill:#8ecac1"
   d="m 108.98,43.558 v 31.03 H 10 v -31.03 c 0,-8.28 6.72,-15 15,-15 h 68.98 c 8.28,0 15,6.72 15,15 z"
   id="path1062" />
 </g>
 <g
   id="g1068"> <path
   style="fill:#f2d59f"
   d="m 77.45,139.828 v 132.61 c 0,2.77 -2.24,5 -5,5 H 46.53 c -2.76,0 -5,-2.23 -5,-5 v -132.61 c 0,-2.76 2.24,-5 5,-5 h 25.92 c 2.76,0 5,2.24 5,5 z"
   id="path1066" />
 </g>
 </g>
 <g
   id="g1120"> <g
   id="g1074"> <path
   style="fill:#5e2a41"
   d="M 72.45,287.438 H 46.53 c -8.271,0 -15,-6.729 -15,-15 V 139.829 c 0,-8.271 6.729,-15 15,-15 h 25.92 c 8.271,0 15,6.728 15,15 v 132.609 c 0,8.272 -6.728,15 -15,15 z m -20.92,-20 H 67.45 V 144.829 H 51.53 Z"
   id="path1072" />
 </g>
 <g
   id="g1078"> <path
   style="fill:#5e2a41"
   d="M 108.98,84.588 H 10 c -5.523,0 -10,-4.478 -10,-10 0,-5.522 4.477,-10 10,-10 h 98.98 c 5.522,0 10,4.478 10,10 0,5.523 -4.477,10 -10,10 z"
   id="path1076" />
 </g>
 <g
   id="g1082"> <path
   style="fill:#5e2a41"
   d="M 108.98,347.678 H 10 c -5.523,0 -10,-4.477 -10,-10 0,-5.522 4.477,-10 10,-10 h 98.98 c 5.522,0 10,4.478 10,10 0,5.523 -4.477,10 -10,10 z"
   id="path1080" />
 </g>
 <g
   id="g1086"> <path
   style="fill:#5e2a41"
   d="M 93.98,393.708 H 25 c -13.785,0 -25,-11.215 -25,-25 V 43.558 c 0,-13.785 11.215,-25 25,-25 h 68.98 c 13.785,0 25,11.215 25,25 0,5.522 -4.478,10 -10,10 -5.522,0 -10,-4.478 -10,-10 0,-2.757 -2.243,-5 -5,-5 H 25 c -2.757,0 -5,2.243 -5,5 v 325.15 c 0,2.757 2.243,5 5,5 h 68.98 c 2.757,0 5,-2.243 5,-5 0,-5.522 4.478,-10 10,-10 5.522,0 10,4.478 10,10 0,13.786 -11.214,25 -25,25 z"
   id="path1084" />
 </g>
 <g
   id="g1090"> <path
   style="fill:#5e2a41"
   d="m 171.42,287.438 h -25.91 c -8.271,0 -15,-6.729 -15,-15 V 139.829 c 0,-8.271 6.729,-15 15,-15 h 25.91 c 8.271,0 15,6.728 15,15 v 132.609 c 0,8.272 -6.729,15 -15,15 z m -20.91,-20 h 15.91 V 144.829 h -15.91 z"
   id="path1088" />
 </g>
 <g
   id="g1094"> <path
   style="fill:#5e2a41"
   d="m 207.95,84.588 h -98.97 c -5.522,0 -10,-4.478 -10,-10 0,-5.522 4.478,-10 10,-10 h 98.97 c 5.522,0 10,4.478 10,10 0,5.523 -4.477,10 -10,10 z"
   id="path1092" />
 </g>
 <g
   id="g1098"> <path
   style="fill:#5e2a41"
   d="m 207.95,347.678 h -98.97 c -5.522,0 -10,-4.477 -10,-10 0,-5.522 4.478,-10 10,-10 h 98.97 c 5.522,0 10,4.478 10,10 0,5.523 -4.477,10 -10,10 z"
   id="path1096" />
 </g>
 <g
   id="g1102"> <path
   style="fill:#5e2a41"
   d="m 192.95,393.708 h -68.97 c -13.785,0 -25,-11.215 -25,-25 V 43.558 c 0,-13.785 11.215,-25 25,-25 h 68.97 c 13.785,0 25,11.215 25,25 v 325.15 c 0,13.786 -11.215,25 -25,25 z M 123.98,38.558 c -2.757,0 -5,2.243 -5,5 v 325.15 c 0,2.757 2.243,5 5,5 h 68.97 c 2.757,0 5,-2.243 5,-5 V 43.558 c 0,-2.757 -2.243,-5 -5,-5 z"
   id="path1100" />
 </g>
 <g
   id="g1106"> <path
   style="fill:#5e2a41"
   d="m 306.363,281.785 c -6.603,0 -12.678,-4.412 -14.486,-11.095 L 257.551,142.566 c -2.131,-8.014 2.64,-16.247 10.63,-18.371 l 25.01,-6.706 c 3.848,-1.04 7.896,-0.513 11.372,1.491 3.479,2.006 5.966,5.244 7,9.119 l 34.317,128.092 c 1.041,3.862 0.512,7.912 -1.495,11.387 -2.003,3.467 -5.235,5.944 -9.104,6.979 l -25.03,6.711 c -1.298,0.35 -2.604,0.517 -3.888,0.517 z m -28.199,-139.561 31.73,118.433 15.372,-4.122 -31.729,-118.432 z"
   id="path1104" />
 </g>
 <g
   id="g1110"> <path
   style="fill:#5e2a41"
   d="m 219.864,95.131 c -4.416,0 -8.456,-2.946 -9.653,-7.414 -1.43,-5.335 1.736,-10.818 7.07,-12.248 l 95.601,-25.62 c 5.338,-1.434 10.818,1.735 12.248,7.07 1.43,5.335 -1.736,10.818 -7.07,12.248 l -95.601,25.62 c -0.867,0.233 -1.738,0.344 -2.595,0.344 z"
   id="path1108" />
 </g>
 <g
   id="g1114"> <path
   style="fill:#5e2a41"
   d="m 287.954,349.251 c -4.416,0 -8.456,-2.946 -9.653,-7.415 -1.43,-5.334 1.736,-10.817 7.071,-12.247 l 95.61,-25.62 c 5.331,-1.43 10.817,1.735 12.247,7.071 1.43,5.334 -1.736,10.817 -7.071,12.247 l -95.61,25.62 c -0.866,0.233 -1.738,0.344 -2.594,0.344 z"
   id="path1112" />
 </g>
 <g
   id="g1118"> <path
   style="fill:#5e2a41"
   d="m 310.434,390.353 c -4.329,0 -8.603,-1.136 -12.454,-3.361 -5.779,-3.338 -9.915,-8.729 -11.647,-15.181 L 202.181,57.735 c -3.573,-13.3 4.35,-27.036 17.665,-30.613 L 286.483,9.269 c 6.442,-1.733 13.183,-0.848 18.969,2.493 5.787,3.342 9.925,8.737 11.65,15.194 l 76.128,284.083 v 0.002 l 8.03,29.98 c 3.56,13.307 -4.37,27.039 -17.675,30.613 l -66.637,17.853 c -2.154,0.58 -4.341,0.866 -6.514,0.866 z M 292.963,28.412 c -0.403,0 -0.838,0.051 -1.298,0.174 l -66.637,17.853 c -1.737,0.467 -2.648,1.661 -3.034,2.331 -0.386,0.668 -0.963,2.049 -0.497,3.784 l 84.152,314.077 c 0.347,1.292 1.177,2.375 2.334,3.044 0.668,0.386 2.046,0.962 3.782,0.497 l 66.637,-17.853 c 2.66,-0.715 4.25,-3.464 3.538,-6.126 L 297.781,32.126 c -0.468,-1.748 -1.66,-2.656 -2.33,-3.043 -0.491,-0.284 -1.368,-0.671 -2.488,-0.671 z"
   id="path1116" />
 </g>
 </g>
 </g>
 </g>
 </g>
 </g>
</g>
</svg>
