<?xml version="1.0" encoding="UTF-8" standalone="no"?>
<!-- Created with Inkscape (http://www.inkscape.org/) -->

<svg
   width="121.91999mm"
   height="135.46667mm"
   viewBox="0 0 121.91999 135.46667"
   version="1.1"
   id="svg5"
   inkscape:version="1.2.2 (732a01da63, 2022-12-09, custom)"
   sodipodi:docname="portal.svg"
   xmlns:inkscape="http://www.inkscape.org/namespaces/inkscape"
   xmlns:sodipodi="http://sodipodi.sourceforge.net/DTD/sodipodi-0.dtd"
   xmlns="http://www.w3.org/2000/svg"
   xmlns:svg="http://www.w3.org/2000/svg">
  <sodipodi:namedview
     id="namedview7"
     pagecolor="#505050"
     bordercolor="#ffffff"
     borderopacity="1"
     inkscape:showpageshadow="0"
     inkscape:pageopacity="0"
     inkscape:pagecheckerboard="1"
     inkscape:deskcolor="#505050"
     inkscape:document-units="mm"
     showgrid="false"
     inkscape:zoom="0.75722503"
     inkscape:cx="171.01918"
     inkscape:cy="-275.34748"
     inkscape:window-width="1452"
     inkscape:window-height="752"
     inkscape:window-x="1981"
     inkscape:window-y="139"
     inkscape:window-maximized="0"
     inkscape:current-layer="layer1" />
  <defs
     id="defs2" />
  <g
     inkscape:label="Layer 1"
     inkscape:groupmode="layer"
     id="layer1"
     transform="translate(-4.8000002e-8,135.46666)">
                        
                        <g
   id="SVGRepo_iconCarrier-index"
   transform="matrix(0.26458333,0,0,0.26458333,-6.7733332,-135.46666)"
   inkscape:export-filename="SVGRepo_iconCarrier-index.svg"
   inkscape:export-xdpi="96"
   inkscape:export-ydpi="96"> <path
   style="fill:#538489"
   d="m 356.233,406.775 -7.117,-2.662 -3.465,6.758 c -13.397,26.103 -31.061,48.247 -51.055,64.051 l 7.117,15.027 c 35.857,-7.859 69.308,-25.045 96.734,-49.698 l 8.465,-7.603 -9.677,-5.999 c -12.254,-7.594 -26.052,-14.284 -41.002,-19.874 z"
   id="path11" />

                            <path
   style="fill:#8cc0c5"
   d="m 375.074,269.15 0.333,8.183 h 94.029 l -0.555,-9.062 c -1.698,-27.435 -8.704,-54.033 -20.804,-79.036 l -6.861,-14.157 -8.132,13.466 c -5.086,8.422 -10.94,15.974 -17.314,22.374 -0.41,0.401 -41.788,41.762 -41.788,41.762 l 0.316,3.934 c 0.332,4.139 0.605,8.312 0.776,12.536 z"
   id="path13" />

                            <path
   style="fill:#a9d0d3"
   d="m 156.535,155.051 7.049,2.611 3.473,-6.665 c 13.329,-25.54 30.737,-47.232 50.347,-62.72 L 210.287,73.25 c -35.302,7.74 -68.343,24.567 -95.548,48.674 l -8.644,7.654 9.856,6.016 c 12.296,7.501 25.958,14.047 40.584,19.457 z"
   id="path15" />

                            <path
   style="fill:#6fb0b6"
   d="m 337.203,391.817 7.407,2.099 2.85,-7.159 c 11.273,-28.39 17.707,-59.341 19.098,-91.989 l 0.384,-8.9 H 340.77 l -8.806,8.806 -8.806,-8.806 h -62.891 v 94.874 l 8.192,0.324 c 23.748,0.954 46.873,4.564 68.744,10.751 z"
   id="path17" />

                            <path
   style="fill:#538489"
   d="m 336.273,411.085 5.103,-9.523 -10.453,-2.756 c -19.729,-5.197 -40.499,-8.303 -61.756,-9.207 l -8.9,-0.384 v 97.681 l 12.757,-7.279 c 25.02,-14.252 46.882,-37.957 63.249,-68.532 z"
   id="path19" />

                            <polygon
   style="fill:#8cc0c5"
   points="260.267,222.993 260.267,277.333 314.615,277.333 "
   id="polygon21" />

                            <path
   style="fill:#6fb0b6"
   d="m 375.074,294.059 c -1.331,33.587 -7.817,65.357 -19.268,94.43 l -3.149,8.004 8.021,3.089 c 16.503,6.357 31.77,14.114 45.372,23.074 l 6.246,4.105 4.89,-5.649 c 30.899,-35.661 48.777,-79.292 51.678,-126.182 l 0.555,-9.062 h -94.037 z"
   id="path23" />

                            <path
   style="fill:#538489"
   d="m 181.069,398.797 -10.445,2.756 5.094,9.523 c 16.367,30.583 38.238,54.289 63.258,68.548 l 12.757,7.279 v -97.707 l -8.9,0.384 c -21.265,0.914 -42.052,4.02 -61.764,9.217 z"
   id="path25" />

                            <path
   style="fill:#a9d0d3"
   d="m 214.46,99.447 -15.718,18.714 c -8.422,10.035 -15.872,20.941 -22.153,32.418 l -5.239,9.6 10.59,2.748 c 8.218,2.133 17.041,3.951 26.223,5.402 l 12.937,2.039 -3.354,-12.646 c -2.927,-11.025 -4.25,-22.409 -3.942,-33.835 z"
   id="path27" />

                            <path
   style="fill:#8cc0c5"
   d="m 227.627,183.074 -2.108,-3.951 -4.446,-0.512 c -16.068,-1.826 -31.428,-4.779 -45.662,-8.772 l -7.347,-2.065 -2.867,7.074 c -11.674,28.791 -18.313,60.279 -19.746,93.577 l -0.393,8.909 h 106.675 v -62.899 l -3.439,-3.422 c -8.209,-8.218 -15.163,-17.622 -20.667,-27.939 z"
   id="path29" />

                            <path
   style="fill:#6fb0b6"
   d="m 145.442,294.767 c 1.399,32.64 7.817,63.573 19.081,91.947 l 2.842,7.159 7.415,-2.099 c 21.786,-6.17 44.919,-9.779 68.762,-10.735 l 8.192,-0.324 V 285.867 H 145.058 Z"
   id="path31" />

                            <path
   style="fill:#538489"
   d="m 166.306,410.786 -3.465,-6.758 -7.117,2.662 c -14.199,5.316 -27.938,12.066 -40.841,20.07 l -9.677,5.999 8.474,7.603 c 27.409,24.593 60.809,41.745 96.606,49.596 l 7.117,-15.027 c -20.018,-15.829 -37.682,-38.007 -51.097,-64.145 z"
   id="path33" />

                            <path
   style="fill:#8cc0c5"
   d="m 136.926,269.141 c 1.357,-34.227 8.021,-66.483 19.797,-95.881 l 3.217,-8.047 -8.09,-3.098 c -16.247,-6.212 -31.377,-13.858 -44.971,-22.707 l -6.187,-4.028 -4.873,5.547 C 64.288,176.793 46.07,220.825 43.126,268.27 l -0.563,9.062 H 136.6 Z"
   id="path35" />

                            <path
   style="fill:#6fb0b6"
   d="m 151.287,399.488 8.013,-3.089 -3.14,-7.996 c -11.435,-29.065 -17.903,-60.8 -19.234,-94.336 l -0.324,-8.192 H 42.556 l 0.563,9.062 c 2.91,46.933 20.804,90.59 51.738,126.251 l 4.898,5.649 6.238,-4.105 c 14.088,-9.283 29.329,-17.1 45.294,-23.244 z"
   id="path37" />

                            <path
   style="fill:#fedea1"
   d="m 332.8,178.227 c 28.587,0 51.849,-23.262 51.849,-51.849 0,-28.587 -23.262,-51.848 -51.849,-51.848 -28.587,0 -51.849,23.262 -51.849,51.849 0,28.595 23.262,51.848 51.849,51.848 z"
   id="path39" />

                            <path
   style="fill:#ff877f"
   d="M 414.302,44.885 C 392.525,23.116 363.588,11.127 332.8,11.127 c -30.788,0 -59.725,11.989 -81.502,33.758 -44.937,44.937 -44.937,118.059 0,162.995 l 81.502,81.365 c 0,0 81.084,-80.947 81.502,-81.365 44.928,-44.936 44.928,-118.058 0,-162.995 z M 332.8,74.522 c 28.595,0 51.857,23.262 51.857,51.857 0,28.595 -23.262,51.866 -51.857,51.866 -28.595,0 -51.857,-23.262 -51.857,-51.866 0,-28.604 23.262,-51.857 51.857,-51.857 z"
   id="path41" />

                            <g
   id="g47"> <path
   style="fill:#573a32"
   d="m 331.964,191.181 c 35.26,0 63.957,-28.749 63.957,-64.06 0,-35.311 -28.698,-64.06 -63.957,-64.06 -35.259,0 -63.949,28.74 -63.949,64.06 0,35.32 28.689,64.06 63.949,64.06 z m 0,-103.177 c 21.53,0 39.049,17.545 39.049,39.125 0,21.58 -17.519,39.125 -39.049,39.125 -21.53,0 -39.049,-17.545 -39.049,-39.125 0,-21.58 17.519,-39.125 39.049,-39.125 z"
   id="path43" />

                                <path
   style="fill:#573a32"
   d="M 421.726,37.231 C 397.73,13.218 365.85,0 331.964,0 298.078,0 266.206,13.218 242.21,37.231 237.312,42.138 233.045,47.42 229.12,52.873 114.551,66.193 25.6,163.456 25.6,281.6 25.6,408.849 128.751,512 256,512 383.249,512 486.4,408.849 486.4,281.6 486.4,238.336 474.351,197.939 453.606,163.354 466.364,120.09 455.74,71.322 421.726,37.231 Z M 212.113,81.587 c -20.762,16.401 -38.69,38.758 -52.617,65.468 -14.097,-5.214 -27.213,-11.494 -39.091,-18.748 25.669,-22.733 57.054,-39.125 91.708,-46.72 z m -2.611,78.319 c -8.687,-1.374 -17.186,-3.089 -25.412,-5.231 6.255,-11.46 13.414,-21.76 21.188,-31.019 -0.333,12.186 1.075,24.389 4.224,36.25 z M 102.221,146.56 c 14.08,9.165 29.696,17.067 46.583,23.526 -11.827,29.517 -18.987,63.044 -20.403,98.714 H 51.644 c 2.893,-46.686 21.495,-89.165 50.577,-122.24 z M 51.644,294.4 h 76.757 c 1.391,35.038 8.354,67.985 19.823,97.126 -17.067,6.571 -32.725,14.729 -46.908,24.064 C 72.755,382.669 54.502,340.591 51.644,294.4 Z m 67.737,139.605 c 11.972,-7.424 25.079,-13.986 39.339,-19.328 14.037,27.358 32.256,50.227 53.402,66.935 -35.124,-7.696 -66.885,-24.405 -92.741,-47.607 z M 243.2,472.209 c -23.808,-13.577 -44.493,-36.258 -59.955,-65.161 18.825,-4.966 38.938,-8.038 59.955,-8.943 z m 0,-99.686 c -24.858,0.998 -48.623,4.787 -70.741,11.042 C 161.912,357.001 155.358,326.724 153.976,294.4 H 243.2 Z m 0,-103.723 h -89.233 c 1.408,-32.973 8.209,-63.795 19.132,-90.743 14.967,4.198 30.72,7.185 47.002,9.028 5.743,10.761 13.099,20.881 22.144,29.952 0.06,0.06 0.41,0.41 0.956,0.947 z M 259.831,54.878 c 19.243,-19.311 44.86,-29.935 72.132,-29.935 27.272,0 52.898,10.624 72.149,29.935 39.782,39.842 39.782,104.653 -0.026,144.521 -0.469,0.469 -13.79,13.815 -29.815,29.815 l -42.3,42.334 -49.101,-49.126 C 270.036,209.605 260.257,199.826 259.839,199.373 220.049,159.522 220.049,94.72 259.831,54.878 Z M 319.625,294.4 c 5.367,5.367 8.747,8.747 8.747,8.747 l 3.593,3.584 3.593,-3.584 c 0,0 3.379,-3.379 8.747,-8.747 h 13.73 c -1.382,32.35 -7.945,62.626 -18.5,89.207 -22.127,-6.255 -45.867,-10.069 -70.724,-11.068 V 294.4 Z M 268.8,268.8 v -25.216 c 7.97,7.97 16.819,16.819 25.225,25.216 z m 0,203.409 v -74.086 c 21.018,0.905 41.122,3.977 59.955,8.934 -15.471,28.903 -36.147,51.584 -59.955,65.152 z m 31.087,9.404 c 21.12,-16.683 39.33,-39.526 53.359,-66.85 14.251,5.333 27.537,11.716 39.501,19.132 -25.882,23.261 -57.694,40.012 -92.86,47.718 z m 110.865,-66.091 c -14.174,-9.327 -29.952,-17.34 -47.002,-23.902 11.486,-29.158 18.458,-62.14 19.857,-97.22 h 76.757 c -2.866,46.165 -21.094,88.209 -49.612,121.122 z M 460.356,268.8 h -76.757 c -0.171,-4.335 -0.452,-8.627 -0.802,-12.894 19.797,-19.789 38.417,-38.4 38.921,-38.895 7.364,-7.381 13.5,-15.514 18.671,-24.064 11.238,23.211 18.295,48.794 19.967,75.853 z"
   id="path45" />
 </g>
 </g>
</g>
</svg>
