<?xml version="1.0" encoding="UTF-8" standalone="no"?>
<!-- Created with Inkscape (http://www.inkscape.org/) -->

<svg
   width="27.910618mm"
   height="31.752722mm"
   viewBox="0 0 27.910618 31.752722"
   version="1.1"
   id="svg5"
   inkscape:version="1.2.2 (732a01da63, 2022-12-09, custom)"
   sodipodi:docname="portal.svg"
   xmlns:inkscape="http://www.inkscape.org/namespaces/inkscape"
   xmlns:sodipodi="http://sodipodi.sourceforge.net/DTD/sodipodi-0.dtd"
   xmlns="http://www.w3.org/2000/svg"
   xmlns:svg="http://www.w3.org/2000/svg">
  <sodipodi:namedview
     id="namedview7"
     pagecolor="#505050"
     bordercolor="#ffffff"
     borderopacity="1"
     inkscape:showpageshadow="0"
     inkscape:pageopacity="0"
     inkscape:pagecheckerboard="1"
     inkscape:deskcolor="#505050"
     inkscape:document-units="mm"
     showgrid="false"
     inkscape:zoom="0.75722503"
     inkscape:cx="171.01918"
     inkscape:cy="-275.34748"
     inkscape:window-width="1452"
     inkscape:window-height="752"
     inkscape:window-x="1981"
     inkscape:window-y="139"
     inkscape:window-maximized="0"
     inkscape:current-layer="layer1" />
  <defs
     id="defs2">
    <style
       id="style1575">.cls-1{fill:#f57c00;}.cls-2{fill:#999;}.cls-3{fill:#666;}</style>
  </defs>
  <g
     inkscape:label="Layer 1"
     inkscape:groupmode="layer"
     id="layer1"
     transform="translate(-50.336454,48.022242)">
                        
                        <g
   id="SVGRepo_iconCarrier-problems"
   transform="matrix(0.26458333,0,0,0.26458333,47.359388,-49.079996)">
  <path
     fill="#ffe36c"
     d="m 81.13,29.99 -18.34,0.18 15.68,-8.55 -3.71,-13.24 10.41,7.9 10.47,-8.01 -2.75,10.78 17.26,1.98 -17.96,7 -7.16,12.5 z"
     id="path1758" />
  <path
     d="m 92.27,13.37 -0.76,2.96 -1.13,4.45 4.56,0.52 6.94,0.79 -9.76,3.81 -1.32,0.51 -0.7,1.23 -4.68,8.17 -1.92,-5.2 -0.98,-2.65 -2.82,0.04 -8.91,0.09 7.24,-3.95 2.8,-1.53 -0.86,-3.07 -1.67,-5.96 4.44,3.37 2.43,1.84 2.42,-1.85 4.68,-3.57 M 85.16,13.76 72.49,4.15 C 72.08,3.84 71.51,4.23 71.65,4.72 l 4.46,15.91 -19.44,10.6 c -0.49,0.27 -0.3,1.01 0.26,1 L 79.74,32 l 4.5,12.17 c 0.16,0.43 0.74,0.47 0.97,0.08 l 8.37,-14.62 22.82,-8.9 c 0.52,-0.2 0.42,-0.97 -0.13,-1.03 L 95.4,17.32 98.62,4.67 C 98.75,4.18 98.18,3.8 97.78,4.11 Z"
     fill="#ff8f00"
     id="path1760" />
  <path
     d="m 94.59,44.29 c -1.27,-0.18 -7.6,6.13 -12.17,2.17 l -0.01,0.01 A 43.674,43.674 0 0 0 73.69,40.96 C 51.94,30.59 25.89,39.81 15.51,61.57 c -10.37,21.75 -1.15,47.8 20.61,58.18 21.75,10.37 47.8,1.15 58.18,-20.61 3.37,-7.06 4.67,-14.57 4.14,-21.85 -0.04,-0.51 -0.13,-1.64 0.12,-2.48 1.71,-5.74 7.93,-8.6 7.8,-8.87 C 106.23,65.66 95.87,44.47 94.59,44.29 Z"
     fill="#4d4d4d"
     id="path1762" />
  <ellipse
     transform="rotate(-29.923,100.447,55.121)"
     cx="100.46"
     cy="55.119999"
     rx="5.8299999"
     ry="12.33"
     fill="#757575"
     id="ellipse1764" />
  <ellipse
     transform="rotate(-30,102.345,55.102)"
     cx="102.35"
     cy="55.099998"
     rx="2.29"
     ry="3.52"
     fill="#212121"
     id="ellipse1766" />
  <path
     d="m 53.9,52.57 c 2.74,7.78 -1.27,12.42 -6.46,15.39 -2.48,1.42 -5.36,2.04 -7.87,3.41 -4.88,2.66 -7.84,7.79 -12.09,11.36 -1.06,0.89 -2.27,1.71 -3.65,1.86 -1.84,0.2 -3.64,-0.88 -4.74,-2.37 C 18,80.72 13.53,66.5 29.85,51.95 37.14,45.45 50.9,44.04 53.9,52.57 Z"
     opacity="0.9"
     fill="#757575"
     id="path1768" />
  <linearGradient
     id="IconifyId17ecdb2904d178eab5809"
     gradientUnits="userSpaceOnUse"
     x1="42.078999"
     y1="34.551998"
     x2="83.811996"
     y2="48.063">
    <stop
       offset="0"
       stop-color="#fff9c4"
       stop-opacity=".1"
       id="stop1770" />
    <stop
       offset=".002"
       stop-color="#fff9c4"
       stop-opacity=".101"
       id="stop1772" />
    <stop
       offset=".378"
       stop-color="#fffca6"
       stop-opacity=".263"
       id="stop1774" />
    <stop
       offset=".701"
       stop-color="#fffe94"
       stop-opacity=".401"
       id="stop1776" />
    <stop
       offset=".93"
       stop-color="#ffff8d"
       stop-opacity=".5"
       id="stop1778" />
  </linearGradient>
  <path
     d="m 41.86,38.72 c 3.69,0.12 11.23,0.17 20.77,3.92 3.21,1.26 5.92,3.02 8.83,4.82 2.35,1.45 5.02,2.66 7.77,2.4 0.97,-0.09 2.04,-0.47 2.42,-1.37 0.23,-0.56 0.21,-1.13 0.01,-1.69 -0.24,-0.66 -1.06,-1.58 -2.32,-2.61 A 44.392,44.392 0 0 0 73.7,40.96 C 63.34,36.02 52.01,35.53 41.86,38.72 Z"
     fill="url(#IconifyId17ecdb2904d178eab5809)"
     id="path1781"
     style="fill:url(#IconifyId17ecdb2904d178eab5809)" />
  <linearGradient
     id="IconifyId17ecdb2904d178eab5810"
     gradientUnits="userSpaceOnUse"
     x1="102.029"
     y1="57.301998"
     x2="91.139"
     y2="42.935001">
    <stop
       offset=".11"
       stop-color="#fff9c4"
       stop-opacity="0"
       id="stop1783" />
    <stop
       offset="1"
       stop-color="#ffff8d"
       id="stop1785" />
  </linearGradient>
  <path
     d="m 102.13,47.64 c -0.05,-0.05 -0.1,-0.11 -0.15,-0.16 -0.01,-0.01 -0.01,-0.02 -0.02,-0.02 -0.23,-0.23 -0.46,-0.45 -0.69,-0.67 -0.03,-0.03 -0.07,-0.06 -0.1,-0.1 -2.53,-2.29 -5.12,-3.26 -6.86,-2.27 -2.79,1.6 -2.3,7.69 1.1,13.59 a 25.56,25.56 0 0 0 2.37,3.43 c -0.1,-0.29 -3.84,-11.52 -1.51,-14.53 1.99,-2.54 5.51,0.43 5.86,0.73 z"
     fill="url(#IconifyId17ecdb2904d178eab5810)"
     id="path1788"
     style="fill:url(#IconifyId17ecdb2904d178eab5810)" />
  <path
     d="m 88.16,74.53 c -2.42,-1.59 -4.79,-3.75 -6.26,-9.18 -0.19,-0.69 -0.83,-4.12 1.02,-4.67 1.6,-0.48 2.79,2.15 4.17,4.46 1.5,2.53 3.93,4.72 6.54,6.15 0.76,0.41 4.29,2 1.97,4.22 -1.53,1.45 -6.02,-0.04 -7.44,-0.98 z"
     fill="#212121"
     id="path1790" />
  <path
     d="m 100.85,53.44 c 0.1,-0.04 10.25,-4.65 9.37,-11.34 -0.58,-4.42 -2.3,-6.62 -11.4,-8.78 -8.9,-2.11 -13.25,-6.24 -13.43,-6.42 -0.89,-0.86 -0.92,-2.29 -0.05,-3.19 0.86,-0.89 2.28,-0.92 3.18,-0.06 0.07,0.06 3.77,3.48 11.35,5.28 8.82,2.09 13.79,4.72 14.83,12.57 1.16,8.78 -8.52,14.25 -11.29,15.7 -1.72,0.91 -3.7,-3.26 -2.56,-3.76 z"
     fill="#c69461"
     id="path1792" />
  <path
     d="m 88.5,23.66 c -0.89,-0.86 -2.32,-0.83 -3.18,0.06 -0.86,0.9 -0.84,2.32 0.05,3.19 0.13,0.13 2.5,2.37 7.25,4.39 l 0.95,-1.66 3.66,-1.43 c -5.81,-1.86 -8.67,-4.5 -8.73,-4.55 z"
     fill="#f6bc41"
     id="path1794" />
</g>
</g>
</svg>
