<?xml version="1.0" encoding="UTF-8" standalone="no"?>
<!-- Created with Inkscape (http://www.inkscape.org/) -->

<svg
   version="1.1"
   id="svg1573"
   width="510.9212"
   height="512.25"
   viewBox="0 0 510.9212 512.25"
   xmlns="http://www.w3.org/2000/svg"
   xmlns:svg="http://www.w3.org/2000/svg">
  <defs
     id="defs1577" />
  <g
     id="g1579"
     transform="translate(0.72069412,-0.399746)">
    <g
       id="g3152"
       transform="translate(-1.2994956,0.64974601)">
      <path
         style="fill:#ede6a7"
         d="m 63.240926,507.75 c -1.159235,-1.2375 -2.587677,-3.51679 -3.174314,-5.0651 C 59.359109,500.81759 59,481.71088 59,445.9349 V 392 L 35.75,391.978 C 15.430993,391.95884 11.995743,391.72669 8.5,390.13652 4.2409526,388.19912 2.7065886,386.71119 1.65637,383.5 1.1106462,381.83137 1.3748775,381.91954 3.2511353,384.03215 8.1719287,389.5728 7.6166829,389.46642 34.401106,390 L 59.5,390.5 l 0.529324,56 c 0.291128,30.8 0.628628,56.09684 0.75,56.2152 0.121372,0.11837 1.617292,1.80587 3.324268,3.75 3.363825,3.83119 2.595125,4.97604 -0.862666,1.2848 z m 382.834214,0.9682 c 0.86633,-0.67001 2.44133,-2.54789 3.5,-4.17306 1.82431,-2.80051 1.95098,-5.83031 2.42486,-58 L 452.5,391.5 477,391 c 20.81455,-0.42479 24.98141,-0.76324 27.7003,-2.24998 1.76016,-0.96249 3.65898,-2.53749 4.21959,-3.5 0.56061,-0.96251 1.03298,-1.26596 1.0497,-0.67433 0.0309,1.09138 -3.23302,4.38585 -5.96959,6.02554 -0.825,0.49433 -12.525,1.12377 -26,1.39877 l -24.5,0.5 -0.5,55 c -0.275,30.25 -0.90444,55.675 -1.39877,56.5 -1.64048,2.73788 -4.9344,6.00046 -6.02554,5.9682 -0.59163,-0.0175 -0.36688,-0.58 0.49945,-1.25 z M 1.6959843,368.30194 c 0.3701916,-0.99107 14.5643927,-22.64735 31.5426677,-48.12506 28.514652,-42.78929 31.189683,-46.46845 35.06547,-48.22804 4.076882,-1.85089 9.422655,-1.90554 188.495538,-1.92688 200.92067,-0.0239 186.69983,-0.44087 192.32946,5.63876 3.64886,3.94054 60.87088,90.02992 60.87088,91.57903 0,0.69129 -14.12711,-19.93085 -31.39357,-45.82698 -27.36468,-41.04138 -31.87743,-47.31348 -35.16384,-48.87299 -3.59711,-1.70694 -12.22523,-1.75581 -187.85643,-1.06414 -157.972378,0.62212 -184.52988,0.93147 -187.214114,2.18069 -2.466104,1.1477 -9.756311,11.40289 -34.454114,48.46683 C 16.688544,347.97927 2.2387777,369.35243 1.8073403,369.61907 1.375903,369.88571 1.3257928,369.293 1.6959843,368.30194 Z M 83.520382,239.71317 c -2.231347,-1.26377 -4.969784,-4.00221 -6.233549,-6.23355 -2.206612,-3.89607 -2.254278,-4.6462 -2.270383,-35.72962 L 75,166 h -8.598871 c -10.055268,0 -14.191661,-1.54775 -18.207575,-6.81288 -2.185101,-2.86482 -2.691719,-4.58435 -2.683831,-9.10928 0.0096,-5.49181 0.369888,-6.17938 23.360404,-44.57784 12.842874,-21.45 24.313499,-40.070495 25.490277,-41.378879 2.85385,-3.173011 7.730146,-5.147406 12.357476,-5.003502 l 3.78212,0.117619 -4.59704,0.777603 c -9.579672,1.62043 -9.044108,0.943997 -34.445258,43.505359 -12.957812,21.71171 -24.034679,40.83847 -24.61526,42.50393 -1.425881,4.09028 -0.304538,9.27525 2.80521,12.97098 3.885494,4.61764 6.018361,5.39701 16.352348,5.97528 L 75.5,165.5 76,198.1788 c 0.474739,31.02781 0.604166,32.81822 2.561789,35.43822 4.935607,6.6056 5.767096,6.83235 27.257881,7.43338 l 19.68033,0.5504 -19,0.18315 c -18.047934,0.17397 -19.199414,0.0702 -22.979618,-2.07078 z m 149.999998,0 c -2.23134,-1.26377 -4.96978,-4.00221 -6.23355,-6.23355 L 225.0329,229.5 225.01645,167.75 225,106 h -8.59887 c -10.05527,0 -14.19166,-1.54775 -18.20758,-6.812885 -2.1851,-2.864815 -2.69171,-4.584341 -2.68383,-9.109273 0.01,-5.491808 0.36989,-6.179385 23.36041,-44.577842 22.86464,-38.1882228 26.37433,-43.5312139 28.55418,-43.4695913 0.59163,0.016725 0.28256,0.4922344 -0.68681,1.056688 -1.92109,1.1186159 -48.17543,78.0020923 -49.89506,82.9350293 -1.42588,4.090286 -0.30454,9.275254 2.80521,12.970979 3.8855,4.617645 6.01836,5.397015 16.35235,5.975285 l 9.5,0.53161 0.5,62.67745 c 0.48937,61.34516 0.54383,62.73614 2.56179,65.43822 4.93398,6.60665 5.76632,6.83368 27.25788,7.43473 l 19.68033,0.5504 -19,0.18315 c -18.04793,0.17397 -19.19941,0.0702 -22.97962,-2.07078 z m 150,0 c -2.23134,-1.26377 -4.96978,-4.00221 -6.23355,-6.23355 -2.20661,-3.89607 -2.25427,-4.6462 -2.27038,-35.72962 L 375,166 h -8.59887 c -10.05527,0 -14.19166,-1.54775 -18.20758,-6.81288 -2.1851,-2.86482 -2.69171,-4.58435 -2.68383,-9.10928 0.01,-5.49181 0.36989,-6.17938 23.36041,-44.57784 12.84287,-21.45 24.3135,-40.070495 25.49027,-41.378879 2.85385,-3.173011 7.73015,-5.147406 12.35748,-5.003502 l 3.78212,0.117619 -4.59704,0.777603 c -9.57967,1.62043 -9.04411,0.943997 -34.44526,43.505359 -12.95781,21.71171 -24.03468,40.83847 -24.61526,42.50393 -1.42588,4.09028 -0.30454,9.27525 2.80521,12.97098 3.8855,4.61764 6.01836,5.39701 16.35235,5.97528 l 9.5,0.53161 0.5,32.6788 c 0.47474,31.02781 0.60417,32.81822 2.56179,35.43822 4.93561,6.6056 5.76709,6.83235 27.25788,7.43338 l 19.68033,0.5504 -19,0.18315 c -18.04793,0.17397 -19.19941,0.0702 -22.97962,-2.07078 z M 126,240.60699 c 0,-0.21616 0.69837,-0.661 1.55194,-0.98855 0.88992,-0.34149 1.29132,-0.17385 0.94098,0.39301 C 127.90566,240.96166 126,241.4169 126,240.60699 Z m 150,0 c 0,-0.21616 0.69837,-0.661 1.55194,-0.98855 0.88992,-0.34149 1.29132,-0.17385 0.94098,0.39301 C 277.90566,240.96166 276,241.4169 276,240.60699 Z m 150,0 c 0,-0.21616 0.69837,-0.661 1.55194,-0.98855 0.88992,-0.34149 1.29132,-0.17385 0.94098,0.39301 C 427.90566,240.96166 426,241.4169 426,240.60699 Z M 131.5,237 c 0.99549,-1.1 2.03498,-2 2.30998,-2 0.275,0 -0.31449,0.9 -1.30998,2 -0.99549,1.1 -2.03498,2 -2.30998,2 -0.275,0 0.31449,-0.9 1.30998,-2 z m 150,0 c 0.99549,-1.1 2.03498,-2 2.30998,-2 0.275,0 -0.31449,0.9 -1.30998,2 -0.99549,1.1 -2.03498,2 -2.30998,2 -0.275,0 0.31449,-0.9 1.30998,-2 z m 150,0 c 0.99549,-1.1 2.03498,-2 2.30998,-2 0.275,0 -0.31449,0.9 -1.30998,2 -0.99549,1.1 -2.03498,2 -2.30998,2 -0.275,0 0.31449,-0.9 1.30998,-2 z m -296.93571,-4.29313 c 0.37553,-0.98622 0.93469,-1.54122 1.24258,-1.23333 0.30789,0.30789 6.4e-4,1.11479 -0.68278,1.79313 -0.98762,0.98026 -1.10248,0.8654 -0.5598,-0.5598 z m 150,0 c 0.37553,-0.98622 0.93469,-1.54122 1.24258,-1.23333 0.30789,0.30789 6.4e-4,1.11479 -0.68278,1.79313 -0.98762,0.98026 -1.10248,0.8654 -0.5598,-0.5598 z m 150,0 c 0.37553,-0.98622 0.93469,-1.54122 1.24258,-1.23333 0.30789,0.30789 6.4e-4,1.11479 -0.68278,1.79313 -0.98762,0.98026 -1.10248,0.8654 -0.5598,-0.5598 z M 136.44614,198.5 c 4e-4,-17.6 0.13647,-24.65916 0.30237,-15.68703 0.1659,8.97214 0.16557,23.37214 -7.3e-4,32 -0.1663,8.62787 -0.30204,1.28703 -0.30164,-16.31297 z m 150.02409,-30 c -1.2e-4,-34.1 0.12549,-48.19495 0.27912,-31.32211 0.15364,16.87284 0.15374,44.77284 2.3e-4,62 -0.15352,17.22716 -0.27922,3.42211 -0.27935,-30.67789 z m 149.97591,30 c 4e-4,-17.6 0.13647,-24.65916 0.30237,-15.68703 0.1659,8.97214 0.16557,23.37214 -7.3e-4,32 -0.1663,8.62787 -0.30204,1.28703 -0.30164,-16.31297 z M 142.28017,165.26373 c 2.6291,-0.20668 6.6791,-0.20418 9,0.006 2.32091,0.20972 0.16983,0.37882 -4.78017,0.37577 -4.95,-0.003 -6.84892,-0.17464 -4.21983,-0.38131 z m 300,0 c 2.6291,-0.20668 6.6791,-0.20418 9,0.006 2.32091,0.20972 0.16983,0.37882 -4.78017,0.37577 -4.95,-0.003 -6.84892,-0.17464 -4.21983,-0.38131 z M 156,164.60699 c 0,-0.21616 0.69837,-0.661 1.55194,-0.98855 0.88992,-0.34149 1.29132,-0.17385 0.94098,0.39301 C 157.90566,164.96166 156,165.4169 156,164.60699 Z m 300,0 c 0,-0.21616 0.69837,-0.661 1.55194,-0.98855 0.88992,-0.34149 1.29132,-0.17385 0.94098,0.39301 C 457.90566,164.96166 456,165.4169 456,164.60699 Z m -293.88657,-4.05882 c 0.88739,-1.12649 2.1112,-2.94817 2.71959,-4.04817 0.60839,-1.1 1.11985,-1.4446 1.13657,-0.76578 0.0167,0.67883 -1.20709,2.5005 -2.71959,4.04818 -1.5125,1.54767 -2.02396,1.89227 -1.13657,0.76577 z m 300,0 c 0.88739,-1.12649 2.1112,-2.94817 2.71959,-4.04817 0.60839,-1.1 1.11985,-1.4446 1.13657,-0.76578 0.0167,0.67883 -1.20709,2.5005 -2.71959,4.04818 -1.5125,1.54767 -2.02396,1.89227 -1.13657,0.76577 z M 166.27236,150 c 0,-2.475 0.19502,-3.4875 0.43337,-2.25 0.23836,1.2375 0.23836,3.2625 0,4.5 -0.23835,1.2375 -0.43337,0.225 -0.43337,-2.25 z m 300,0 c 0,-2.475 0.19502,-3.4875 0.43337,-2.25 0.23836,1.2375 0.23836,3.2625 0,4.5 -0.23835,1.2375 -0.43337,0.225 -0.43337,-2.25 z M 142,105 c -0.5887,-1.1 -0.84537,-2 -0.57037,-2 0.275,0 0.98167,0.9 1.57037,2 0.5887,1.1 0.84537,2 0.57037,2 -0.275,0 -0.98167,-0.9 -1.57037,-2 z m 300,0 c -0.5887,-1.1 -0.84537,-2 -0.57037,-2 0.275,0 0.98167,0.9 1.57037,2 0.5887,1.1 0.84537,2 0.57037,2 -0.275,0 -0.98167,-0.9 -1.57037,-2 z m -149.71983,0.26373 c 2.6291,-0.20668 6.6791,-0.20418 9,0.006 2.32091,0.20972 0.16983,0.37882 -4.78017,0.37577 -4.95,-0.003 -6.84892,-0.17464 -4.21983,-0.38131 z M 306,104.60699 c 0,-0.21616 0.69837,-0.661 1.55194,-0.98855 0.88992,-0.34149 1.29132,-0.17385 0.94098,0.39301 C 307.90566,104.96166 306,105.4169 306,104.60699 Z m 6.11343,-4.05882 c 0.88739,-1.126492 2.1112,-2.94817 2.71959,-4.04817 0.60839,-1.1 1.11985,-1.444599 1.13657,-0.765777 0.0167,0.678823 -1.20709,2.500501 -2.71959,4.048173 -1.5125,1.547674 -2.02396,1.892274 -1.13657,0.765774 z M 139,100 c -0.5887,-1.1 -0.84537,-2 -0.57037,-2 0.275,0 0.98167,0.9 1.57037,2 0.5887,1.1 0.84537,2 0.57037,2 -0.275,0 -0.98167,-0.9 -1.57037,-2 z m 300,0 c -0.5887,-1.1 -0.84537,-2 -0.57037,-2 0.275,0 0.98167,0.9 1.57037,2 0.5887,1.1 0.84537,2 0.57037,2 -0.275,0 -0.98167,-0.9 -1.57037,-2 z M 316.27236,90 c 0,-2.475 0.19502,-3.4875 0.43337,-2.25 0.23836,1.2375 0.23836,3.2625 0,4.5 -0.23835,1.2375 -0.43337,0.225 -0.43337,-2.25 z M 292,45 c -0.5887,-1.1 -0.84537,-2 -0.57037,-2 0.275,0 0.98167,0.9 1.57037,2 0.5887,1.1 0.84537,2 0.57037,2 -0.275,0 -0.98167,-0.9 -1.57037,-2 z m -3,-5 c -0.5887,-1.1 -0.84537,-2 -0.57037,-2 0.275,0 0.98167,0.9 1.57037,2 0.5887,1.1 0.84537,2 0.57037,2 -0.275,0 -0.98167,-0.9 -1.57037,-2 z"
         id="path3168" />
      <path
         style="fill:#fdd742"
         d="m 64.103592,506.4652 c -1.706976,-1.94413 -3.202896,-3.63163 -3.324268,-3.75 -0.121372,-0.11836 -0.458872,-25.4152 -0.75,-56.2152 L 59.5,390.5 34.5,390 C 7.3999441,389.458 7.528821,389.48459 2.78677,383.45605 1.1252063,381.34372 0.52265616,379.3119 0.58286773,376.02445 0.66027413,371.79818 2.7856757,368.3366 32.832793,323.5 c 23.100483,-34.47077 33.013926,-48.4585 35.171641,-49.62671 2.729267,-1.47765 19.89545,-1.69518 187.337626,-2.374 175.81766,-0.71278 184.50702,-0.66474 188.09906,1.03979 3.28241,1.55761 7.86261,7.93 35.66764,49.62401 17.54589,26.3103 31.56179,47.79873 31.14643,47.75205 C 509.83984,369.86847 495.55,348.84723 478.5,323.20127 461.45,297.55531 446.22959,275.65599 444.67688,274.53613 441.88552,272.52291 440.81084,272.5 349.17688,272.5 H 256.5 l -0.27087,20.30213 -0.27087,20.30213 -24.55313,36.77597 C 214.28745,375.5193 205.89021,387.23822 203.676,388.57811 200.64608,390.4116 197.30328,390.523 131,391 l -69.5,0.5 -0.294579,53 c -0.196244,35.30781 0.06015,54.2272 0.768062,56.6763 0.584452,2.02197 2.439039,4.83447 4.121304,6.25 1.682265,1.41554 2.620754,2.5737 2.08553,2.5737 -0.535223,0 -2.369749,-1.59066 -4.076725,-3.5348 z M 451.48273,445.5 l 0.0173,-55 25,-0.5 c 26.35494,-0.5271 27.57849,-0.74174 31.31637,-5.49368 2.57383,-3.27209 3.71009,-3.23943 1.55818,0.0448 C 505.7963,390.01221 503.55841,390.45799 477,391 l -24.5,0.5 -0.51727,54.5 -0.51726,54.5 0.0173,-55 z"
         id="path3166" />
      <path
         style="fill:#9ddb9c"
         d="m 106.54879,240.04243 c 29.39924,-0.83717 27.7844,1.57484 28.45121,-42.49624 L 135.5,164.5 145.55219,164 c 11.14189,-0.5542 14.13915,-1.80582 17.49181,-7.30433 3.06489,-5.02656 2.50319,-9.29062 -2.33422,-17.71988 -16.98129,-29.59024 -44.43855,-74.223277 -46.48567,-75.5646 -1.35179,-0.885728 -4.54272,-1.96266 -7.09095,-2.393183 L 102.5,60.235238 l 4.38197,-0.117619 c 8.23231,-0.220968 8.73684,0.414876 34.60578,43.612401 22.15757,37.00006 23.84442,40.15305 24.21944,45.26998 0.31502,4.29828 -0.0439,6.21211 -1.64291,8.75914 -3.51114,5.593 -7.38908,7.23287 -17.11428,7.23712 -5.31193,0.002 -9.00447,0.45821 -9.75,1.20374 -0.88246,0.88246 -1.20099,9.54876 -1.20374,32.75 -0.004,29.7181 -0.11911,31.73924 -1.99086,34.80914 -4.08788,6.70466 -6.25129,7.25757 -27.5054,7.02955 l -19,-0.20383 z m 150,0 c 20.65946,-0.58829 22.44307,-1.04883 26.18728,-6.76163 1.62403,-2.47789 1.80359,-7.69146 2.26393,-65.73607 L 285.5,104.5 295.55219,104 c 11.14189,-0.5542 14.13915,-1.80582 17.49181,-7.304334 2.38229,-3.907064 2.49912,-8.73615 0.31441,-12.995326 C 308.42229,74.077225 267.21665,6.1785188 265.15104,4.2641731 263.80734,3.0188779 263.22366,2 263.85398,2 c 2.37083,0 5.53086,4.7802397 28.19282,42.647779 21.59778,36.089323 23.28012,39.243343 23.65736,44.352221 0.31763,4.301535 -0.0397,6.210176 -1.63988,8.75914 -3.51114,5.593 -7.38908,7.23287 -17.11428,7.23712 -5.31193,0.002 -9.00447,0.45821 -9.75,1.20374 -0.90726,0.90726 -1.20091,16.21535 -1.20374,62.75 -0.004,59.65346 -0.065,61.65042 -1.99086,64.80914 -4.08788,6.70466 -6.25129,7.25757 -27.5054,7.02955 l -19,-0.20383 z m 150,0 c 29.39924,-0.83717 27.7844,1.57484 28.45121,-42.49624 L 435.5,164.5 445.55219,164 c 11.14189,-0.5542 14.13915,-1.80582 17.49181,-7.30433 3.06489,-5.02656 2.50319,-9.29062 -2.33422,-17.71988 -16.98129,-29.59024 -44.43855,-74.223277 -46.48567,-75.5646 -1.35179,-0.885728 -4.54272,-1.96266 -7.09095,-2.393183 L 402.5,60.235238 l 4.38197,-0.117619 c 8.23231,-0.220968 8.73684,0.414876 34.60578,43.612401 22.15757,37.00006 23.84442,40.15305 24.21944,45.26998 0.31502,4.29828 -0.044,6.21211 -1.64291,8.75914 -3.51114,5.593 -7.38908,7.23287 -17.11428,7.23712 -5.31193,0.002 -9.00447,0.45821 -9.75,1.20374 -0.88246,0.88246 -1.20099,9.54876 -1.20374,32.75 -0.004,29.7181 -0.11911,31.73924 -1.99086,34.80914 -4.08788,6.70466 -6.25129,7.25757 -27.5054,7.02955 l -19,-0.20383 z M 75.992422,197.5 75.5,165.5 l -9,-0.56103 -9,-0.56103 8.627555,-0.18897 c 6.271738,-0.13737 8.937987,0.18508 9.764429,1.18088 0.809071,0.97487 1.058444,10.41792 0.864867,32.75 L 76.484844,229.5 Z m 150.003608,-30 -0.49603,-62 -9,-0.56103 -9,-0.56103 8.62756,-0.18897 c 6.24786,-0.13685 8.93928,0.18664 9.75773,1.17282 0.81956,0.9875 1.05826,18.23418 0.86848,62.75 L 226.49206,229.5 Z m 149.99639,30 -0.49242,-32 -9,-0.56103 -9,-0.56103 8.62756,-0.18897 c 6.27173,-0.13737 8.93798,0.18508 9.76442,1.18088 0.80907,0.97487 1.05845,10.41792 0.86487,32.75 L 376.48484,229.5 Z M 46.232003,150 c 0,-1.925 0.205795,-2.7125 0.457323,-1.75 0.251527,0.9625 0.251527,2.5375 0,3.5 -0.251528,0.9625 -0.457323,0.175 -0.457323,-1.75 z M 346.232,150 c 0,-1.925 0.2058,-2.7125 0.45733,-1.75 0.25152,0.9625 0.25152,2.5375 0,3.5 -0.25153,0.9625 -0.45733,0.175 -0.45733,-1.75 z M 65,114 c 0.588702,-1.1 1.295368,-2 1.570368,-2 0.275,0 0.01833,0.9 -0.570368,2 -0.588702,1.1 -1.295368,2 -1.570368,2 -0.275,0 -0.01833,-0.9 0.570368,-2 z m 300,0 c 0.5887,-1.1 1.29537,-2 1.57037,-2 0.275,0 0.0183,0.9 -0.57037,2 -0.5887,1.1 -1.29537,2 -1.57037,2 -0.275,0 -0.0183,-0.9 0.57037,-2 z M 196.232,90 c 0,-1.925 0.2058,-2.7125 0.45733,-1.75 0.25152,0.9625 0.25152,2.5375 0,3.5 C 196.4378,92.7125 196.232,91.925 196.232,90 Z M 94,65.622445 c 0,-0.207656 0.7875,-0.995156 1.75,-1.75 C 97.336056,62.628574 97.371426,62.663944 96.127555,64.25 94.821186,65.915748 94,66.445479 94,65.622445 Z m 300,0 c 0,-0.207656 0.7875,-0.995156 1.75,-1.75 1.58606,-1.243871 1.62143,-1.208501 0.37756,0.377555 C 394.82119,65.915748 394,66.445479 394,65.622445 Z M 215,54 c 0.5887,-1.1 1.29537,-2 1.57037,-2 0.275,0 0.0183,0.9 -0.57037,2 -0.5887,1.1 -1.29537,2 -1.57037,2 -0.275,0 -0.0183,-0.9 0.57037,-2 z M 244,5.6224447 c 0,-0.2076554 0.7875,-0.9951554 1.75,-1.75 C 247.33606,2.6285741 247.37143,2.6639444 246.12756,4.25 244.82119,5.915748 244,6.4454789 244,5.6224447 Z"
         id="path3164" />
      <path
         style="fill:#99dd53"
         d="M 83.641297,238.10211 C 82.06901,237.06552 79.934475,234.93099 78.897886,233.3587 77.150652,230.70852 77.012698,228.16222 77.006589,198.45 77.00174,174.86315 76.683127,166.08313 75.8,165.2 c -0.755437,-0.75544 -4.552743,-1.20244 -10.25,-1.20659 -7.179876,-0.005 -9.640733,-0.39605 -11.908703,-1.8913 -4.365323,-2.878 -6.628161,-7.00986 -6.627799,-12.10211 2.9e-4,-4.09086 2.185892,-8.16335 24.038949,-44.79239 C 95.970414,63.441313 97.780246,61.01316 104,61.003656 l 2.5,-0.0038 -0.26061,89.500084 -0.2606,89.50008 -9.739396,-0.007 c -7.855344,-0.005 -10.2924,-0.37118 -12.598097,-1.8913 z M 105,150.39159 V 61.783184 l -2.75,0.668492 c -1.5125,0.367671 -3.936292,1.878955 -5.386204,3.358408 -1.449912,1.479454 -13.037412,20.20276 -25.75,41.607346 -24.925307,41.96753 -25.21041,42.63175 -21.15428,49.28402 C 52.966501,161.63307 56.610492,163 66.75034,163 c 5.549736,0 9.297125,0.44746 10.04966,1.2 0.883097,0.8831 1.2,9.61104 1.2,33.04966 0,35.19583 0.132197,36.03098 6.298549,39.79082 2.529584,1.54238 5.037755,1.95283 11.951451,1.95578 L 105,239 Z m 128.6413,87.71052 c -1.57229,-1.03659 -3.70682,-3.17112 -4.74341,-4.74341 -1.79513,-2.72283 -1.88502,-5.80795 -1.8913,-64.9087 -0.005,-46.92031 -0.29919,-62.3426 -1.20659,-63.25 -0.75544,-0.75544 -4.55274,-1.20244 -10.25,-1.20659 -7.17988,-0.005 -9.64073,-0.39605 -11.9087,-1.8913 -4.36555,-2.878147 -6.6282,-7.009826 -6.62753,-12.10211 5.3e-4,-4.08554 2.1665,-8.138037 23.51699,-44 12.93403,-21.725 24.65589,-40.5125 26.04859,-41.75 1.3927,-1.2375 3.29458,-2.2214762 4.22641,-2.1866137 1.3748,0.051435 1.31715,0.2193594 -0.30576,0.8906413 -3.59168,1.4856176 -5.96125,5.0727689 -29.37124,44.4634044 C 196.18641,89.386489 195.90243,90.047613 199.95952,96.701451 202.9665,101.63307 206.61049,103 216.75034,103 c 5.54974,0 9.29712,0.44746 10.04966,1.2 0.90747,0.90747 1.20091,16.32646 1.20374,63.25 0.004,59.77824 0.0752,62.16721 1.95578,65.25145 2.98069,4.88851 6.67154,6.29855 16.48674,6.29855 h 8.54558 l 0.2582,-118.75 0.2582,-118.75 0.24588,119.25 L 256,240 l -9.75,-0.007 c -7.86574,-0.005 -10.30247,-0.37082 -12.6087,-1.8913 z m 150,0 c -1.57229,-1.03659 -3.70682,-3.17112 -4.74341,-4.74341 -1.74724,-2.65018 -1.88519,-5.19648 -1.8913,-34.9087 -0.005,-23.58685 -0.32346,-32.36687 -1.20659,-33.25 -0.75544,-0.75544 -4.55274,-1.20244 -10.25,-1.20659 -7.17988,-0.005 -9.64073,-0.39605 -11.9087,-1.8913 -4.36533,-2.878 -6.62816,-7.00986 -6.6278,-12.10211 2.9e-4,-4.09086 2.18589,-8.16335 24.03895,-44.79239 C 395.97041,63.441313 397.78025,61.01316 404,61.003656 l 2.5,-0.0038 -0.26061,89.500084 -0.2606,89.50008 -9.7394,-0.007 c -7.85534,-0.005 -10.2924,-0.37118 -12.59809,-1.8913 z M 405,150.39159 V 61.783184 l -2.75,0.668492 c -1.5125,0.367671 -3.93629,1.878955 -5.3862,3.358408 -1.44992,1.479454 -13.03742,20.20276 -25.75,41.607346 -24.92531,41.96753 -25.21041,42.63175 -21.15428,49.28402 3.00698,4.93162 6.65097,6.29855 16.79082,6.29855 5.54974,0 9.29712,0.44746 10.04966,1.2 0.8831,0.8831 1.2,9.61104 1.2,33.04966 0,35.19583 0.1322,36.03098 6.29855,39.79082 2.52958,1.54238 5.03775,1.95283 11.95145,1.95578 L 405,239 Z"
         id="path3162" />
      <path
         style="fill:#96dd3c"
         d="M 84.298549,237.04048 C 78.132197,233.28064 78,232.44549 78,197.24966 78,173.81104 77.683097,165.0831 76.8,164.2 76.047465,163.44746 72.300076,163 66.75034,163 c -10.139848,0 -13.783839,-1.36693 -16.790824,-6.29855 -4.05613,-6.65227 -3.771027,-7.31649 21.15428,-49.28402 12.712588,-21.404586 24.300088,-40.127892 25.75,-41.607346 1.449912,-1.479453 3.873704,-2.990737 5.386204,-3.358408 L 105,61.783184 V 150.39159 239 l -8.75,-0.004 c -6.913696,-0.003 -9.421867,-0.4134 -11.951451,-1.95578 z m 150.000001,0 C 227.77995,233.06586 228,235.50411 228,167.24966 228,120.4777 227.70746,105.10746 226.8,104.2 226.04746,103.44746 222.30008,103 216.75034,103 206.61049,103 202.9665,101.63307 199.95952,96.701451 195.90261,90.047909 196.1868,89.3862 221.12593,47.417432 244.12096,8.7202811 247.94949,3.0139586 250.93709,2.9846872 c 1.2534,-0.01228 1.2953,-0.1848946 0.2116,-0.8716312 -0.95666,-0.6062299 -0.43303,-0.9910938 1.79295,-1.31779768 2.41747,-0.35481054 3.01875,-0.13443236 2.60131,0.95341868 C 255.24433,2.5268709 255,56.226771 255,121.08179 V 239 l -8.75,-0.004 c -6.9137,-0.003 -9.42187,-0.4134 -11.95145,-1.95578 z m 150,0 C 378.1322,233.28064 378,232.44549 378,197.24966 378,173.81104 377.6831,165.0831 376.8,164.2 c -0.75254,-0.75254 -4.49992,-1.2 -10.04966,-1.2 -10.13985,0 -13.78384,-1.36693 -16.79082,-6.29855 -4.05613,-6.65227 -3.77103,-7.31649 21.15428,-49.28402 12.71258,-21.404586 24.30008,-40.127892 25.75,-41.607346 1.44991,-1.479453 3.8737,-2.990737 5.3862,-3.358408 L 405,61.783184 V 150.39159 239 l -8.75,-0.004 c -6.9137,-0.003 -9.42187,-0.4134 -11.95145,-1.95578 z"
         id="path3160" />
      <path
         style="fill:#fd9000"
         d="m 71.613987,511.28448 c -3.249319,-0.83303 -8.59121,-6.47081 -9.669563,-10.20516 C 61.273685,498.75653 61.014255,478.89416 61.205421,444.5 L 61.5,391.5 131,391 c 66.30328,-0.477 69.64608,-0.5884 72.676,-2.42189 2.21421,-1.33989 10.61145,-13.05881 27.72913,-38.69788 l 24.55313,-36.77597 0.27087,-20.30213 L 256.5,272.5 h 92.67688 c 91.6972,0 92.70671,0.0216 95.5,2.04025 1.55271,1.12214 16.63739,22.72214 33.5215,48 16.88411,25.27786 31.28411,46.62369 32,47.43517 0.71589,0.81148 1.30162,3.51148 1.30162,6 0,3.60846 -0.60743,5.20992 -3,7.9094 -5.85672,6.60798 -0.49686,6.2559 -103.44516,6.79516 -93.15003,0.48794 -93.56882,0.48115 -96.78579,-1.56868 -2.20379,-1.40424 -10.7534,-13.34363 -26.89301,-37.55565 -13.01413,-19.5233 -24.04771,-35.25857 -24.51905,-34.96726 C 256.38565,316.87969 256,360.96648 256,414.55902 V 512 l -91.25,-0.116 c -50.1875,-0.0638 -92.098706,-0.33359 -93.136013,-0.59952 z"
         id="path3158" />
      <path
         style="fill:#59c268"
         d="m 106,150.96862 c 0,-98.853193 -0.522,-91.992451 6.71354,-88.237541 3.27976,1.702043 6.38487,6.362056 25.55591,38.353181 12.00239,20.02866 22.92684,38.53828 24.27654,41.1325 2.95743,5.68435 3.11244,10.19112 0.49801,14.47891 -3.35266,5.49851 -6.34992,6.75013 -17.49181,7.30433 L 135.5,164.5 135,197.54619 c -0.55315,36.55908 -0.51714,36.3594 -7.30433,40.49781 -2.55791,1.55965 -5.04171,1.94927 -12.44567,1.95226 L 106,240 Z M 256,119.875 V -0.25 l 3.01152,0.60230338 c 1.65633,0.33126686 4.30826,1.92885112 5.89316,3.55018722 2.42929,2.4851255 43.44573,70.0346014 48.45373,79.7978494 2.18471,4.259176 2.06788,9.088262 -0.31441,12.995326 C 309.69134,102.19418 306.69408,103.4458 295.55219,104 L 285.5,104.5 285,167.54473 c -0.46466,58.58901 -0.62752,63.23929 -2.30433,65.79774 -3.40221,5.19101 -7.22666,6.64966 -17.44567,6.65379 L 256,240 Z m 150,31.09362 c 0,-98.853193 -0.522,-91.992451 6.71354,-88.237541 3.27976,1.702043 6.38487,6.362056 25.55591,38.353181 12.00239,20.02866 22.92684,38.53828 24.27654,41.1325 2.95743,5.68435 3.11244,10.19112 0.49801,14.47891 -3.35266,5.49851 -6.34992,6.75013 -17.49181,7.30433 L 435.5,164.5 435,197.54619 c -0.55315,36.55908 -0.51714,36.3594 -7.30433,40.49781 -2.55791,1.55965 -5.04171,1.94927 -12.44567,1.95226 L 406,240 Z"
         id="path3156" />
      <path
         style="fill:#fd6318"
         d="m 256,414.55902 c 0,-53.59254 0.38565,-97.67933 0.85699,-97.97063 0.47134,-0.29131 11.50492,15.44396 24.51905,34.96726 16.63559,24.95608 24.62149,36.0819 26.89301,37.4669 3.13285,1.91016 5.34883,1.97009 72.98095,1.97371 L 451,391 v 55.04966 c 0,61.15847 0.26573,58.65912 -6.74298,63.42166 L 440.53573,512 H 348.26787 256 Z"
         id="path3154" />
    </g>
  </g>
</svg>
